<svg xmlns="http://www.w3.org/2000/svg" viewBox="0 0 360.48 49.06"><defs><style>.cls-1{fill:#fff;}</style></defs><title>Asset 29</title><g id="Layer_2" data-name="Layer 2"><g id="Layer_1-2" data-name="Layer 1"><rect class="cls-1" x="9.93" y="9.32" width="13.84" height="2.13" rx="1.06" ry="1.06"/><rect class="cls-1" x="9.93" y="21.96" width="13.84" height="2.13" rx="1.06" ry="1.06"/><rect class="cls-1" x="9.93" y="27.07" width="13.84" height="2.13" rx="1.06" ry="1.06"/><rect class="cls-1" x="7.52" y="38.2" width="13.84" height="2.13" rx="1.06" ry="1.06"/><rect class="cls-1" x="4.81" y="13.53" width="18.96" height="2.13" rx="1.06" ry="1.06"/><rect class="cls-1" x="7.52" y="17.74" width="16.25" height="2.13" rx="1.06" ry="1.06"/><path class="cls-1" d="M78.32,44.51c-1.6,3-4.64,4.48-9.09,4.48a10.72,10.72,0,0,1-7.89-2.89,9.86,9.86,0,0,1-2.93-7.31A9.23,9.23,0,0,1,62.13,31q3.72-2.84,10.75-2.83H78V26.05a6,6,0,0,0-1.52-4.41q-1.51-1.52-5.16-1.52A18.2,18.2,0,0,0,61,23.22V15.57q3.93-2.41,11.3-2.41,14.19,0,14.19,13.23V48.71h-8.2Zm-6.2-1.65a5.68,5.68,0,0,0,4.31-1.62A5.89,5.89,0,0,0,78,37V33.69H73.71a7.88,7.88,0,0,0-5,1.35A4.14,4.14,0,0,0,67,38.45Q67,42.86,72.12,42.86Z"/><path class="cls-1" d="M125.38,48.71h-8.26V27.29a7.43,7.43,0,0,0-1.69-5.17,5.65,5.65,0,0,0-4.38-1.86,7.58,7.58,0,0,0-5.34,2.27q-2.37,2.28-2.37,7.44V48.71H95.07V0h8.27V19.71q2.82-6.35,10.67-6.34a11,11,0,0,1,8.24,3.2q3.14,3.21,3.13,9.27Z"/><path class="cls-1" d="M164,48.71h-8.34V43q-2.76,6.06-10.75,6.06c-3.54,0-6.29-1-8.27-3s-3-4.89-3-8.62V13.78h8.27V35.49a7.09,7.09,0,0,0,1.62,5A5.83,5.83,0,0,0,148,42.24a7,7,0,0,0,5.62-2.41q2-2.41,2-7.31V13.78H164Z"/><path class="cls-1" d="M181.54,48.71h-8.27V0h8.27Z"/><path class="cls-1" d="M227.08,48.71H208.27V2.27h16.47q7.44,0,11.57,3.52a11.36,11.36,0,0,1,4.14,9.09,10.73,10.73,0,0,1-2.07,6.58,9.71,9.71,0,0,1-5.3,3.69,11.59,11.59,0,0,1,6.13,3.62,10.74,10.74,0,0,1,2.41,7.4,11.66,11.66,0,0,1-3.86,9Q233.91,48.71,227.08,48.71ZM223.64,9.37H217V21.84h5.24c3.12,0,5.47-.62,7-1.86a5.8,5.8,0,0,0,2.34-4.75,5.19,5.19,0,0,0-2-4.27Q227.64,9.37,223.64,9.37Zm.41,19.43H217V41.62h7.44q8.34,0,8.34-6.34T224.05,28.8Z"/><path class="cls-1" d="M266.91,44.51Q264.5,49,257.81,49a10.72,10.72,0,0,1-7.89-2.89A9.86,9.86,0,0,1,247,38.79,9.21,9.21,0,0,1,250.72,31q3.72-2.84,10.74-2.83h5.1V26.05a6,6,0,0,0-1.51-4.41c-1-1-2.74-1.52-5.17-1.52a18.23,18.23,0,0,0-10.27,3.1V15.57q3.93-2.41,11.3-2.41,14.2,0,14.2,13.23V48.71h-8.2Zm-6.2-1.65a5.67,5.67,0,0,0,4.3-1.62A5.84,5.84,0,0,0,266.56,37V33.69h-4.27a7.9,7.9,0,0,0-5,1.35,4.13,4.13,0,0,0-1.72,3.41Q255.61,42.86,260.71,42.86Z"/><path class="cls-1" d="M302.94,47.89a14.22,14.22,0,0,1-6.2,1.17q-11.3,0-11.3-11.44V20H280.2v-6.2h5.24V5.37h8.27v8.41h8.68V20h-8.68V37.76a4,4,0,0,0,4.41,4.48,8.58,8.58,0,0,0,4.82-1.45Z"/><path class="cls-1" d="M318,48.71H309.7l.06-34.93H318V20q2.42-6.48,8.82-6.48a10.5,10.5,0,0,1,2.34.21v8a8.82,8.82,0,0,0-3.51-.68,6.64,6.64,0,0,0-5.51,2.75A10.89,10.89,0,0,0,318,30.66Z"/><path class="cls-1" d="M352.28,44.51Q349.87,49,343.18,49a10.72,10.72,0,0,1-7.89-2.89,9.86,9.86,0,0,1-2.93-7.31A9.23,9.23,0,0,1,336.08,31q3.74-2.84,10.75-2.83h5.1V26.05a6,6,0,0,0-1.51-4.41c-1-1-2.74-1.52-5.17-1.52A18.23,18.23,0,0,0,335,23.22V15.57q3.93-2.41,11.3-2.41,14.19,0,14.2,13.23V48.71h-8.2Zm-6.2-1.65a5.67,5.67,0,0,0,4.3-1.62A5.84,5.84,0,0,0,351.93,37V33.69h-4.27a7.9,7.9,0,0,0-5,1.35A4.13,4.13,0,0,0,341,38.45Q341,42.86,346.08,42.86Z"/><rect class="cls-1" x="7.22" y="9.32" width="2.13" height="2.13" rx="1.06" ry="1.06"/><rect class="cls-1" y="13.53" width="3.93" height="2.13" rx="1.06" ry="1.06"/><rect class="cls-1" x="4.81" y="30.98" width="18.96" height="2.13" rx="1.06" ry="1.06"/><rect class="cls-1" x="4.81" y="30.98" width="18.96" height="2.13" rx="1.06" ry="1.06"/><rect class="cls-1" y="30.98" width="3.93" height="2.13" rx="1.06" ry="1.06"/><rect class="cls-1" x="2.71" y="38.2" width="3.93" height="2.13" rx="1.06" ry="1.06"/><rect class="cls-1" x="4.51" y="17.74" width="2.13" height="2.13" rx="1.06" ry="1.06"/><rect class="cls-1" x="7.22" y="27.07" width="2.13" height="2.13" rx="1.06" ry="1.06"/><rect class="cls-1" x="7.82" y="34.59" width="13.84" height="2.13" rx="1.06" ry="1.06"/><rect class="cls-1" x="5.12" y="34.59" width="2.13" height="2.13" rx="1.06" ry="1.06"/><rect class="cls-1" x="5.12" y="21.96" width="3.93" height="2.13" rx="1.06" ry="1.06"/><rect class="cls-1" x="9.93" y="42.12" width="13.84" height="2.13" rx="1.06" ry="1.06"/><rect class="cls-1" x="9.93" y="46.63" width="13.84" height="2.13" rx="1.06" ry="1.06"/><rect class="cls-1" x="5.72" y="42.12" width="3.93" height="2.13" rx="1.06" ry="1.06"/><rect class="cls-1" x="8.73" y="5.11" width="22.57" height="2.13" rx="1.06" ry="1.06"/><rect class="cls-1" x="1.5" y="5.11" width="6.92" height="2.13" rx="1.06" ry="1.06"/><path class="cls-1" d="M15.65,19s1.8-3,0-4.21,9.32,0,9.32,0l-.9,3.61Z"/><path class="cls-1" d="M16.85,28.28s2.26-2.86,0-5.12,6.92,0,6.92,0v5.12Z"/><path class="cls-1" d="M14.44,39.41s1.36-2.26,0-3.61,9.33,0,9.33,0l-.9,3.61Z"/><path class="cls-1" d="M16.85,47.83s1.35-3.16,0-4.51,7.52.9,7.52.9l-.6,3.61Z"/><path class="cls-1" d="M42.36,30.39a14,14,0,0,0,6.41-5.07A14.83,14.83,0,0,0,51.18,17,13.56,13.56,0,0,0,46.66,6.27q-4.52-4-12.43-4H19.89V7.21h4.32a1.07,1.07,0,0,1,0,2.13H19.89v2.09H21.8a1.06,1.06,0,1,1,0,2.12H19.89v6.3h.71a1.07,1.07,0,0,1,0,2.13h-.71v7.2H23a.73.73,0,0,1,.73.73v.34A.73.73,0,0,1,23,31H19.89v2.11h2.75a.53.53,0,0,1,.53.53v.44a.53.53,0,0,1-.53.53H19.89V48.71h8.69V31.76h4.75l10.54,17H54.28Zm-8-5.79H28.58V9.44h5.65a8.62,8.62,0,0,1,6,1.93,7.11,7.11,0,0,1,2.1,5.51,7.78,7.78,0,0,1-2,5.69Q38.37,24.6,34.36,24.6Z"/></g></g></svg>