<svg xmlns="http://www.w3.org/2000/svg" xmlns:xlink="http://www.w3.org/1999/xlink" viewBox="0 0 121.81 40.25"><defs><style>.cls-1{fill:none;}.cls-2{clip-path:url(#clip-path);}.cls-3{fill:#555;}.cls-4{fill:#1f425f;}.cls-5{fill:url(#linear-gradient);}.cls-6,.cls-8{isolation:isolate;}.cls-7,.cls-8{font-size:11px;font-family:DejaVuSansMonoPowerline, DejaVu Sans Mono for Powerline;}.cls-7{fill:#010101;}.cls-8{fill:#fff;}.cls-9{letter-spacing:0.06em;}</style><clipPath id="clip-path"><path class="cls-1" d="M3.23,7.93H117.34a3.12,3.12,0,0,1,3.23,3v14a3.13,3.13,0,0,1-3.23,3H3.23a3.13,3.13,0,0,1-3.23-3v-14A3.12,3.12,0,0,1,3.23,7.93Z"/></clipPath><linearGradient id="linear-gradient" x1="-894.4" y1="532.48" x2="-894.4" y2="531.48" gradientTransform="matrix(112, 0, 0, -20, 100233, 10657.48)" gradientUnits="userSpaceOnUse"><stop offset="0" stop-color="#bbb" stop-opacity="0.1"/><stop offset="1" stop-opacity="0.1"/></linearGradient></defs><title>Asset 1</title><g id="Layer_2" data-name="Layer 2"><g id="Layer_1-2" data-name="Layer 1"><g class="cls-2"><path class="cls-3" d="M0,7.93H63.51v20H0Z"/><path class="cls-4" d="M63.51,7.93h58.3v20H63.51Z"/><path class="cls-5" d="M0,7.93H120.57v20H0Z"/></g><g class="cls-6"><text class="cls-7" transform="translate(3.01 22.93) scale(1.01 1)">Made with</text></g><text class="cls-8" transform="translate(3.01 21.93) scale(1.01 1)">Made with </text><g class="cls-6"><text class="cls-7" transform="translate(65.5 22.93) scale(1.01 1)"><tspan class="cls-9">VSCod</tspan><tspan x="36.38" y="0">e</tspan></text></g><text class="cls-8" transform="translate(65.5 21.93) scale(1.01 1)"><tspan class="cls-9">VSCod</tspan><tspan x="36.38" y="0">e</tspan></text><text/></g></g></svg>