<?xml version="1.0" encoding="utf-8"?>
<!-- Generator: Adobe Illustrator 21.1.0, SVG Export Plug-In . SVG Version: 6.00 Build 0)  -->
<svg version="1.1"
	 id="svg3769" xmlns:cc="http://creativecommons.org/ns#" xmlns:dc="http://purl.org/dc/elements/1.1/" xmlns:rdf="http://www.w3.org/1999/02/22-rdf-syntax-ns#"
	 xmlns="http://www.w3.org/2000/svg" xmlns:xlink="http://www.w3.org/1999/xlink" x="0px" y="0px" viewBox="0 0 222.6 218.8"
	 style="enable-background:new 0 0 222.6 218.8;" xml:space="preserve">
<style type="text/css">
	.st0{fill:#FFFFFF;}
</style>
<g id="layer1" transform="translate(-314.39 -274.4)">
	<path id="svg" class="st0" d="M533,388.7c0-17-4.4-32.9-12.1-46.8c32.8-74.2-35.1-63.3-38.9-62.6c-14.4,2.8-27.7,7.3-40,13.1
		c-1.8-0.1-3.6-0.2-5.5-0.2c-45.8,0-84.2,32-94,74.8c24.2-27.1,41.1-38,51.2-42.4c-1.6,1.4-3.2,2.9-4.8,4.4c-0.5,0.5-1,1-1.5,1.5
		c-1,1-2,2-3,3c-0.6,0.6-1.2,1.2-1.8,1.8c-0.9,0.9-1.8,1.8-2.6,2.7c-0.6,0.6-1.2,1.3-1.8,1.9c-0.8,0.9-1.6,1.7-2.4,2.6
		c-0.6,0.7-1.2,1.4-1.8,2c-0.7,0.8-1.5,1.7-2.2,2.5c-0.6,0.7-1.2,1.4-1.8,2.1c-0.7,0.8-1.4,1.6-2.1,2.5c-0.6,0.7-1.2,1.4-1.8,2.2
		c-0.6,0.8-1.3,1.6-1.9,2.3c-0.6,0.8-1.2,1.5-1.8,2.3c-0.6,0.7-1.1,1.4-1.6,2.2c-0.6,0.8-1.2,1.6-1.8,2.4c-0.4,0.6-0.8,1.1-1.3,1.7
		c-3.8,5.2-7.3,10.3-10.4,15.2c0,0,0,0,0,0c-0.8,1.3-1.6,2.6-2.4,3.8c0,0.1-0.1,0.1-0.1,0.2c-0.8,1.3-1.5,2.5-2.3,3.7
		c0,0-0.1,0.1-0.1,0.1c-2,3.3-3.8,6.5-5.5,9.5c-8.7,15.7-12.9,26.7-13.1,27.4c-27.4,98.1,58.2,56.7,70.1,50.5
		c12.9,6.4,27.3,9.9,42.7,9.9c41.9,0,77.6-26.8,90.9-64.2h-50.7c-7.5,12.7-21.9,21.2-38.5,21.2c-24.3,0-44-18.4-44-41.1h138
		C532.8,397.1,533,392.9,533,388.7L533,388.7z M515,293.8c8.3,5.6,15,14.4,3.5,44.1c-11-17.6-27.5-31.5-47.1-39.1
		C480.4,294.5,502.5,285.3,515,293.8z M338.5,475.1c-6.8-6.9-8-23.8,7-54.6c7.5,21.7,22.6,39.8,42,51.3
		C377.8,477.1,352.1,489.1,338.5,475.1L338.5,475.1z M394.1,374.8c0.8-22.1,20-39.8,43.6-39.8c23.6,0,42.8,17.7,43.6,39.8H394.1
		L394.1,374.8z"/>
</g>
</svg>
