<?xml version="1.0" encoding="utf-8"?>

<svg version="1.1" id="Layer_1" xmlns="http://www.w3.org/2000/svg" xmlns:xlink="http://www.w3.org/1999/xlink" x="0px" y="0px"
	 viewBox="0 0 1280 800" style="enable-background:new 0 0 1280 800;" xml:space="preserve">
<style type="text/css">
	.st0{opacity:1;
	fill:white;}
	.st1{fill:none;}
	path{fill:white;}
	.st3{font-size:197px;
	color:white;}
</style>
<g class="st0">
	<path d="M72.7,245c2,1.2,4,2.4,6,3.6c1.9,1.2,3.9,2.5,5.8,3.7c1.9,1.3,3.9,2.5,5.7,3.8l5.7,3.9l5.6,4c1.9,1.3,3.7,2.7,5.5,4l5.5,4
		l5.4,4.3c14.5,11,28.5,22.6,42.1,34.6h-21.8c2.9-4,5.9-6.9,8.8-10.2l4.5-5.1c1.5-1.7,3-3.4,4.5-5c3-3.3,6-6.6,9.1-9.8
		c3-3.3,6.1-6.5,9.2-9.7l4.6-4.8l4.7-4.8c3.1-3.1,6.2-6.3,9.4-9.4c3.1-3.1,6.3-6.2,9.5-9.3c3.2-3.1,6.4-6.2,9.6-9.2l12.3,30
		l-9.5-0.4l-9.5-0.5l-9.5-0.5l-9.5-0.6c-6.3-0.5-12.6-1-19-1.6c-3.2-0.3-6.3-0.6-9.5-0.9c-3.2-0.3-6.3-0.7-9.5-1
		c-3.2-0.3-6.3-0.8-9.5-1.1c-3.2-0.4-6.3-0.8-9.5-1.3c-3.2-0.4-6.3-0.9-9.5-1.4l-9.5-1.5c-3.2-0.5-6.3-1.1-9.5-1.7
		c-3.2-0.6-6.3-1.2-9.5-1.8c-3.2-0.7-6.3-1.3-9.5-2.1C79,246.6,75.9,245.8,72.7,245z M72.7,245c3.2-0.8,6.3-1.5,9.5-2.2
		c3.2-0.7,6.3-1.3,9.5-1.9c3.2-0.6,6.3-1.2,9.5-1.7c3.2-0.5,6.3-1.1,9.5-1.5l9.5-1.4c3.2-0.4,6.3-0.8,9.5-1.2
		c3.2-0.4,6.3-0.7,9.5-1.1c3.2-0.3,6.3-0.7,9.5-1c3.2-0.3,6.3-0.6,9.5-0.9c3.2-0.3,6.3-0.5,9.5-0.8c6.3-0.5,12.7-0.9,19-1.3l9.5-0.5
		l9.5-0.4l9.5-0.3l9.5-0.2l42-1l-29.7,31c-3.1,3.2-6.1,6.4-9.2,9.6c-3.1,3.2-6.2,6.4-9.3,9.5c-3.1,3.2-6.3,6.3-9.4,9.4l-4.8,4.7
		l-4.8,4.6c-3.2,3.1-6.4,6.1-9.7,9.2c-3.2,3-6.5,6.1-9.8,9.1c-1.6,1.5-3.3,3-4.9,4.5l-5,4.5c-3.3,3-6.6,5.9-10,8.8l-12.5,10.8
		l-9.4-10.8c-11.9-13.6-23.4-27.6-34.4-42.1l-4.1-5.4l-4-5.5c-1.3-1.8-2.7-3.7-4-5.5l-4-5.6l-3.9-5.7c-1.3-1.9-2.5-3.8-3.8-5.7
		c-1.3-1.9-2.5-3.9-3.7-5.8C75.1,248.9,73.9,247,72.7,245z"/>
</g>
<rect x="327" y="217.6" class="st1" width="942.5" height="212.3"/>
<text transform="matrix(1 0 0 1 327.0137 357.4434)" class="st0 st2 st3">Rahul Batra</text></svg>
