<svg xmlns="http://www.w3.org/2000/svg" xmlns:xlink="http://www.w3.org/1999/xlink" viewBox="0 0 1478 1478"><defs><style>.cls-1{fill:url(#radial-gradient);}.cls-10,.cls-11,.cls-12,.cls-2,.cls-3,.cls-4,.cls-5,.cls-6,.cls-7,.cls-8,.cls-9{fill:#bcb489;}.cls-2{opacity:0.61;}.cls-4{opacity:0.29;}.cls-5{opacity:0.36;}.cls-6{opacity:0.37;}.cls-7{opacity:0.32;}.cls-8{opacity:0.24;}.cls-9{opacity:0.27;}.cls-10{opacity:0.35;}.cls-11{opacity:0.31;}.cls-12{opacity:0.33;}.cls-13{fill:#f9e380;}.cls-14{fill:#f6da6b;}.cls-15{fill:#00110e;}.cls-16{fill:#122b26;}.cls-17{fill:#001c17;}</style><radialGradient id="radial-gradient" cx="739" cy="739" r="739" gradientUnits="userSpaceOnUse"><stop offset="0" stop-color="#fff"/><stop offset="0.24" stop-color="#aebcb5"/><stop offset="0.46" stop-color="#627e70"/><stop offset="0.54" stop-color="#4f695a"/><stop offset="0.75" stop-color="#243b29"/><stop offset="0.91" stop-color="#0a1e0b"/><stop offset="1" stop-color="#001300"/></radialGradient></defs><title>Asset 367</title><g id="Layer_2" data-name="Layer 2"><g id="Layer_1-2" data-name="Layer 1"><rect class="cls-1" width="1478" height="1478"/><circle class="cls-2" cx="230.31" cy="124.33" r="3.89"/><circle class="cls-3" cx="296.24" cy="92.7" r="5.11"/><circle class="cls-3" cx="285.81" cy="118.06" r="3.01"/><circle class="cls-4" cx="101.61" cy="43.31" r="2.92"/><circle class="cls-3" cx="63.29" cy="56.45" r="3.65" transform="translate(-12.97 93.56) rotate(-67.68)"/><circle class="cls-3" cx="303.6" cy="39.96" r="4.01"/><circle class="cls-3" cx="357.19" cy="77.98" r="2.68" transform="translate(-8.36 84.15) rotate(-13.28)"/><circle class="cls-2" cx="382.01" cy="58.64" r="2.92"/><circle class="cls-3" cx="405.73" cy="115.05" r="2.63"/><circle class="cls-3" cx="406.52" cy="198.8" r="2.83"/><circle class="cls-5" cx="313.91" cy="201.27" r="3.38"/><circle class="cls-2" cx="362.18" cy="238.58" r="2.92" transform="translate(-45.13 89.59) rotate(-13.28)"/><circle class="cls-3" cx="322.49" cy="262.21" r="3.47" transform="translate(-51.62 81.11) rotate(-13.28)"/><circle class="cls-5" cx="345.94" cy="281.74" r="2.83"/><circle class="cls-3" cx="271.95" cy="299.8" r="3.65"/><circle class="cls-3" cx="204.25" cy="305.28" r="2.83"/><circle class="cls-3" cx="266.93" cy="352.99" r="3.1"/><circle class="cls-3" cx="257.26" cy="366.31" r="2.28" transform="translate(-46.45 37.48) rotate(-7.65)"/><circle class="cls-3" cx="1098.67" cy="147.07" r="6.75" transform="translate(-9.37 177.89) rotate(-9.22)"/><circle class="cls-3" cx="489.36" cy="258.2" r="3.1" transform="translate(-46.23 119.34) rotate(-13.28)"/><circle class="cls-6" cx="486.26" cy="222.8" r="3.28"/><circle class="cls-3" cx="639.26" cy="143.43" r="3.47" transform="translate(-15.85 150.71) rotate(-13.28)"/><circle class="cls-2" cx="647.74" cy="186.4" r="3.1"/><circle class="cls-3" cx="688.98" cy="35.13" r="3.01"/><circle class="cls-3" cx="780.28" cy="28.83" r="2.98" transform="translate(14.25 180.04) rotate(-13.28)"/><circle class="cls-7" cx="793.29" cy="77.74" r="2.98" transform="translate(3.36 184.34) rotate(-13.28)"/><circle class="cls-7" cx="771.82" cy="152" r="3.38"/><circle class="cls-2" cx="724.74" cy="247.66" r="3.1"/><circle class="cls-7" cx="684.78" cy="238.72" r="2.92"/><circle class="cls-3" cx="659.6" cy="238.72" r="2.69"/><circle class="cls-8" cx="564.72" cy="365.31" r="3.56"/><circle class="cls-3" cx="621.28" cy="335.02" r="2.55"/><circle class="cls-3" cx="688.8" cy="312.12" r="3.01"/><circle class="cls-2" cx="705.4" cy="373.7" r="3.47" transform="translate(-66.99 172.07) rotate(-13.28)"/><circle class="cls-3" cx="293.02" cy="453.17" r="3.38"/><circle class="cls-3" cx="261.45" cy="516.03" r="3.16"/><circle class="cls-3" cx="362.91" cy="440.61" r="3.41"/><circle class="cls-2" cx="463.02" cy="446.2" r="2.49"/><circle class="cls-3" cx="235" cy="690.47" r="3.19" transform="translate(-95.69 40.38) rotate(-8.17)"/><circle class="cls-3" cx="320.85" cy="654.8" r="3.56"/><circle class="cls-3" cx="366.46" cy="653.79" r="4.56"/><circle class="cls-3" cx="323.86" cy="601.79" r="2.55"/><circle class="cls-3" cx="453.9" cy="590.11" r="2.8" transform="translate(-123.44 120.07) rotate(-13.28)"/><circle class="cls-2" cx="491.24" cy="616.45" r="3.47"/><circle class="cls-2" cx="586.37" cy="537.26" r="2.98" transform="translate(-107.75 149.09) rotate(-13.28)"/><circle class="cls-9" cx="630.41" cy="507.7" r="2.49"/><circle class="cls-3" cx="615.63" cy="495.84" r="2.92"/><circle class="cls-3" cx="625.78" cy="595.52" r="2.62"/><circle class="cls-3" cx="549.09" cy="738.15" r="3.16" transform="translate(-154.91 145.9) rotate(-13.28)"/><circle class="cls-3" cx="565.08" cy="775.5" r="4.01" transform="translate(-163.06 150.58) rotate(-13.28)"/><circle class="cls-3" cx="242.2" cy="851.19" r="4.01"/><circle class="cls-6" cx="392.51" cy="829.19" r="2.74"/><circle class="cls-3" cx="625.72" cy="416.04" r="3.22"/><circle class="cls-3" cx="713.25" cy="477.16" r="3.53" transform="matrix(0.99, -0.16, 0.16, 0.99, -67.22, 120.41)"/><circle class="cls-2" cx="747.92" cy="555.32" r="2.68" transform="translate(-107.58 186.69) rotate(-13.28)"/><circle class="cls-3" cx="765.62" cy="546.62" r="2.74"/><circle class="cls-3" cx="710.28" cy="619.4" r="3.65" transform="translate(-90.04 121.77) rotate(-9.22)"/><circle class="cls-3" cx="837.05" cy="713.92" r="3.65"/><circle class="cls-3" cx="947.67" cy="864" r="3.65" transform="translate(-126.16 162.96) rotate(-9.22)"/><circle class="cls-3" cx="1072.08" cy="608.08" r="3.56"/><circle class="cls-2" cx="972.5" cy="721.12" r="3.56"/><circle class="cls-3" cx="1028.1" cy="560.19" r="2.83"/><circle class="cls-3" cx="1120.79" cy="555.35" r="2.55"/><circle class="cls-2" cx="1225.08" cy="500.34" r="2.68"/><circle class="cls-2" cx="987.07" cy="461.04" r="3.53"/><circle class="cls-2" cx="899.15" cy="571.57" r="3.53"/><circle class="cls-6" cx="197.89" cy="901.99" r="3.53" transform="translate(-142.45 43.55) rotate(-9.25)"/><circle class="cls-3" cx="935.37" cy="366.65" r="2.8" transform="translate(-59.22 224.71) rotate(-13.28)"/><circle class="cls-6" cx="993.77" cy="369.44" r="2.68"/><circle class="cls-6" cx="855.7" cy="328.45" r="2.92"/><circle class="cls-6" cx="1047.05" cy="833.82" r="2.92" transform="translate(-120.04 178.49) rotate(-9.22)"/><circle class="cls-2" cx="892.71" cy="223.71" r="2.92"/><circle class="cls-3" cx="916.25" cy="193.33" r="3.38"/><circle class="cls-2" cx="833.19" cy="109.43" r="2.8" transform="translate(-2.85 194.36) rotate(-13.28)"/><circle class="cls-3" cx="917.84" cy="144.16" r="2.92"/><circle class="cls-3" cx="1012.5" cy="47.69" r="3.16" transform="translate(16.13 233.9) rotate(-13.28)"/><circle class="cls-7" cx="568.28" cy="61.56" r="2.98"/><circle class="cls-2" cx="33.87" cy="549.81" r="2.8"/><circle class="cls-3" cx="118.52" cy="584.54" r="2.92" transform="translate(-92.38 26.64) rotate(-9.25)"/><circle class="cls-3" cx="213.17" cy="488.08" r="3.16"/><circle class="cls-3" cx="1095.61" cy="66.97" r="3.06"/><circle class="cls-7" cx="1125.86" cy="72.17" r="2.24" transform="translate(13.54 260.6) rotate(-13.28)"/><circle class="cls-3" cx="1178.55" cy="93.57" r="2.37" transform="translate(10.03 273.28) rotate(-13.28)"/><circle class="cls-2" cx="1208.61" cy="106.84" r="2.97"/><circle class="cls-3" cx="1240.49" cy="77.74" r="4.93"/><circle class="cls-3" cx="1234.29" cy="163.22" r="2.83"/><circle class="cls-10" cx="1303.45" cy="146.8" r="2.51" transform="translate(669.01 1294.85) rotate(-67.5)"/><circle class="cls-2" cx="1341.4" cy="96.53" r="2.49" transform="translate(13.71 310.77) rotate(-13.28)"/><circle class="cls-6" cx="1324.07" cy="81.75" r="3.56" transform="translate(4 213.15) rotate(-9.22)"/><circle class="cls-3" cx="1414.94" cy="74.73" r="3.47"/><circle class="cls-3" cx="1456.81" cy="29.75" r="3.56" transform="translate(871.83 1364.28) rotate(-67.5)"/><circle class="cls-6" cx="1464.75" cy="99.18" r="3.28" transform="translate(16.4 339.18) rotate(-13.28)"/><circle class="cls-2" cx="1472.69" cy="137.95" r="3.92"/><circle class="cls-2" cx="1420.23" cy="254.55" r="3.65" transform="translate(-20.49 333.11) rotate(-13.28)"/><circle class="cls-11" cx="1364.54" cy="310.69" r="2.74"/><circle class="cls-2" cx="137.87" cy="453.17" r="2.49"/><circle class="cls-3" cx="73.7" cy="720.12" r="3.47"/><circle class="cls-6" cx="123.51" cy="744.57" r="3.28"/><circle class="cls-2" cx="276.26" cy="767.92" r="3.28"/><circle class="cls-2" cx="131.45" cy="783.34" r="3.92" transform="translate(-175.48 50.75) rotate(-13.21)"/><circle class="cls-12" cx="226.01" cy="709.31" r="3.92"/><circle class="cls-3" cx="147.78" cy="811.63" r="3.01"/><circle class="cls-3" cx="212.41" cy="850.91" r="2.74"/><circle class="cls-3" cx="1309.8" cy="352.54" r="2.55"/><circle class="cls-2" cx="1188.28" cy="333.8" r="3.65"/><circle class="cls-3" cx="1165.77" cy="314.58" r="3.28" transform="translate(-41.09 276.26) rotate(-13.28)"/><circle class="cls-10" cx="1110.55" cy="260.57" r="3.16"/><circle class="cls-2" cx="1053.37" cy="236.24" r="3.41"/><circle class="cls-5" cx="1198.86" cy="740.65" r="3.41"/><circle class="cls-3" cx="1363.89" cy="658.81" r="3.19"/><circle class="cls-3" cx="1275.23" cy="582.38" r="2.87"/><circle class="cls-3" cx="1254.86" cy="573.99" r="2.42"/><circle class="cls-2" cx="1284.24" cy="546.46" r="2.78"/><circle class="cls-2" cx="1319.73" cy="538.65" r="3.06"/><circle class="cls-3" cx="1337.87" cy="589.7" r="3.26"/><circle class="cls-3" cx="1469.65" cy="543.64" r="3.53"/><circle class="cls-2" cx="1451.95" cy="394.56" r="3.41"/><circle class="cls-3" cx="1370.69" cy="820.09" r="3.41"/><circle class="cls-11" cx="1393.8" cy="387.08" r="3.53"/><circle class="cls-3" cx="35.31" cy="110.41" r="3.56"/><circle class="cls-6" cx="43.24" cy="179.84" r="3.28"/><circle class="cls-2" cx="195.99" cy="203.2" r="3.28" transform="translate(-41.27 50.2) rotate(-13.22)"/><circle class="cls-2" cx="51.18" cy="218.62" r="3.92" transform="translate(-49.13 17.74) rotate(-13.36)"/><circle class="cls-12" cx="145.74" cy="144.58" r="3.92" transform="translate(-29.18 37.12) rotate(-13.21)"/><circle class="cls-3" cx="67.51" cy="246.9" r="3.01"/><circle class="cls-3" cx="168.85" cy="364.44" r="3.01"/><circle class="cls-2" cx="51.18" cy="338.87" r="3.65" transform="translate(-52.77 12.3) rotate(-9.07)"/><circle class="cls-2" cx="185.85" cy="394.09" r="3.65"/><circle class="cls-3" cx="132.14" cy="286.18" r="2.74" transform="matrix(0.38, -0.92, 0.92, 0.38, -182.85, 298.01)"/><circle class="cls-2" cx="30.44" cy="475.23" r="3.41"/><circle class="cls-3" cx="1322.06" cy="487.65" r="3.28"/><circle class="cls-3" cx="1168.81" cy="409.47" r="3.65"/><circle class="cls-10" cx="1076" cy="425.52" r="4.01"/><path class="cls-13" d="M314.13,678.24A418.09,418.09,0,0,0,320,748.13c28.27,166.8,156,299.76,320,335.74q7.8,1.71,15.71,3.13a417.62,417.62,0,0,0,73.65,6.51c141.23,0,266-70.5,341-178.24a414.9,414.9,0,0,0,29.41-424.9q-6.42-12.66-13.7-24.83a415.14,415.14,0,0,0-42.37-58.66h0C967.6,318.75,855,263,729.4,263c-147.58,0-277.18,77-350.82,193A413.19,413.19,0,0,0,314.13,678.24Z"/><path class="cls-14" d="M320,748.13c28.27,166.8,156,299.76,320,335.74a11,11,0,0,0-2-3.38c-1.25,0-2.42.1-3.59.1-4.5,0-8.18-.75-8.77-4.68,7.18-4.5,20.13-2.25,20.87-10.84.51-5.93-4.67-9.25-8.93-13.51-2.42-2.42-4.51-5.14-5-8.82-2.43-1.41-6.27-1.35-8.52-3,2.92-6.34,6.18-8.55,9.68-8.55,9.94,0,21.79,17.85,31.31,19h.16c2.42,0,4.18-1.51,5.85-2.77s3.25-2.75,5.34-2.75a8.53,8.53,0,0,1,4.84,1.83c1.33,2.59.59,5.68,0,8.52,8,6.34,21.38,7.43,28.55,14.69-2,4.92-6.84,6-12.85,6-4.51,0-9.68-.59-15-.67-6.93-.08-8.93-7.26-13.85-8.43a29.94,29.94,0,0,0-6.68-.83c-9.68,0-19.54,4.83-18.79,13.19,2.26,4.59,12.95.83,13.11,7.68a3,3,0,0,1-.09.32,417.62,417.62,0,0,0,73.65,6.51c141.23,0,266-70.5,341-178.24.2-.51.42-1,.65-1.48a5.26,5.26,0,0,1-1.58.17c-2.34,0-3.34-1.42-3.85-3.18-1.33-16.28,6.34-23.54,16.2-28.55,2.59-14.45,19.29-22,22.37-36.31,2-9.1-2.41-17.7.75-28.55,1.67-.92,2.59-2.67,4.68-3.09a7.53,7.53,0,0,1,1.42-.09,15.11,15.11,0,0,1,2.83.34c.76.08,1.51.25,2.18.25a4.48,4.48,0,0,0,2-.5c3.74-10,5.46-22.06,12.6-28.69a418.45,418.45,0,0,0-1.18-219c-2.94-2.78-5.42-5.72-9.08-7-2.59-17.69-10.19-30.47-17.78-43.24,4.24-9.2-1.37-16.18-2.8-26q-6.42-12.66-13.7-24.83a25,25,0,0,1-5.13-4.8c-1.83-2.67-2.25-6-3.83-8.44-4.34-6.84-11.94-9.6-14.61-15.44-7.51-.92-11.61-5.44-14.7-10.79,9.83-7.36-5.34-12.27-4.11-19.2C967.6,318.75,855,263,729.4,263c-147.58,0-277.18,77-350.82,193-1.36,5-1,9.59,2.52,13.3a82.24,82.24,0,0,0,20.79-14.61c2.68-2.67,3.93-6.85,7-9.27,2.67-2.25,7.18-3.08,10-5.43,3.68-3.08,4.93-7.84,8.43-11.51,6.6-6.85,15.95-12.61,26-12.61.83,0,1.75.08,2.59.16,0,6.6-6.26,7.19-9.93,10.12-4.69,3.51-7.52,8.27-14,10.77-2.5.92-7.1.6-10.1,2.26-6.76,4-4.08,14.05-5.34,21.65-2,12.19-12.28,20.34-21.62,25.6-5.26,8.93,1.25,17.14,4.59,24-1.93,5.34-7.1,11.84-3.09,18.74h.42c4.76,0,6.09-4,10.43-4.05a9.4,9.4,0,0,1,4.35,1.3,9.54,9.54,0,0,0,4.25,1.51,4,4,0,0,0,3-1.5c.59-4.84-7.25-5-8.51-10-1.34-5.1.33-11.06,6.18-12.32,2.16,1.09,1.17,5.52,4.51,5.52h.08c3.84-1.66,6-5.36,8.51-8.61,1.26-12.36,1.34-25.9,6.93-33.33,3.09-3.94,7.51-5,10.85-7.71,3.68-2.92,7.44-9.62,12.36-10.81h.5a11.38,11.38,0,0,1,4.5,1.3,12.43,12.43,0,0,0,4.43,1.3,7.66,7.66,0,0,0,1.34-.16c5.5-6.59,8.77-12.93,13.86-19.36,3.33-4.1,7.43-6.57,10.85-10,3.84-3.84,6.1-10.14,11.52-11.56a43.23,43.23,0,0,1,9.35-.57h2.26c4.75,0,9.43-.52,13.18-4a27.64,27.64,0,0,1-.75-9.35c2-3.5,8-7.34,13-7.34,3.18,0,5.93,1.59,7,5.84-.16,3.76-3.58,4.09-3.08,8.43,1.16-.09,2.25-.09,3.42-.09a112.26,112.26,0,0,1,12,.93,95.29,95.29,0,0,0,11.86.92,34,34,0,0,0,5.09-.26c10,13.62,26.46,21,45.49,25.55-.16,3.75-.16,7.43,1.59,9.26,11,1,18.87,5.26,24.63,11.61-1.59,4-2.75,11.1,2.34,12.27C660,456,665.78,444.21,662,431.44c2-4.09,5.92-6.34,6.18-12.36,8.43-14.6,41-5.25,50.17-19.2-2-10.43-14.36-10.43-17.79-19.36,5.27-4,14.37-4.18,15.45-12.36-1.67-4.5-9.61-2.75-10.1-8.51a7.34,7.34,0,0,1,2.67-.42,22.74,22.74,0,0,1,4.09.5,24.72,24.72,0,0,0,4.42.5,11.15,11.15,0,0,0,3.51-.58c.17,3.75-3.34,3.92-2.25,8.51,6.1,1.42,10.69,4.17,17,5.43,3.92-1.76,5.67-5.68,11.43-5.68a14.88,14.88,0,0,1,2.51.25c2.58,2.42,1.75,8.52,4.59,10.77a12.59,12.59,0,0,0,3.34.5c6,0,10.26-4.68,15.19-6.6.84-5.51-5.26-4.09-3.92-10.11,3.84-5.17,15.78-2.19,21.62-5.36,4.5,6.77,9.26,13.34,17,16.93-5.93,6.18-2,18.4-10.11,23.16a42.35,42.35,0,0,0-19.2-4.78c-2.92-1.51-2.5-6.39-6.76-6.39h-.25c-2.17,9.29,2.51,17.67,3.93,25.68,16.86,6.17,37.65,8.88,40.9,28.75,2.43,2.08,8.27,1,9.18,4.67.68,4.18-1.92,5.25-1.5,9.27,1.93,4.67,8.6,4.67,6.93,13,4.09,2.09,6.93,5.51,11.61,7a36.13,36.13,0,0,0,6.09-14.7c3.51-.83,6.93-1.83,9.35-3.84a32.7,32.7,0,0,1-1.58-12.36,11.15,11.15,0,0,1,6.59-2.42c6.68,0,12.19,7.18,13.44,13.28,3.84-.25,7.84-.67,11.44-.67,8,0,13.77,2.09,10.26,12.94,2.34,4.93,7.19,4.17,11.52,7.77,4.09,3.33,6.6,11,11.61,12.34a10.16,10.16,0,0,0,2.25.26,29.08,29.08,0,0,0,4.52-.5,25,25,0,0,1,5-.59,6.76,6.76,0,0,1,1.35.09c2.25.24,4.92,2.58,7.67,3a15.15,15.15,0,0,0,2.76.25,19.2,19.2,0,0,0,3.17-.25c1.17-.08,2.18-.25,3.09-.25a6.82,6.82,0,0,1,1.84.25c3.92,1.67,4.51,6.52,7.68,10.1A316.65,316.65,0,0,1,998.44,511c4,1.42,7,5.09,10.86,6.1a3.36,3.36,0,0,0,1.33.17,17,17,0,0,0,2-.17,18.65,18.65,0,0,1,2.16-.16,6.77,6.77,0,0,1,1.42.16c3.76,1.34,5.18,4.68,9.27,4.68,3-.09,5.68-2.92,8.52-3.93,4.84-1.59,9.77-1.83,13.85-4.51,4.26.84,3.76,6.43,8.52,6.85,3.25-15.11-6-24.29-11.61-33.15,3.93-4.92,1.51-12,.76-18.52,1.92-3,5.09-4.77,9.26-5.43,1.25,2.17.5,6.18,2.34,7.76,5,1.76,13.19,2.17,14.69,8.52.92,4-2.67,8.85-3.08,13a40.75,40.75,0,0,0,3.58,21.54c3.26,6.34,8.35,10.85,14.94,11.68.43,2.84,2.1,4.59,1.51,8.52-3.76,1.66-8.19,2.51-12.36,3.84.34,6.18-3.92,7.84-6.09,11.52,2.51,5.18,5.43,9.93,11.52,11.61,3-1.59,3.5-5.77,6.18-7.69,6.93,2.51,20.62,4.18,14.61,14.7a5.59,5.59,0,0,1-2.75.66,10.73,10.73,0,0,1-3.18-.58,12.8,12.8,0,0,0-3-.58,3,3,0,0,0-1.83.5c-4.26,1.16-2.09,8.6-6.18,9.93-6.17,2.25-10.85-.25-15.36,3.09-6.68,5-6,24.29-2.34,30.13,4.43,7.27,12.6,4.85,15.37,11.61-2.51,6.68-8.36,19.7-1.51,26.21,4.51-3.92,5.25-11.68,8.52-17a31.2,31.2,0,0,1,10,3.1c1.33,6.67,3.83,12.17,8.42,15.52,6.6-6.51,1.34-15.86,1.59-23.12,3.93.41,6.85,1.83,10,3,4,8.44,7.34,22.21,3.92,31.64a24.28,24.28,0,0,0-11.43-3.34c-3.68,0-7,1.33-8.69,4.93,0,4.59,4.34,5,4.59,9.26-2.25,3.92-2.67,9.61-7.67,10.86-2-15.79-14.53-21-20.13-33.23-4.5,5.67,1.42,10.43,2.35,15.36-2.09,4.93-5.68,8.18-12.28,8.51,1.08,14.28-1.5,32.64-14.52,32.64a18.13,18.13,0,0,1-5.6-.92c0-10.18-15.36-14.44-16.94-23.2-.93-5,3.17-10.69,5.42-16.2a19.27,19.27,0,0,0,2.17.17,12.11,12.11,0,0,0,9.35-20.2c-4.34.42-8.09.75-11.52.75a33.21,33.21,0,0,1-14.69-3.09c-3.5,1.08-3.26,5.93-6.26,7.68-3-1.75-6.1-3.34-10.77-3.34a19.44,19.44,0,0,0-3,.25c-3.18-5.09-8-8.43-7-17.78A7.71,7.71,0,0,0,993.6,630c-3.17,0-5.92,2.25-9.77,2.84-3.25-2.26-.08-8.18-1.5-10.77-4.26-4.09-15.1-1.34-19.36-5.43,3-6.92,4.26-19.45-5.76-19.45a7.31,7.31,0,0,0-1.92.17c-2.51-3.51-4.76-7.1-6.93-10.86-.09-2.58,4-3.33,1.5-6.17a9.85,9.85,0,0,0-1.59-.09c-2.83,0-5.51,1.09-8.35,2.17a28.36,28.36,0,0,1-9.59,2.09,16,16,0,0,1-2.84-.25c-2.17-3.67-6.18-5.09-10.94-5.09a33.71,33.71,0,0,0-8.43,1.17c1.75,12.69-3.84,23.29-2.25,33.23.41,2.58,3.08,5.51,3.84,8.51,2.84,10.68,6.84,16.7,8.5,26.22.76,4-1.16,7.84,2.35,11.51,1.92-1.75,3.42-2.42,4.76-2.42,2.84,0,5,2.84,9.09,3.17a7.17,7.17,0,0,0,1.34.09c3.51,0,7.35-1.17,11.44-2.42s8.51-2.59,13.1-2.59a17.32,17.32,0,0,1,4.17.42c2.77,3.67,5.6,5.92,10.61,5.92a21.61,21.61,0,0,0,4.92-.59c4.18,2.93,4.68,10.94,2.34,16.2,6.76,12.78,9.86,29.3,24.63,34,2.08,8.26,9.52,22.7-3.09,24.71-5.18-2.59-2.17-9.6-.75-13.94a21.85,21.85,0,0,0-9.61-2.59,16.21,16.21,0,0,0-7.34,1.83c-3.67,1.85-4.17,6.94-7.77,7.77a8.53,8.53,0,0,1-1.32.17,8.39,8.39,0,0,1-3.77-1.17,9.21,9.21,0,0,0-4-1.17,5.93,5.93,0,0,0-2.5.58c4,6.43,2.5,14-3.84,14-8.6,0-5.93-9.69-2.35-15.45a5.85,5.85,0,0,0-5.09-2.5c-2,0-4.26.58-7.17.92-2.26-4.76-8.27-8.35-11.61-13.11-2.08-2.92-5.59-10.11-5.42-13.11.17-2.67,3.75-3.68,4.59-7.76.58-2.09-.5-4.84,0-6.1,1.5-3.51,7-5.17,7-9.26-8.26-1.59-10.85-8.76-20-9.35-3.6,2.75-3.6,8.85-7,11.6-4.1-4.67-11.36-11.68-19.29-11.68-.5,0-1,.08-1.5.08-3.93.5-5.1,4.76-9.35,4.76-.26,0-.5-.08-.76-.08-3.08-1.26-2.75-5.92-3.84-9.27-4.17-4.75-9.51-4.91-9.93-10.75-.75-7.76,6.85-7.41,6.85-13.17,0-4-8.27-12.15-11.52-13a11.72,11.72,0,0,0-2.93-.34c-5.84,0-11.85,3.48-15.69,4.43h-.33a17.28,17.28,0,0,1-5.68-1.33,15.85,15.85,0,0,0-5.43-1.43,2.61,2.61,0,0,0-.83.09c-3.76.5-7.76,5.42-11.6,5.42a2.43,2.43,0,0,1-.76-.08c-3.92-.67-2-3.34-5.42-7.68-3.26-4.26-8.43-7.18-9.27-12.36a21.28,21.28,0,0,0-6-1,24.89,24.89,0,0,0-3.26.26c-2,2-1.25,6.92-3.83,8.51-5.52-1.42-5.43-8.51-6.94-13.94-5.42-5.34-8.67-12.85-11.6-20.79-7.26-1.84-14.52-1.93-13.94-9.35.5-4.93,4.84-3.67,7-8.43-1.58-5.09-4.58-8.85-7.76-12.36-7.18,5.35.83,20.88-6.84,27.8a5.63,5.63,0,0,1-1.18.09c-.41,0-.83-.08-1.16-.08h-1.34a5.4,5.4,0,0,0-3.34.75c-8.6,8.76,4.84,12.69,3.92,20-.66,5.09-8.17,5.26-11.6,7.77-5.76,4.17-9.1,15.52-16.2,17.78A57.14,57.14,0,0,0,706.35,625a20.91,20.91,0,0,0-3.43.26c-9.18,15.18,3.76,33.74,10,45.51-11.51,9.77,11.77,20.07-.83,30.92a11.63,11.63,0,0,0-4.51-.84c-2.93,0-5.6,1.15-8.18,2.16s-5.1,2.3-7.6,2.3h-.5c-3.67-1.19-6.76-3.57-10.69-3.57h-.16c-4.68,0-6.27,2.19-11.53,3a25.73,25.73,0,0,0-10.68-2.32c-3.67,0-7.26.84-9.43,3a19.84,19.84,0,0,0,.75,7,6.47,6.47,0,0,0,3.09.67,21.13,21.13,0,0,0,3.17-.34,25.2,25.2,0,0,1,3.25-.33,4.2,4.2,0,0,1,3.67,1.51c1,11.77-9.09,12.52-18.44,13.86-3.17,5.1-8.51,8-10.85,14,5.68,6,13.19,10.36,19.28,16.21a9.42,9.42,0,0,1,5.84-2.08c5.18,0,9.86,4.72,14.29,9.07,6.58,6.51,12.59,12,12.26,22.45h.09c5.93,0,5.09-6.77,10.77-7,4.75,4.76,11.09,8.09,13,13,1.42,3.5,3.17,12.19,2.34,17.69-.92,7.27-8.44,12.62-6.93,20.13,1,4.76,7.35,7.5,12.35,13.1,1.92,2.17,2.6,5,3.84,6.18,5.26,4.51,12.35,4.26,13.87,9.27.83,2.42-.85,6.34-.76,8.51.49,6.6,4.76,13.45.76,20-8,3.25-14,8.6-19.21,14.69,2.58,7.51,1.83,14.52-4.68,16.2a8.68,8.68,0,0,1-2.09.24,35.06,35.06,0,0,1-6.09-.83,35.42,35.42,0,0,0-6.51-.84,11.78,11.78,0,0,0-3.84.57c-3.42,1.42-2.34,4-6.18,5.42a8,8,0,0,0-1.33-.11c-5.1,0-7.68,3.94-12.52,3.94H671a23.71,23.71,0,0,1-8.68-2c-2.92-1.09-5.85-2.13-8.85-2.13a12.28,12.28,0,0,0-3,.34c-.09,8,7.76,8.19,6.92,17,8.35,1.59,12.36,7.68,10.86,19.27-3.84,2.26-5.1,6.8-10.1,7.75h-.67a11,11,0,0,1-3.67-.81,9.61,9.61,0,0,0-3.26-1c-1,0-1.75.42-2.42,1.83-1.59,5.68,12.36,2.5,12.36,9.18a6.3,6.3,0,0,1-3.26.82,12,12,0,0,1-3.84-.79,15.38,15.38,0,0,0-4.43-.91h-.83c-4.17.72-7,4.33-10.77,4.66a18,18,0,0,1-2.17.24c-10.35,0-17.11-8.77-22.54-16.28,8.77-.33,7.42-15.61.34-15.61a5,5,0,0,0-1.09.08c-7.18,1.51-1.84,11.11-2.34,15.53-.34,2.59-3.34,5.09-3.09,7.6.34,3.75,5.51,5.34,4.67,10.1-4.83,3.67-14.85,2.09-20.11,5.42-2.34-2.32-5.51-3-8.94-3-1.66,0-3.41.17-5.16.34-.34,0-.59.08-.93.08a46.85,46.85,0,0,1-5.84.5,12.37,12.37,0,0,1-5.35-1c-5.26-2.42-3.09-7.93-8.43-10.11a37.93,37.93,0,0,1-4.25.26c-13.36,0-19.79-6.93-22.8-17.19-5.09-5.69-14.44-7.19-17-15.45.66-12-1.09-24.21,5.42-34.73A13.57,13.57,0,0,0,507,902.36a10.52,10.52,0,0,0-3.93.67c-2.92,4,3.84,4,2.25,9.27-1.42,1.09-1.91,3.2-3.84,3.87-2.84,0-4-1.7-6.84-1.7a14.12,14.12,0,0,0-1.67.25c-3,4.43,1.08,12.89-3.84,16.46h-.75c-5.43,0-6.93,3.66-10.1,6-4.09,0-6.59-1.85-9.93-2.51-3.93-9-7.93-17.86-15.53-23.12a1,1,0,0,0-.5-.09c-2.34,0-3.34,1.5-5.6,1.59-26.13-9.1-40.57-30-59.44-46.34-1.42-12.69-14.18-11.77-18.61-20.78-6.93-14.78-5.51-28.72-14.61-43.32-2.75-4.43-8.51-6.94-10.85-11.53-2.17-4.34-2.25-9.6-5.35-13.94-2.75-3.67-6.92-5.67-9.26-9.18C324.56,761.9,323.46,754.26,320,748.13ZM710.44,763c-5.17,0-12.44-6.67-9.86-12.1,5.84.41,10.86,1.5,14.7,3.92C715.78,760.85,713.44,763,710.44,763Zm12.19-7.26a11.82,11.82,0,0,1-4.26-.92c.91-5.34,2.59-7.09,4.17-7.09s3.18,2,3.59,4S725.63,755.76,722.63,755.76ZM600.25,355.05c-2.18,6.35-6.27,10.6-10.78,14.7-5.25-2.75-7.6-8.35-13.94-10.11-5.59.92-7.17,5.1-11.6,7-6.51,2.76-14.28,1.75-21.54,3.84-5.51,1.59-12.27,7.34-16.94,11.52-5,4.34-7.6,11.11-14,13.2a11.28,11.28,0,0,1-3.5.42c-.5,0-1.09-.07-1.67-.07h-1.67a14.74,14.74,0,0,0-3.93.41c-3.25.91-4.83,4.9-8.51,6.16a17.5,17.5,0,0,1-5.68.92c-3.34,0-6.51-.91-10.51-1.66-3.93-6.1-.26-10,6.09-14.68,3.5-2.5,6.67-5.81,10.1-7.74,12.36-6.59,25.79-6.19,32.39-15.29,5.34-2.17,11.44,0,17.78-2.22,7.94-2.92,10.19-11.37,22.37-11.37h1.51c2.25,0,4.59,1.94,7.76,2.1a9.54,9.54,0,0,0,1.42-.15,53.06,53.06,0,0,0,6-.5,67.48,67.48,0,0,1,7.18-.59C592.81,351,596.91,351.8,600.25,355.05Zm118.87-29.38a16,16,0,0,0-4.59-.75c-5.51,0-9.69,3.33-13.78,6.59s-8.1,6.68-13.27,6.68a10.66,10.66,0,0,1-1.59-.08c-3.26-.42-6-4.26-9.26-4.67a20.44,20.44,0,0,0-2.43-.17c-4.08,0-8.26,1.24-12.51,2.5s-8.44,2.42-12.86,2.42a22.14,22.14,0,0,1-6.1-.83c-1.49-5.93.5-11.19,6.1-12.44.34,0,.58-.09.92-.09a9,9,0,0,1,2.92.59,16.05,16.05,0,0,0,2.84.42,5.16,5.16,0,0,0,1.08-.17c4.93-1.08,8.27-7.18,13.94-9.94a63.39,63.39,0,0,1,28.3-7,54.75,54.75,0,0,1,20.29,3.93C720.28,315.49,720.28,322.91,719.12,325.67ZM1019.32,440c1.49,6.51,5.84,11.44,5.42,17.79-.59,9.51-14.77,21.28-20.87,22.37a19.8,19.8,0,0,1-2.17.16c-7.43,0-15.7-5.84-20.2-7.92-9.52-4.51-19.79-7.52-23.13-14.61-2.17-4.51-1.16-8.1-3.08-10.86-6.68-9.43-25.8-15.61-19.37-31.63,1.17-2.6,4.59-3.09,6.26-5.44,3.59-5.33,3.92-12.76,8.52-16.19,4.42-.17,6.92-2.16,9.92-3.84,3.84,2.59,9.69,6.34,14.45,6.34,3.33,0,6.1-1.83,7.26-7.09,7.18,2.34,13.1,5.84,15.36,13.11,8.18,2.67,13.11,10.35,19.29,17.78C1023.49,427.6,1029.33,433.7,1019.32,440ZM1101.87,517c-.57,2-1.83,3.77-3.84,3.77h-.24c-3,0-2.26-3.6-3.59-5.26a14.68,14.68,0,0,1-3.43.66,8.52,8.52,0,0,1-7.42-4.35,12,12,0,0,1-1.1-2.59c-1-3.5-.08-7,3.26-7a9.57,9.57,0,0,1,4.85,1.75c2.5,1.68,3.33,7.18,4.59,8.52,1.59,1.59,5.76,2.16,6.76,4.26A.4.4,0,0,1,1101.87,517Zm17,151a11.47,11.47,0,0,1,4.59,1.17c1,3.84-1.17,5.34-3.68,5.34a6.1,6.1,0,0,1-4-1.5C1115.15,669.19,1116.82,668,1118.91,668Zm-105.53,10.59h.59c6.94,0,5.84,9.37,5.35,17.63a4.23,4.23,0,0,0,1.92.42,8.38,8.38,0,0,0,3.67-1.41,9,9,0,0,1,4.59-1.41h.58c2.67,4.29,6.68,7.37,10.86,10.12.33,6.26-3.43,8.51-8.52,9.35-4.09-4.09-6.84-10.81-13.1-13.91a3.9,3.9,0,0,0-1.42-.08h-.76a3.78,3.78,0,0,1-2.41-.59C1010.63,695.47,1003,678.61,1013.38,678.61Zm-437,355.55c1.41-3.5,3.68-10.09,7.76-10.09a6.06,6.06,0,0,1,3.84,1.66c.75,5.94-3.68,6.68-4.68,10.78,8,4.67,18.54,2.24,25.46,7.76,3.35,2.58,4.26,6.76,7.77,9.26a9.45,9.45,0,0,1,7.93-4.08,9.27,9.27,0,0,1,5.93,2c2.09,1.68,3.26,4.52,2.26,8.19a7.89,7.89,0,0,1-3,.58c-3.84,0-7.6-2.5-10.86-3.68a21.68,21.68,0,0,1-10.68,2.68c-7.77,0-15.28-3.67-21-7.27C584.05,1045.52,582.8,1037.17,576.37,1034.16Zm-.84-40.81a12.83,12.83,0,0,1,2-.35,19,19,0,0,1,2.17-.07c4.92,0,10.6,1.41,12.77,4.24a16.82,16.82,0,0,0,2.17.09,14,14,0,0,0,6.76-1.93,14,14,0,0,1,7-2h.33c-1.24,7.14,3.76,10.8,8.53,14.47.33,4-.76,6.48-2.35,8.38h-10c-3.09,0-6.09.29-8.51-.39-3.26.51-1.84,5.39-4.68,7.3h-.17a2.61,2.61,0,0,1-2.42-1.55c-.83-1.76-.42-4.89-.42-7.39A66.49,66.49,0,0,1,575.53,993.35ZM373.34,865.72h.42c5.26,0,7.68,3,11.19,4.74-.25,8.93,6.59,14.78,3.92,23.35h-.08C377.6,893.81,371.51,879.29,373.34,865.72Z"/><path class="cls-15" d="M1453.76,1035.49v30.15h-11.53V1050H1428v9.16h-6.8v12.42H1410v-9.75h-16.26v-8.28h-11.23l0-10.11-6.53,0V1037h-8.28v6.42h-4.58l.1,10.13h-10.59v8.28h-2.37v8.43l-21.8-.18.09-49H1321V997.06h-24.83v15.07h-12.78l-.11,56.17h-11.65v-28.08h-11.82V976.37h-4.44V960.11h-13.3v16.26h-10.64v21.28h-23.55l-8.71-2.5-12.38-3.81v6.31h-17.44V919l-23.29-24.24h-4.2V839.5h-13l0-13.21-45.8,0v-21.9l-5.62,0V788.13l-14.15.08-.06,16.14-7.89,0-.09,22h-23.33v203.84h-25.72V688.24l-34.67-9L970,638.35a12.34,12.34,0,0,0-.72-21.86l-2.69-81.27L965,452.6l-3.28,82.61-3.12,81.15a12.35,12.35,0,0,0-.85,22L956.6,679l-37.88,10.13v349.36h-33.4V799.6H883v-4.44h-3.25v4.44H857.54V777.38l-3,0V799.6h-5.91v-3h-7.39v3H816.15v-5H813.2v-4.43h-4.44v9.46h-4.43v231.27l-2.12-4L786.66,997l-8.35-.08V744H773v-2.37h-4.13V744h-8.28v-2.37H752V744h-8.28V728.88l-11.53,0V744H707.37v268.51l-9.48.18-1.75,0V994.18l-.27-227.1h-7.42v-2.36h-5.61v2.36h-2.66v-6.5h-5.92v6.5h-8.57v-2.36h-8v2.36H651.5v-2.36h-5.61v2.36h-7.1v-8.87H631.7v8.87h-5.32V1013H615.73V623.42H605.39V602.73h-8.28V586.17h-14l-5.81-36.65-5.82,36.65h-14v16.56h-9.75v20.69h-8.58V925.23h-13.3V746.09h-5.32v-6.2H502.82V724.52H485.67v15.37H467.93v6.2h-4.72V901h-7.1V856.35H427.73v36.36H415.32V807H405.27V783.93h-9.46v-8.57H377.48v8.57H363.29L337.87,813.6v78.52h-18.1l-7-8V752.34l-8.57-.14v-5.51H287V736.64h-6.8v10.05H259.41l0-26.7-3.78-.09-.1,26.79H243v4.53l-8.27-.14v150.5H224.66v44.93h-6.51v111.15H197.46v-50.55H188V969.86H164.06V908.08h-8.28V901l-17.44-20.27v-14H127.9l.09-18.88-6.57,0,0-31.1h-4.78l0,31.1-6.68-.06V866.7H99.32v14.47L84.84,898.06v9.73h-10v215.49H71.24v11.23H67.4v-114.3l-7.54-.09-9.75-23.65H44.93V985.6l-14.59-.06-.11,10.93H23.55l-9.65,23.35H6.8V1128.6H2.07v-110H0v214.9H1478v-198Z"/><polygon class="cls-16" points="1419.77 1142.49 1419.77 1161.71 1390.8 1161.71 1390.8 1144.56 1371.88 1144.56 1371.88 1139.83 1362.42 1139.83 1362.42 1121.51 1341.43 1121.51 1341.43 1132.74 1330.79 1132.74 1330.79 1151.07 1318.97 1151.07 1318.97 1125.35 1308.03 1125.35 1308.03 1079.24 1219.65 1079.24 1219.65 995.58 1209.13 995.58 1200.47 980.8 1196.29 980.8 1196.29 964.54 1164.96 964.54 1164.96 980.8 1160.13 980.8 1152.74 995.58 1143.68 995.58 1143.68 1041.69 1122.98 1041.69 1122.98 1107.91 1096.09 1107.91 1096.09 1025.14 1091.06 1025.14 1091.06 990.26 1081.01 990.26 1081.01 878.82 1076.74 878.82 1067.16 862.56 1026.82 862.56 1018.65 878.82 1013.61 878.82 1013.61 1000.01 991.74 1000.01 991.74 902.47 949.91 902.47 923.45 933.84 923.45 1038.15 915.47 1038.15 915.47 956.86 906.9 956.86 906.9 950.35 888.57 950.35 888.57 956.86 881.48 956.86 881.48 874.38 869.06 874.38 869.06 870.25 856.94 870.25 856.94 851.33 838.03 851.33 838.03 870.25 827.38 870.25 827.38 874.38 814.97 874.38 814.97 892.12 804.92 892.12 804.92 783.04 796.64 783.04 796.64 775.95 762.94 775.95 762.94 783.04 735.75 783.04 735.75 775.95 702.05 775.95 702.05 783.04 695.55 783.04 695.55 964.54 684.31 964.54 684.31 840.39 606.87 840.39 606.87 1049.68 584.11 1049.68 584.11 914.59 567.55 914.59 567.55 905.42 529.12 905.42 529.12 914.59 512.87 914.59 512.87 1071.25 483.31 1071.25 483.31 830.93 455.52 830.93 455.52 712.1 435.42 712.1 435.42 830.93 407.93 830.93 407.93 1046.72 386.05 1046.72 386.05 1021.89 350.58 1021.89 350.58 984.64 265.15 984.64 265.15 1061.8 220.81 1061.8 220.81 1039.92 205.15 1039.92 205.15 1028.39 184.16 1028.39 184.16 1039.92 171.45 1039.92 171.45 1090.76 132.43 1090.76 132.43 1117.07 104.05 1117.07 104.05 1095.2 80.11 1095.2 80.11 1067.71 49.37 1067.71 49.37 1090.76 0 1090.76 0 1478 49.37 1478 55.34 1478 79.28 1478 80.17 1478 98.35 1478 104.11 1478 132.49 1478 138.25 1478 171.5 1478 172.39 1478 206.68 1478 220.72 1478 265.06 1478 273.33 1478 347.52 1478 350.63 1478 378.56 1478 386.1 1478 407.82 1478 419.8 1478 474.33 1478 483.2 1478 512.9 1478 530.64 1478 561.23 1478 584.11 1478 606.87 1478 638.68 1478 659.95 1478 684.31 1478 695.55 1478 731.15 1478 794.01 1478 804.92 1478 815 1478 832.58 1478 879.11 1478 881.35 1478 892.12 1478 915.47 1478 960.4 1478 960.4 1477.7 989.67 1477.7 989.67 1478 1013.61 1478 1025.41 1478 1036.24 1478 1081.01 1478 1096.09 1478 1096.09 1477.7 1122.98 1477.7 1122.98 1478 1143.54 1478 1182.7 1478 1215.21 1478 1219.64 1478 1308.03 1478 1330.79 1478 1335.08 1478 1341.58 1478 1350.94 1478 1357.84 1478 1359.91 1478 1362.42 1478 1371.78 1478 1375.72 1478 1390.79 1478 1419.78 1478 1426.86 1478 1478 1478 1478 1142.49 1419.77 1142.49"/><rect class="cls-16" x="620.17" y="829.75" width="47.44" height="18.77"/><rect class="cls-16" x="283.48" y="964.15" width="8.67" height="27.79"/><rect class="cls-16" x="315.41" y="976.56" width="8.67" height="15.37"/><rect class="cls-16" x="973.61" y="889.54" width="10.84" height="22.98"/><rect class="cls-16" x="1176.78" y="952.2" width="6.5" height="22.98"/><rect class="cls-16" x="986.02" y="980.6" width="32.35" height="30.35"/><rect class="cls-17" x="1.38" y="1234.33" width="1476.62" height="223.18"/><rect class="cls-13" x="9.9" y="1105.4" width="12.71" height="12.71"/><rect class="cls-13" x="144.77" y="1096.53" width="5.32" height="5.32"/><rect class="cls-13" x="161.62" y="1096.53" width="5.32" height="5.32"/><rect class="cls-13" x="136.35" y="1104.71" width="5.32" height="5.32"/><rect class="cls-13" x="153.19" y="1104.71" width="5.32" height="5.32"/><rect class="cls-13" x="161.62" y="1104.71" width="5.32" height="5.32"/><rect class="cls-13" x="136.35" y="1112.88" width="5.32" height="5.32"/><rect class="cls-13" x="144.77" y="1112.88" width="5.32" height="5.32"/><rect class="cls-13" x="136.35" y="1121.06" width="5.32" height="5.32"/><rect class="cls-13" x="161.62" y="1121.06" width="5.32" height="5.32"/><rect class="cls-13" x="153.19" y="1129.24" width="5.32" height="5.32"/><rect class="cls-13" x="161.62" y="1129.24" width="5.32" height="5.32"/><rect class="cls-13" x="136.35" y="1137.42" width="5.32" height="5.32"/><rect class="cls-13" x="144.77" y="1137.42" width="5.32" height="5.32"/><rect class="cls-13" x="153.19" y="1137.42" width="5.32" height="5.32"/><rect class="cls-13" x="144.77" y="1145.6" width="5.32" height="5.32"/><rect class="cls-13" x="161.62" y="1145.6" width="5.32" height="5.32"/><rect class="cls-13" x="136.35" y="1153.78" width="5.32" height="5.32"/><rect class="cls-13" x="144.77" y="1153.78" width="5.32" height="5.32"/><rect class="cls-13" x="153.19" y="1153.78" width="5.32" height="5.32"/><rect class="cls-13" x="136.35" y="1161.95" width="5.32" height="5.32"/><rect class="cls-13" x="144.77" y="1170.13" width="5.32" height="5.32"/><rect class="cls-13" x="153.19" y="1170.13" width="5.32" height="5.32"/><rect class="cls-13" x="1345.72" y="1144.37" width="5.32" height="5.32"/><rect class="cls-13" x="1362.57" y="1144.37" width="5.32" height="5.32"/><rect class="cls-13" x="1337.29" y="1152.54" width="5.32" height="5.32"/><rect class="cls-13" x="1354.14" y="1152.54" width="5.32" height="5.32"/><rect class="cls-13" x="1362.57" y="1152.54" width="5.32" height="5.32"/><rect class="cls-13" x="1337.29" y="1160.72" width="5.32" height="5.32"/><rect class="cls-13" x="1345.72" y="1160.72" width="5.32" height="5.32"/><rect class="cls-13" x="1337.29" y="1168.9" width="5.32" height="5.32"/><rect class="cls-13" x="1362.57" y="1168.9" width="5.32" height="5.32"/><rect class="cls-13" x="1354.14" y="1177.08" width="5.32" height="5.32"/><rect class="cls-13" x="1362.57" y="1177.08" width="5.32" height="5.32"/><rect class="cls-13" x="1337.29" y="1185.26" width="5.32" height="5.32"/><rect class="cls-13" x="1345.72" y="1185.26" width="5.32" height="5.32"/><rect class="cls-13" x="1354.14" y="1185.26" width="5.32" height="5.32"/><rect class="cls-13" x="1345.72" y="1193.44" width="5.32" height="5.32"/><rect class="cls-13" x="1362.57" y="1193.44" width="5.32" height="5.32"/><rect class="cls-13" x="1337.29" y="1201.61" width="5.32" height="5.32"/><rect class="cls-13" x="1345.72" y="1201.61" width="5.32" height="5.32"/><rect class="cls-13" x="1354.14" y="1201.61" width="5.32" height="5.32"/><rect class="cls-13" x="1335.67" y="1137.67" width="5.32" height="5.32"/><rect class="cls-13" x="1345.72" y="1128.55" width="5.32" height="5.32"/><rect class="cls-13" x="1354.14" y="1128.55" width="5.32" height="5.32"/><rect class="cls-13" x="552.14" y="928.51" width="9.69" height="9.69" transform="translate(1113.98 1866.7) rotate(180)"/><rect class="cls-13" x="521.46" y="928.51" width="9.69" height="9.69" transform="translate(1052.6 1866.7) rotate(180)"/><rect class="cls-13" x="567.49" y="943.4" width="9.69" height="9.69" transform="translate(1144.66 1896.49) rotate(180)"/><rect class="cls-13" x="536.8" y="943.4" width="9.69" height="9.69" transform="translate(1083.29 1896.49) rotate(180)"/><rect class="cls-13" x="521.46" y="943.4" width="9.69" height="9.69" transform="translate(1052.6 1896.49) rotate(180)"/><rect class="cls-13" x="567.49" y="958.29" width="9.69" height="9.69" transform="translate(1144.66 1926.28) rotate(180)"/><rect class="cls-13" x="552.14" y="958.29" width="9.69" height="9.69" transform="translate(1113.98 1926.28) rotate(180)"/><rect class="cls-13" x="567.49" y="973.19" width="9.69" height="9.69" transform="translate(1144.66 1956.07) rotate(180)"/><rect class="cls-13" x="521.46" y="973.19" width="9.69" height="9.69" transform="translate(1052.6 1956.07) rotate(180)"/><rect class="cls-13" x="536.8" y="988.08" width="9.69" height="9.69" transform="translate(1083.29 1985.86) rotate(180)"/><rect class="cls-13" x="521.46" y="988.08" width="9.69" height="9.69" transform="translate(1052.6 1985.86) rotate(180)"/><rect class="cls-13" x="567.49" y="1002.98" width="9.69" height="9.69" transform="translate(1144.66 2015.65) rotate(180)"/><rect class="cls-13" x="552.14" y="1002.98" width="9.69" height="9.69" transform="translate(1113.98 2015.65) rotate(180)"/><rect class="cls-13" x="536.8" y="1002.98" width="9.69" height="9.69" transform="translate(1083.29 2015.65) rotate(180)"/><rect class="cls-13" x="552.14" y="1017.87" width="9.69" height="9.69" transform="translate(1113.98 2045.44) rotate(180)"/><rect class="cls-13" x="521.46" y="1017.87" width="9.69" height="9.69" transform="translate(1052.6 2045.44) rotate(180)"/><rect class="cls-13" x="567.49" y="1032.77" width="9.69" height="9.69" transform="translate(1144.66 2075.23) rotate(180)"/><rect class="cls-13" x="552.14" y="1032.77" width="9.69" height="9.69" transform="translate(1113.98 2075.23) rotate(180)"/><rect class="cls-13" x="536.8" y="1032.77" width="9.69" height="9.69" transform="translate(1083.29 2075.23) rotate(180)"/><rect class="cls-13" x="567.49" y="1047.66" width="9.69" height="9.69" transform="translate(1144.66 2105.02) rotate(180)"/><rect class="cls-13" x="552.14" y="1062.56" width="9.69" height="9.69" transform="translate(1113.98 2134.81) rotate(180)"/><rect class="cls-13" x="536.8" y="1062.56" width="9.69" height="9.69" transform="translate(1083.29 2134.81) rotate(180)"/><rect class="cls-13" x="1288.4" y="1088.07" width="9.69" height="9.69" transform="translate(2586.5 2185.84) rotate(180)"/><rect class="cls-13" x="1273.06" y="1088.07" width="9.69" height="9.69" transform="translate(2555.81 2185.84) rotate(180)"/><rect class="cls-13" x="1257.72" y="1088.07" width="9.69" height="9.69" transform="translate(2525.13 2185.84) rotate(180)"/><rect class="cls-13" x="1288.4" y="1102.97" width="9.69" height="9.69" transform="translate(2586.5 2215.63) rotate(180)"/><rect class="cls-13" x="1444.95" y="1149.41" width="9.69" height="9.69"/><rect class="cls-13" x="1460.3" y="1149.41" width="9.69" height="9.69"/><rect class="cls-13" x="1429.61" y="1164.31" width="9.69" height="9.69"/><rect class="cls-13" x="1273.06" y="1117.86" width="9.69" height="9.69" transform="translate(2555.81 2245.42) rotate(180)"/><rect class="cls-13" x="1257.72" y="1117.86" width="9.69" height="9.69" transform="translate(2525.13 2245.42) rotate(180)"/><rect class="cls-13" x="32.22" y="1105.4" width="12.71" height="12.71"/><rect class="cls-13" x="54.54" y="1105.4" width="12.71" height="12.71"/><rect class="cls-13" x="76.86" y="1105.4" width="12.71" height="12.71"/><rect class="cls-13" x="274.24" y="998.39" width="12.71" height="12.71"/><rect class="cls-13" x="296.56" y="998.39" width="12.71" height="12.71"/><rect class="cls-13" x="318.88" y="998.39" width="12.71" height="12.71"/><rect class="cls-13" x="274.24" y="1032.28" width="12.71" height="12.71"/><rect class="cls-13" x="296.56" y="1032.28" width="12.71" height="12.71"/><rect class="cls-13" x="318.88" y="1032.28" width="12.71" height="12.71"/><rect class="cls-13" x="274.24" y="1066.18" width="12.71" height="12.71"/><rect class="cls-13" x="296.56" y="1066.18" width="12.71" height="12.71"/><rect class="cls-13" x="318.88" y="1066.18" width="12.71" height="12.71"/><rect class="cls-13" x="274.24" y="1100.08" width="12.71" height="12.71"/><rect class="cls-13" x="296.56" y="1100.08" width="12.71" height="12.71"/><rect class="cls-13" x="318.88" y="1100.08" width="12.71" height="12.71"/><rect class="cls-13" x="274.24" y="1133.97" width="12.71" height="12.71"/><rect class="cls-13" x="296.56" y="1133.97" width="12.71" height="12.71"/><rect class="cls-13" x="318.88" y="1133.97" width="12.71" height="12.71"/><rect class="cls-13" x="274.24" y="1167.87" width="12.71" height="12.71"/><rect class="cls-13" x="296.56" y="1167.87" width="12.71" height="12.71"/><rect class="cls-13" x="318.88" y="1167.87" width="12.71" height="12.71"/><rect class="cls-13" x="1018.37" y="889.54" width="12.71" height="12.71"/><rect class="cls-13" x="1040.69" y="889.54" width="12.71" height="12.71"/><rect class="cls-13" x="1063.01" y="889.54" width="12.71" height="12.71"/><rect class="cls-13" x="1040.69" y="923.44" width="12.71" height="12.71"/><rect class="cls-13" x="1063.01" y="923.44" width="12.71" height="12.71"/><rect class="cls-13" x="1018.37" y="957.33" width="12.71" height="12.71"/><rect class="cls-13" x="1040.69" y="957.33" width="12.71" height="12.71"/><rect class="cls-13" x="1026.06" y="991.23" width="12.71" height="12.71"/><rect class="cls-13" x="1063.01" y="991.23" width="12.71" height="12.71"/><rect class="cls-13" x="1022.81" y="1025.12" width="12.71" height="12.71"/><rect class="cls-13" x="1047.05" y="1025.12" width="12.71" height="12.71"/><rect class="cls-13" x="894.44" y="971.01" width="12.71" height="12.71"/><rect class="cls-13" x="894.44" y="1010.66" width="12.71" height="12.71"/><rect class="cls-13" x="894.44" y="1050.3" width="12.71" height="12.71"/><rect class="cls-13" x="894.44" y="1089.95" width="12.71" height="12.71"/><rect class="cls-13" x="894.44" y="1129.59" width="12.71" height="12.71"/><rect class="cls-13" x="1031.08" y="1059.02" width="12.71" height="12.71"/><rect class="cls-13" x="1063.01" y="1059.02" width="12.71" height="12.71"/><rect class="cls-13" x="710.4" y="797.25" width="12.71" height="12.71"/><rect class="cls-13" x="732.72" y="797.25" width="12.71" height="12.71"/><rect class="cls-13" x="755.04" y="797.25" width="12.71" height="12.71"/><rect class="cls-13" x="710.4" y="831.14" width="12.71" height="12.71"/><rect class="cls-13" x="755.04" y="831.14" width="12.71" height="12.71"/><rect class="cls-13" x="710.4" y="865.04" width="12.71" height="12.71"/><rect class="cls-13" x="732.72" y="865.04" width="12.71" height="12.71"/><rect class="cls-13" x="755.04" y="865.04" width="12.71" height="12.71"/><rect class="cls-13" x="710.4" y="898.93" width="12.71" height="12.71"/><rect class="cls-13" x="732.72" y="898.93" width="12.71" height="12.71"/><rect class="cls-13" x="755.04" y="898.93" width="12.71" height="12.71"/><rect class="cls-13" x="710.4" y="932.83" width="12.71" height="12.71"/><rect class="cls-13" x="732.72" y="932.83" width="12.71" height="12.71"/><rect class="cls-13" x="710.4" y="966.73" width="12.71" height="12.71"/><rect class="cls-13" x="755.04" y="966.73" width="12.71" height="12.71"/><rect class="cls-13" x="777.36" y="831.14" width="12.71" height="12.71"/><rect class="cls-13" x="777.36" y="865.04" width="12.71" height="12.71"/><rect class="cls-13" x="777.36" y="898.93" width="12.71" height="12.71"/><rect class="cls-13" x="777.36" y="932.83" width="12.71" height="12.71"/><rect class="cls-13" x="777.36" y="966.73" width="12.71" height="12.71"/><rect class="cls-13" x="416.11" y="841.93" width="20.49" height="20.49"/><rect class="cls-13" x="454.53" y="877.21" width="20.49" height="20.49"/><rect class="cls-13" x="821.83" y="901.69" width="9.95" height="9.95"/><rect class="cls-13" x="834.64" y="901.69" width="9.95" height="9.95"/><rect class="cls-13" x="847.45" y="901.69" width="9.95" height="9.95"/><rect class="cls-13" x="860.26" y="901.69" width="9.95" height="9.95"/><rect class="cls-13" x="821.83" y="914.31" width="9.95" height="9.95"/><rect class="cls-13" x="834.64" y="914.31" width="9.95" height="9.95"/><rect class="cls-13" x="847.45" y="914.31" width="9.95" height="9.95"/><rect class="cls-13" x="860.26" y="914.31" width="9.95" height="9.95"/><rect class="cls-13" x="821.83" y="926.92" width="9.95" height="9.95"/><rect class="cls-13" x="834.64" y="926.92" width="9.95" height="9.95"/><rect class="cls-13" x="847.45" y="926.92" width="9.95" height="9.95"/><rect class="cls-13" x="860.26" y="926.92" width="9.95" height="9.95"/><rect class="cls-13" x="821.83" y="939.53" width="9.95" height="9.95"/><rect class="cls-13" x="834.64" y="939.53" width="9.95" height="9.95"/><rect class="cls-13" x="847.45" y="939.53" width="9.95" height="9.95"/><rect class="cls-13" x="860.26" y="939.53" width="9.95" height="9.95"/><rect class="cls-13" x="821.83" y="952.14" width="9.95" height="9.95"/><rect class="cls-13" x="834.64" y="952.14" width="9.95" height="9.95"/><rect class="cls-13" x="847.45" y="952.14" width="9.95" height="9.95"/><rect class="cls-13" x="860.26" y="952.14" width="9.95" height="9.95"/><rect class="cls-13" x="821.83" y="964.75" width="9.95" height="9.95"/><rect class="cls-13" x="834.64" y="964.75" width="9.95" height="9.95"/><rect class="cls-13" x="847.45" y="964.75" width="9.95" height="9.95"/><rect class="cls-13" x="860.26" y="964.75" width="9.95" height="9.95"/><rect class="cls-13" x="821.83" y="977.37" width="9.95" height="9.95"/><rect class="cls-13" x="834.64" y="977.37" width="9.95" height="9.95"/><rect class="cls-13" x="847.45" y="977.37" width="9.95" height="9.95"/><rect class="cls-13" x="860.26" y="977.37" width="9.95" height="9.95"/><rect class="cls-13" x="821.83" y="989.98" width="9.95" height="9.95"/><rect class="cls-13" x="834.64" y="989.98" width="9.95" height="9.95"/><rect class="cls-13" x="847.45" y="989.98" width="9.95" height="9.95"/><rect class="cls-13" x="860.26" y="989.98" width="9.95" height="9.95"/><rect class="cls-13" x="821.83" y="1002.59" width="9.95" height="9.95"/><rect class="cls-13" x="834.64" y="1002.59" width="9.95" height="9.95"/><rect class="cls-13" x="847.45" y="1002.59" width="9.95" height="9.95"/><rect class="cls-13" x="860.26" y="1002.59" width="9.95" height="9.95"/><rect class="cls-13" x="821.83" y="1015.2" width="9.95" height="9.95"/><rect class="cls-13" x="834.64" y="1015.2" width="9.95" height="9.95"/><rect class="cls-13" x="847.45" y="1015.2" width="9.95" height="9.95"/><rect class="cls-13" x="860.26" y="1015.2" width="9.95" height="9.95"/><rect class="cls-13" x="615.92" y="854.28" width="59.62" height="5.78"/><rect class="cls-13" x="615.92" y="896.55" width="59.62" height="5.78"/><rect class="cls-13" x="615.92" y="938.83" width="59.62" height="5.78"/><rect class="cls-13" x="615.92" y="981.1" width="59.62" height="5.78"/><rect class="cls-13" x="615.92" y="1023.37" width="59.62" height="5.78"/><rect class="cls-13" x="615.92" y="868.57" width="26.02" height="5.78"/><rect class="cls-13" x="615.92" y="882.56" width="26.02" height="5.78"/><rect class="cls-13" x="1151.88" y="1003.94" width="16.23" height="4.76"/><rect class="cls-13" x="1152.11" y="1038.78" width="58.89" height="4.76"/><rect class="cls-13" x="1131.06" y="1051.36" width="79.94" height="4.76"/><rect class="cls-13" x="1131.06" y="1063.94" width="79.94" height="4.76"/><rect class="cls-13" x="1131.06" y="1076.51" width="79.94" height="4.76"/><rect class="cls-13" x="1131.06" y="1089.09" width="26.18" height="4.76"/><rect class="cls-13" x="1151.88" y="1015.72" width="35.55" height="4.76"/><rect class="cls-13" x="1151.88" y="1027.25" width="10.72" height="4.76"/><rect class="cls-13" x="454.53" y="916.62" width="20.49" height="20.49"/><rect class="cls-13" x="416.11" y="968.94" width="20.49" height="20.49"/><rect class="cls-13" x="416.11" y="1029.84" width="20.49" height="20.49"/><rect class="cls-13" x="966.47" y="926.92" width="18.71" height="18.71" transform="translate(1951.66 1872.55) rotate(180)"/><rect class="cls-13" x="931.39" y="959.13" width="18.71" height="18.71" transform="translate(1881.49 1936.96) rotate(180)"/><rect class="cls-13" x="931.39" y="995.11" width="18.71" height="18.71" transform="translate(1881.49 2008.94) rotate(180)"/><rect class="cls-13" x="966.47" y="1042.88" width="18.71" height="18.71" transform="translate(1951.66 2104.48) rotate(180)"/><rect class="cls-13" x="710.4" y="994.03" width="11.07" height="11.07" transform="translate(1431.87 1999.12) rotate(180)"/><rect class="cls-13" x="777.36" y="1019.69" width="12.71" height="12.71" transform="translate(1567.42 2052.08) rotate(180)"/><rect class="cls-13" x="755.04" y="1019.69" width="12.71" height="12.71" transform="translate(1522.79 2052.08) rotate(180)"/><rect class="cls-13" x="732.72" y="1019.69" width="12.71" height="12.71" transform="translate(1478.15 2052.08) rotate(180)"/><rect class="cls-13" x="777.36" y="1053.58" width="12.71" height="12.71" transform="translate(1567.42 2119.88) rotate(180)"/><rect class="cls-13" x="732.72" y="1053.58" width="12.71" height="12.71" transform="translate(1478.15 2119.88) rotate(180)"/><rect class="cls-13" x="777.36" y="1087.48" width="12.71" height="12.71" transform="translate(1567.42 2187.67) rotate(180)"/><rect class="cls-13" x="755.04" y="1087.48" width="12.71" height="12.71" transform="translate(1522.79 2187.67) rotate(180)"/><rect class="cls-13" x="777.36" y="1121.37" width="12.71" height="12.71" transform="translate(1567.42 2255.46) rotate(180)"/><rect class="cls-13" x="732.72" y="1121.37" width="12.71" height="12.71" transform="translate(1478.15 2255.46) rotate(180)"/><rect class="cls-13" x="710.4" y="1053.58" width="12.71" height="12.71" transform="translate(1433.52 2119.88) rotate(180)"/><rect class="cls-13" x="710.4" y="1087.48" width="12.71" height="12.71" transform="translate(1433.52 2187.67) rotate(180)"/><rect class="cls-13" x="32.22" y="1134.66" width="12.71" height="12.71"/><rect class="cls-13" x="54.54" y="1134.66" width="12.71" height="12.71"/><rect class="cls-13" x="76.86" y="1134.66" width="12.71" height="12.71"/><rect class="cls-13" x="9.9" y="1163.92" width="12.71" height="12.71"/><rect class="cls-13" x="32.22" y="1163.92" width="12.71" height="12.71"/><rect class="cls-13" x="76.86" y="1163.92" width="12.71" height="12.71"/><rect class="cls-13" x="9.9" y="1193.19" width="12.71" height="12.71"/><rect class="cls-13" x="54.54" y="1193.19" width="12.71" height="12.71"/><rect class="cls-13" x="76.86" y="1193.19" width="12.71" height="12.71"/><rect class="cls-15" y="1254.82" width="1478" height="223.18"/></g></g></svg>