<svg xmlns="http://www.w3.org/2000/svg" viewBox="0 0 237.15 260.03"><defs><style>.cls-1{fill:#4a148c;}.cls-2{fill:#551ca5;}.cls-3{fill:#fff;stroke:#fff;}.cls-3,.cls-4{stroke-linecap:round;stroke-linejoin:round;}.cls-4{fill:#f9f9f9;stroke:#f9f9f9;}.cls-5{fill:#e5e5e5;}.cls-6{fill:#6a6b6b;}.cls-7{fill:#8e8e8e;}.cls-8{fill:#b2b2b2;}.cls-9{fill:#444;}.cls-10{fill:#686868;}.cls-11{fill:#91908e;}.cls-12{font-size:12px;font-family:MyriadPro-Regular, Myriad Pro;}</style></defs><title>Asset 43</title><g id="Layer_2" data-name="Layer 2"><g id="Layer_1-2" data-name="Layer 1"><polygon class="cls-1" points="46.86 198.07 108.69 165.85 108.69 47.27 39.41 57.11 46.86 198.07"/><polygon class="cls-2" points="156.72 139.35 0 48.61 82.9 0 237.15 89.61 156.72 139.35"/><polygon class="cls-1" points="237.14 89.19 154.72 137.35 155.15 260.03 236.67 212.55 237.14 89.19"/><polygon class="cls-2" points="155.15 260.02 130.71 246.68 130.76 136.98 47.69 89.19 47.69 198 0.08 171.91 0 48.61 47.69 75.83 47.69 75.8 130.73 123.38 154.83 137.35 155.15 260.02"/><path class="cls-3" d="M41.33,60.3s-8.16-7.66-17.22-10.65l23-14.07c10.64,2.18,17.37,10.59,17.37,10.59Z"/><path class="cls-4" d="M58.92,70.77C46.31,60.3,41.33,60.3,41.33,60.3l23-14.07c4.17-1.37,17.37,10.6,17.37,10.6Z"/><polygon class="cls-2" points="134.75 150.57 47.69 102.14 47.69 88.55 137.69 139.52 137.69 149.72 134.75 150.57"/><polygon class="cls-1" points="41.69 110.64 5.69 90.25 5.69 62.21 41.69 82.6 41.69 110.64"/><polygon class="cls-5" points="25.69 89.78 20.69 86.95 20.69 83.06 25.69 85.89 25.69 89.78"/><polygon class="cls-1" points="41.69 147.17 5.69 126.78 5.69 96.19 41.69 116.58 41.69 147.17"/><polygon class="cls-1" points="41.69 187.95 5.69 168.41 5.69 133.57 41.69 153.97 41.69 187.95"/><polygon class="cls-5" points="25.69 127.78 20.69 124.95 20.69 121.06 25.69 123.89 25.69 127.78"/><polygon class="cls-5" points="25.69 163.78 20.69 160.95 20.69 157.06 25.69 159.89 25.69 163.78"/><polygon class="cls-1" points="137.69 149.72 47.69 98.74 47.69 85.15 137.69 136.12 137.69 149.72"/><path class="cls-1" d="M46.13,37.58l-.14,0a.44.44,0,0,1-.16,0l.08-.13a.31.31,0,0,0,.23,0,.88.88,0,0,0,.24-.26l.45-.62.11-.17a.23.23,0,0,1,.25-.14l.12,0s0,0,0,.05,0,.06-.08.12l0,.05-.64.77A2.18,2.18,0,0,1,47,37a.47.47,0,0,1,.34,0,.15.15,0,0,1,.1.07.11.11,0,0,1,0,.11,1.2,1.2,0,0,1-.25.34l0,.06a.76.76,0,0,0-.08.11s0,.05,0,.07,0,.05,0,.06a.31.31,0,0,0,.13.06L47.1,38h0a.75.75,0,0,1-.27-.13.17.17,0,0,1,0-.18.57.57,0,0,1,.07-.13l.18-.21v0a.43.43,0,0,0,.1-.12s0,0,0,0,0,0,0,0a.46.46,0,0,0-.26.1,1.49,1.49,0,0,0-.36.31.39.39,0,0,0-.08.1.2.2,0,0,1-.23.06l-.07,0s0,0,0,0,0,0,0,0Z"/><path class="cls-1" d="M47.57,38a1,1,0,0,1-.25,0,.86.86,0,0,1-.23,0l.09-.12.15,0h.15a.32.32,0,0,1,0-.14,1.36,1.36,0,0,1,0-.17.5.5,0,0,1,.28-.31.52.52,0,0,1,.42,0,.29.29,0,0,1,.17.13.23.23,0,0,1,0,.2.47.47,0,0,1-.19.24,1,1,0,0,1-.36.18l.09.09a.4.4,0,0,0,.13.07h0l-.09.13h0a.9.9,0,0,1-.22-.1A.67.67,0,0,1,47.57,38Zm.2-.18A.67.67,0,0,0,48,37.7a.4.4,0,0,0,.15-.18.11.11,0,0,0,0-.08.1.1,0,0,0-.07,0,.23.23,0,0,0-.2,0,.41.41,0,0,0-.15.21.2.2,0,0,0,0,.1A.31.31,0,0,0,47.77,37.83Z"/><path class="cls-1" d="M48,38.25l.09-.12a.32.32,0,0,0,.14,0,.72.72,0,0,0,.19,0c.09-.15.18-.3.29-.45a3.68,3.68,0,0,1,.34-.44,1,1,0,0,1,.24-.23.2.2,0,0,1,.18,0s.07,0,.08.08a.24.24,0,0,1,0,.12.44.44,0,0,1-.14.18,1.52,1.52,0,0,1-.28.19,4.46,4.46,0,0,0-.31.42,2.13,2.13,0,0,0-.16.27s0,.07,0,.09,0,.05.09.07l-.09.12h0a.48.48,0,0,1-.19-.1.19.19,0,0,1,0-.14.71.71,0,0,1-.2,0A.63.63,0,0,1,48,38.25Z"/><path class="cls-1" d="M48.6,38.48l.1-.12.14,0a.9.9,0,0,0,.19-.05c.09-.14.18-.29.29-.44s.23-.29.35-.43a1.48,1.48,0,0,1,.25-.23.19.19,0,0,1,.18,0,.11.11,0,0,1,.08.07.28.28,0,0,1,0,.13.55.55,0,0,1-.15.17,1.52,1.52,0,0,1-.28.19,3.55,3.55,0,0,0-.32.41,1.27,1.27,0,0,0-.17.27.14.14,0,0,0,0,.09.23.23,0,0,0,.09.06l-.1.13h0a.48.48,0,0,1-.19-.12.17.17,0,0,1,0-.13.64.64,0,0,1-.2,0A.63.63,0,0,1,48.6,38.48Z"/><path class="cls-1" d="M50.43,38.47a.12.12,0,0,1-.07-.07.14.14,0,0,1,0-.09.14.14,0,0,1,.1-.1.15.15,0,0,1,.13,0,.17.17,0,0,1,.1.1.27.27,0,0,1,0,.17.69.69,0,0,1-.15.24,1,1,0,0,1-.22.18A.73.73,0,0,1,50,39a.45.45,0,0,1-.23,0,.49.49,0,0,1-.13-.08.35.35,0,0,1-.08-.1l-.17,0-.19-.05.11-.12.11,0h.1a.22.22,0,0,0,0-.08l0-.08a.62.62,0,0,1,.15-.22,1.14,1.14,0,0,1,.23-.15.71.71,0,0,1,.25-.06.73.73,0,0,1,.22,0l0,0v0s0,0-.09,0a.38.38,0,0,0-.11.05,1.1,1.1,0,0,0-.3.19.72.72,0,0,0-.17.23.34.34,0,0,0,0,.1.11.11,0,0,0,.07.06.37.37,0,0,0,.29,0A.7.7,0,0,0,50.43,38.47Z"/><path class="cls-1" d="M50.85,39.39l.11-.11a.29.29,0,0,0,.24,0,1,1,0,0,0,.3-.23l.18-.19c.1-.11.17-.15.24-.12l.12.07s0,0,0,0L51.9,39a2,2,0,0,0-.27.23,2.63,2.63,0,0,1,.5-.22.4.4,0,0,1,.29,0,.2.2,0,0,1,.09.09.14.14,0,0,1,0,.11.45.45,0,0,1-.1.1,1.86,1.86,0,0,1-.23.18,2.7,2.7,0,0,1,.52-.22.43.43,0,0,1,.28,0,.24.24,0,0,1,.1.1.13.13,0,0,1,0,.12,1.9,1.9,0,0,1-.34.31l0,0-.09.08a.18.18,0,0,0-.05.07s0,.05,0,.07a.38.38,0,0,0,.11.08l-.11.11h0a.69.69,0,0,1-.25-.19.15.15,0,0,1,0-.18,1.11,1.11,0,0,1,.22-.21l.09-.07.12-.1,0,0v0s0,0,0,0-.12,0-.26.06a2.25,2.25,0,0,0-.43.23l-.13.1a.15.15,0,0,1-.18,0l-.11-.06s0,0,0-.05a.36.36,0,0,1,.11-.1l.18-.14.24-.2.07-.08v0s0,0,0,0-.12,0-.26.05a1.41,1.41,0,0,0-.38.21l-.15.12-.09.07h0l-.1,0s0,0,0,0,0,0,0,0l0,0H51A.44.44,0,0,1,50.85,39.39Z"/><path class="cls-1" d="M52.89,40.36l-.19,0-.17-.07.12-.1.13.05.14,0a1.19,1.19,0,0,1,.15-.18l.23-.2.24-.16s.08,0,.1,0a.31.31,0,0,1,.12.09.08.08,0,0,1,0,.08l-.11.08-.15.1-.2.15a.4.4,0,0,0-.11.12.25.25,0,0,0,0,.07l0,.05a.32.32,0,0,0,.24,0,1.44,1.44,0,0,0,.36-.17l.2-.16q.12-.11.18-.06a.27.27,0,0,1,.1.08.08.08,0,0,1,0,.08l-.07.06-.06,0-.6.45.22.1h0l-.12.1-.16-.07-.1,0a1.39,1.39,0,0,1-.36.24.28.28,0,0,1-.27,0,.15.15,0,0,1-.07-.07.1.1,0,0,1,0-.09.3.3,0,0,1,.18-.13.56.56,0,0,1,.29,0l.23-.17.2-.15a1.64,1.64,0,0,1-.38.14.47.47,0,0,1-.27-.05.24.24,0,0,1-.09-.08A.2.2,0,0,1,52.89,40.36Z"/><path class="cls-1" d="M54.54,41.36a.26.26,0,0,1-.15,0l-.15-.06.13-.1a.29.29,0,0,0,.24,0,.91.91,0,0,0,.33-.18l.22-.17c.1-.1.18-.12.24-.08l.11.09s0,0,0,0l-.17.11-.31.19a2,2,0,0,1,.53-.13.47.47,0,0,1,.32.08.19.19,0,0,1,.08.1.13.13,0,0,1,0,.11,1.35,1.35,0,0,1-.34.23l-.07,0-.11.08-.06,0a.06.06,0,0,0,0,.07.43.43,0,0,0,.1.1l-.13.09,0,0a.52.52,0,0,1-.21-.21.17.17,0,0,1,0-.18l.12-.09.23-.15h0a.54.54,0,0,0,.14-.08,0,0,0,0,0,0,0l0,0s-.13,0-.28,0a1.66,1.66,0,0,0-.45.17l-.11.07a.21.21,0,0,1-.24,0s0,0-.05-.05v0l0,0Z"/><path class="cls-1" d="M56.37,42.38a1.35,1.35,0,0,1-.39.08.53.53,0,0,1-.28-.1l-.08-.09a.16.16,0,0,1,0-.09.42.42,0,0,1-.14-.06.65.65,0,0,1-.15-.1l.13-.08.1.06.1,0,0,0,0,0a.53.53,0,0,1,.16-.13.79.79,0,0,1,.23-.09.88.88,0,0,1,.36,0,.49.49,0,0,1,.29.13.24.24,0,0,1,.1.1.34.34,0,0,1,0,.12l0,0L57,42A.06.06,0,0,1,57,42a.52.52,0,0,1,.1.11s0,.07,0,.09l-.1,0-.19.07a3,3,0,0,0-.27.15.49.49,0,0,0-.15.12.07.07,0,0,0,0,.06.41.41,0,0,0,.1.11l-.14.09v0a.67.67,0,0,1-.19-.2.12.12,0,0,1,0-.14l.07-.07Zm.36-.25a.14.14,0,0,0,0-.06s0,0-.05,0A.3.3,0,0,0,56.5,42a.72.72,0,0,0-.45.07.37.37,0,0,0-.15.11s0,0,0,.07a.05.05,0,0,0,0,.06.35.35,0,0,0,.3,0A1.94,1.94,0,0,0,56.73,42.13Z"/><path class="cls-1" d="M56.35,42.84l.14-.08a.31.31,0,0,0,.23.08,1,1,0,0,0,.35-.14l.23-.13c.13-.08.21-.1.26,0l.1.11a0,0,0,0,1,0,0l-.18.08-.33.15a2.64,2.64,0,0,1,.54-.07.47.47,0,0,1,.28.1.16.16,0,0,1,.05.11.11.11,0,0,1,0,.1l-.12.07-.27.1a2.37,2.37,0,0,1,.56-.06.43.43,0,0,1,.26.1.28.28,0,0,1,.07.13.15.15,0,0,1,0,.11,1.83,1.83,0,0,1-.41.2l0,0-.12,0-.07.05a.06.06,0,0,0,0,.07.39.39,0,0,0,.08.11l-.14.07h0a.86.86,0,0,1-.19-.25.16.16,0,0,1,0-.17.76.76,0,0,1,.27-.14l.1,0,.15-.06,0,0s0,0,0,0,0,0,0,0-.11,0-.27,0a1.65,1.65,0,0,0-.47.1l-.16,0a.15.15,0,0,1-.17,0l-.09-.1a0,0,0,0,1,0,0l.14-.06.21-.08.29-.13.09,0a0,0,0,0,0,0,0,.05.05,0,0,0,0,0s-.12,0-.26,0a1.57,1.57,0,0,0-.43.09l-.18.07-.1,0,0,0a.23.23,0,0,1-.08-.07l-.05,0s0,0,0,0l.06,0h0a.35.35,0,0,1-.14,0A.55.55,0,0,1,56.35,42.84Z"/><path class="cls-1" d="M58.12,44.44a1.55,1.55,0,0,1-.22-.12.93.93,0,0,1-.18-.16l.14-.07.12.11.12.07a.69.69,0,0,1,0-.13.71.71,0,0,1,.12-.13.51.51,0,0,1,.4-.13.52.52,0,0,1,.38.19.26.26,0,0,1,.08.19.23.23,0,0,1-.09.18.55.55,0,0,1-.29.12,1.1,1.1,0,0,1-.4,0,.5.5,0,0,0,0,.13l.09.12h0l-.15.07,0,0a1.21,1.21,0,0,1-.14-.2A.45.45,0,0,1,58.12,44.44Zm.26-.06a.7.7,0,0,0,.29,0,.44.44,0,0,0,.23-.09.09.09,0,0,0,0-.06.13.13,0,0,0,0-.08.21.21,0,0,0-.2-.06.44.44,0,0,0-.24.11l-.06.07A.24.24,0,0,0,58.38,44.38Z"/><path class="cls-1" d="M43.88,39.53l-.14,0a.44.44,0,0,1-.16,0l.08-.13a.31.31,0,0,0,.23,0,.88.88,0,0,0,.24-.26l.45-.62.11-.17c.07-.12.16-.16.25-.13a.4.4,0,0,1,.12,0s0,0,0,0,0,.06-.08.12l0,.06-.64.76a2.18,2.18,0,0,1,.45-.29.47.47,0,0,1,.34,0,.15.15,0,0,1,.1.07.11.11,0,0,1,0,.11,1.2,1.2,0,0,1-.25.34l0,.06a.76.76,0,0,0-.08.11.13.13,0,0,0,0,.07.06.06,0,0,0,0,.07l.13.06-.09.13h0a.75.75,0,0,1-.27-.13.16.16,0,0,1,0-.17.59.59,0,0,1,.07-.14l.18-.21h0a.4.4,0,0,0,.1-.13,0,0,0,0,0,0,0s0,0,0,0a.46.46,0,0,0-.26.1,1.49,1.49,0,0,0-.36.31.39.39,0,0,0-.08.1.22.22,0,0,1-.23.07l-.07,0s0,0,0,0,0,0,0,0Z"/><path class="cls-1" d="M45.32,40h-.25l-.23,0,.09-.13.15,0h.15a.32.32,0,0,1,0-.14,1.24,1.24,0,0,1,0-.16.56.56,0,0,1,.7-.35.29.29,0,0,1,.17.13.23.23,0,0,1,0,.2.54.54,0,0,1-.19.25,1.2,1.2,0,0,1-.36.17l.09.09a.4.4,0,0,0,.13.07h0l-.09.13h0a.9.9,0,0,1-.22-.1A.67.67,0,0,1,45.32,40Zm.2-.18a.67.67,0,0,0,.27-.13.4.4,0,0,0,.15-.18.11.11,0,0,0,0-.08s0,0-.07,0a.19.19,0,0,0-.2,0,.41.41,0,0,0-.15.21.2.2,0,0,0,0,.1A.24.24,0,0,0,45.52,39.78Z"/><path class="cls-1" d="M45.71,40.2l.09-.12a.32.32,0,0,0,.14,0,.72.72,0,0,0,.19,0c.09-.15.18-.3.29-.45a4.7,4.7,0,0,1,.34-.44,1,1,0,0,1,.24-.23.2.2,0,0,1,.18,0s.07,0,.08.08a.24.24,0,0,1,0,.12.54.54,0,0,1-.14.19,1.5,1.5,0,0,1-.28.18,3.52,3.52,0,0,0-.31.43,2.31,2.31,0,0,0-.16.26.09.09,0,0,0,0,.1.17.17,0,0,0,.09.06l-.09.12h0a.48.48,0,0,1-.19-.1.19.19,0,0,1,0-.14.71.71,0,0,1-.2,0A.63.63,0,0,1,45.71,40.2Z"/><path class="cls-1" d="M46.35,40.43l.1-.12.14,0,.19,0c.09-.15.18-.3.29-.45s.23-.29.35-.43a1,1,0,0,1,.25-.22.2.2,0,0,1,.18,0,.11.11,0,0,1,.08.08.24.24,0,0,1,0,.12.7.7,0,0,1-.15.18,2.27,2.27,0,0,1-.28.18,4.68,4.68,0,0,0-.32.41,1.27,1.27,0,0,0-.17.27.14.14,0,0,0,0,.09.16.16,0,0,0,.09.06l-.1.13h0a.63.63,0,0,1-.19-.11.19.19,0,0,1,0-.14.64.64,0,0,1-.2,0A.63.63,0,0,1,46.35,40.43Z"/><path class="cls-1" d="M48.18,40.42a.12.12,0,0,1-.07-.07.14.14,0,0,1,0-.09.17.17,0,0,1,.1-.1.15.15,0,0,1,.13,0,.17.17,0,0,1,.1.1.31.31,0,0,1,0,.18.65.65,0,0,1-.15.23,1,1,0,0,1-.22.18.73.73,0,0,1-.25.1.45.45,0,0,1-.23,0,.49.49,0,0,1-.13-.08.25.25,0,0,1-.08-.1l-.17,0a.77.77,0,0,1-.19,0l.11-.12.11,0h.1a.22.22,0,0,0,0-.08l0-.08a.51.51,0,0,1,.15-.21.87.87,0,0,1,.23-.16A1,1,0,0,1,48,40a.51.51,0,0,1,.22,0l0,0v0a.13.13,0,0,1-.09,0,.38.38,0,0,0-.11,0,1.1,1.1,0,0,0-.3.19.72.72,0,0,0-.17.23.38.38,0,0,0,0,.1.09.09,0,0,0,.07.06.33.33,0,0,0,.29-.05A.7.7,0,0,0,48.18,40.42Z"/><path class="cls-1" d="M48.6,41.34l.11-.11a.25.25,0,0,0,.24,0,1.11,1.11,0,0,0,.3-.22l.18-.2c.1-.11.17-.15.24-.12l.12.07s0,0,0,.05l-.16.14a3.23,3.23,0,0,0-.27.23,2.63,2.63,0,0,1,.5-.22.4.4,0,0,1,.29,0,.26.26,0,0,1,.09.09.14.14,0,0,1,0,.11s0,.06-.1.1a1.86,1.86,0,0,1-.23.18,2.7,2.7,0,0,1,.52-.22.51.51,0,0,1,.28,0,.24.24,0,0,1,.1.1.13.13,0,0,1,0,.12,1.9,1.9,0,0,1-.34.31l0,0-.09.09a.12.12,0,0,0-.05.06.06.06,0,0,0,0,.07.38.38,0,0,0,.11.08l-.11.11h0A.69.69,0,0,1,50,42a.15.15,0,0,1,0-.18,1.11,1.11,0,0,1,.22-.21l.09-.07a.76.76,0,0,0,.12-.1l0,0v0a.48.48,0,0,0-.26.06,2.25,2.25,0,0,0-.43.23l-.13.1a.15.15,0,0,1-.18,0l-.11-.06s0,0,0,0a.36.36,0,0,1,.11-.1l.18-.14.24-.2.07-.08v0s0,0,0,0-.12,0-.26,0a2.32,2.32,0,0,0-.38.21l-.15.12-.09.07h0a.45.45,0,0,1-.1,0l0,0s0,0,0,0l0,0h-.14A.44.44,0,0,1,48.6,41.34Z"/><path class="cls-1" d="M50.64,42.31l-.19,0-.17-.06.12-.11.13.06.14,0a1.19,1.19,0,0,1,.15-.18l.23-.2.24-.16a.12.12,0,0,1,.1,0,.31.31,0,0,1,.12.09.08.08,0,0,1,0,.08l-.11.08-.15.1-.2.15a.4.4,0,0,0-.11.12.25.25,0,0,0,0,.07l0,0a.32.32,0,0,0,.24,0,1.44,1.44,0,0,0,.36-.17,1.27,1.27,0,0,0,.2-.16q.12-.1.18-.06a.27.27,0,0,1,.1.08.08.08,0,0,1,0,.08L52,42.2l-.06,0-.6.46a1,1,0,0,1,.22.09h0l-.12.1-.16-.07-.1,0a1.39,1.39,0,0,1-.36.24.28.28,0,0,1-.27,0,.12.12,0,0,1-.07-.07.1.1,0,0,1,0-.09.35.35,0,0,1,.18-.13.56.56,0,0,1,.29,0l.23-.17.2-.15a1.28,1.28,0,0,1-.38.14.47.47,0,0,1-.27,0,.24.24,0,0,1-.09-.08A.2.2,0,0,1,50.64,42.31Z"/><path class="cls-1" d="M52.29,43.32h-.15L52,43.24l.13-.1a.29.29,0,0,0,.24,0,.91.91,0,0,0,.33-.18l.22-.17c.1-.1.18-.12.24-.08l.11.09s0,0,0,0L53.1,43l-.31.19a2,2,0,0,1,.53-.13.47.47,0,0,1,.32.08.19.19,0,0,1,.08.1.13.13,0,0,1,0,.11,1.35,1.35,0,0,1-.34.23l-.07,0-.11.08-.06,0a.06.06,0,0,0,0,.07.3.3,0,0,0,.1.1l-.13.09h0a.6.6,0,0,1-.21-.22.15.15,0,0,1,0-.17.44.44,0,0,1,.12-.1,2,2,0,0,1,.23-.14l0,0a.54.54,0,0,0,.14-.08,0,0,0,0,0,0,0s0,0,0,0-.13,0-.28,0a1.66,1.66,0,0,0-.45.17l-.11.07a.2.2,0,0,1-.24,0l-.05,0v0l0,0Z"/><path class="cls-1" d="M54.12,44.33a1.08,1.08,0,0,1-.39.08.53.53,0,0,1-.28-.1l-.08-.09a.16.16,0,0,1,0-.09.42.42,0,0,1-.14-.06.44.44,0,0,1-.15-.1l.13-.08.1.06.1,0,0-.05,0,0a.53.53,0,0,1,.16-.13,1.23,1.23,0,0,1,.23-.09.88.88,0,0,1,.36,0,.55.55,0,0,1,.29.13.24.24,0,0,1,.1.1.34.34,0,0,1,0,.12l0,0,.06,0,.05,0a.52.52,0,0,1,.1.11s0,.07,0,.09l-.1.05-.19.08-.27.14a.49.49,0,0,0-.15.12.07.07,0,0,0,0,.06s0,.06.1.11l-.14.09v0a.67.67,0,0,1-.19-.2.12.12,0,0,1,0-.14l.07-.07Zm.36-.25a.14.14,0,0,0,0-.06s0,0-.05-.05a.3.3,0,0,0-.16-.06H54L53.8,44a.37.37,0,0,0-.15.11s0,0,0,.07a.05.05,0,0,0,0,.06.34.34,0,0,0,.3.05A2.47,2.47,0,0,0,54.48,44.08Z"/><path class="cls-1" d="M54.1,44.79l.14-.08a.27.27,0,0,0,.23.08,1.18,1.18,0,0,0,.35-.13l.23-.14c.13-.08.21-.1.26-.05l.1.11a0,0,0,0,1,0,.05l-.18.09a2.52,2.52,0,0,0-.33.14,2.64,2.64,0,0,1,.54-.07.47.47,0,0,1,.28.1.16.16,0,0,1,.05.11.11.11,0,0,1,0,.1.31.31,0,0,1-.12.07l-.27.1a4.44,4.44,0,0,1,.56-.06.43.43,0,0,1,.26.1.28.28,0,0,1,.07.13.15.15,0,0,1,0,.11,1.45,1.45,0,0,1-.41.2l0,0-.12,0-.07,0a.06.06,0,0,0,0,.07.39.39,0,0,0,.08.11l-.14.07h0a.85.85,0,0,1-.19-.24.17.17,0,0,1,0-.18,1,1,0,0,1,.27-.14l.1,0,.15-.06,0,0a0,0,0,0,0,0,0v0s-.11,0-.27,0a2.08,2.08,0,0,0-.47.1l-.16,0a.15.15,0,0,1-.17,0l-.09-.1a0,0,0,0,1,0-.05l.14-.06.21-.08.29-.12.09-.06a0,0,0,0,0,0,0l0,0a.54.54,0,0,0-.26,0,1.57,1.57,0,0,0-.43.09l-.18.07-.1,0,0,0a.23.23,0,0,1-.08-.07L54.3,45a0,0,0,0,1,0,0l.06,0h0a.35.35,0,0,1-.14,0A.55.55,0,0,1,54.1,44.79Z"/><path class="cls-1" d="M55.87,46.39a1.55,1.55,0,0,1-.22-.12.93.93,0,0,1-.18-.16l.14-.06.12.1.12.08a.58.58,0,0,1,0-.14L56,46a.56.56,0,0,1,.78.06.27.27,0,0,1,.08.2.26.26,0,0,1-.09.18.65.65,0,0,1-.29.11.92.92,0,0,1-.4,0,.5.5,0,0,0,0,.13.47.47,0,0,0,.09.12h0l-.15.07,0,0a1.21,1.21,0,0,1-.14-.2A.41.41,0,0,1,55.87,46.39Zm.26-.06a.7.7,0,0,0,.29,0,.44.44,0,0,0,.23-.09.09.09,0,0,0,0-.06.13.13,0,0,0,0-.08.21.21,0,0,0-.2-.06.44.44,0,0,0-.24.11l-.06.07A.24.24,0,0,0,56.13,46.33Z"/><path class="cls-1" d="M41,41.16a.32.32,0,0,1-.14,0,.45.45,0,0,1-.16,0l.09-.13A.25.25,0,0,0,41,41a.82.82,0,0,0,.24-.25l.45-.62L41.8,40c.08-.12.16-.17.25-.14a.35.35,0,0,1,.12.05.05.05,0,0,1,0,0l-.09.12,0,.05-.64.77a2.18,2.18,0,0,1,.45-.3.48.48,0,0,1,.33,0,.14.14,0,0,1,.1.06.16.16,0,0,1,0,.12,2.42,2.42,0,0,1-.25.34l0,.06-.08.1s0,.06,0,.08a.07.07,0,0,0,0,.06.31.31,0,0,0,.13.06l-.09.13h0a.57.57,0,0,1-.26-.13.15.15,0,0,1-.05-.17.41.41,0,0,1,.08-.13,1.3,1.3,0,0,1,.17-.21v0a.64.64,0,0,0,.11-.13,0,0,0,0,0,0,0h0c-.05,0-.14,0-.26.09a1.8,1.8,0,0,0-.37.32.44.44,0,0,0-.08.1.2.2,0,0,1-.23.06l-.06,0s0,0,0,0a0,0,0,0,1,0,0Z"/><path class="cls-1" d="M42.44,41.59h-.25L42,41.54l.09-.13.16,0h.14a.34.34,0,0,1,0-.14.55.55,0,0,1,0-.17.57.57,0,0,1,.71-.34.24.24,0,0,1,.16.13.2.2,0,0,1,0,.2.5.5,0,0,1-.19.24,1.06,1.06,0,0,1-.35.18l.08.09a.45.45,0,0,0,.14.06h0l-.09.13h0a.9.9,0,0,1-.22-.11A.44.44,0,0,1,42.44,41.59Zm.19-.19a.66.66,0,0,0,.27-.12.37.37,0,0,0,.15-.19.08.08,0,0,0,0-.07A.1.1,0,0,0,43,41a.21.21,0,0,0-.21.05.41.41,0,0,0-.15.21.37.37,0,0,0,0,.09A.19.19,0,0,0,42.63,41.4Z"/><path class="cls-1" d="M42.82,41.83l.1-.13a.3.3,0,0,0,.14,0l.19,0a3.68,3.68,0,0,1,.28-.45,4.7,4.7,0,0,1,.34-.44,1.19,1.19,0,0,1,.24-.23.24.24,0,0,1,.18,0,.11.11,0,0,1,.08.08.13.13,0,0,1,0,.12.63.63,0,0,1-.14.18,1.52,1.52,0,0,1-.28.19c-.12.15-.22.29-.31.42a1.59,1.59,0,0,0-.16.27.14.14,0,0,0,0,.09.14.14,0,0,0,.1.06l-.1.13h0a.43.43,0,0,1-.18-.11.18.18,0,0,1-.06-.13.64.64,0,0,1-.2,0A.41.41,0,0,1,42.82,41.83Z"/><path class="cls-1" d="M43.46,42.06l.1-.13a.22.22,0,0,0,.14,0,.81.81,0,0,0,.19,0c.09-.15.19-.29.3-.44a3.55,3.55,0,0,1,.35-.44,1.07,1.07,0,0,1,.24-.22.26.26,0,0,1,.19,0,.14.14,0,0,1,.07.08A.13.13,0,0,1,45,41a.46.46,0,0,1-.15.18,1.12,1.12,0,0,1-.28.18c-.12.15-.23.29-.32.42a2,2,0,0,0-.17.26.14.14,0,0,0,0,.09.2.2,0,0,0,.1.07l-.1.12h0a.43.43,0,0,1-.18-.11.2.2,0,0,1-.06-.14.43.43,0,0,1-.19,0A.69.69,0,0,1,43.46,42.06Z"/><path class="cls-1" d="M45.29,42.05a.15.15,0,0,1-.07-.07.17.17,0,0,1,0-.1.24.24,0,0,1,.1-.1.15.15,0,0,1,.13,0,.16.16,0,0,1,.1.11.28.28,0,0,1,0,.17.65.65,0,0,1-.15.23.79.79,0,0,1-.22.19.69.69,0,0,1-.25.09.45.45,0,0,1-.23,0,.41.41,0,0,1-.13-.08.25.25,0,0,1-.08-.1h-.17l-.19-.05.11-.12.12,0h.1a.19.19,0,0,1,0-.08.29.29,0,0,1,0-.09,1,1,0,0,1,.16-.21.63.63,0,0,1,.23-.16.6.6,0,0,1,.24,0,.38.38,0,0,1,.22,0l0,0s0,0,0,0a.21.21,0,0,1-.08.05l-.12,0a1.32,1.32,0,0,0-.29.19.68.68,0,0,0-.17.23.12.12,0,0,0,0,.1.13.13,0,0,0,.06.07.34.34,0,0,0,.29-.06A.66.66,0,0,0,45.29,42.05Z"/><path class="cls-1" d="M45.71,43l.11-.12a.29.29,0,0,0,.24,0,.92.92,0,0,0,.3-.23l.18-.2q.15-.16.24-.12l.12.08s0,0,0,0l-.16.13-.27.24a2.11,2.11,0,0,1,.5-.22.4.4,0,0,1,.29,0,.15.15,0,0,1,.09.08.17.17,0,0,1,0,.12.3.3,0,0,1-.1.1l-.23.18a2.19,2.19,0,0,1,.53-.22.36.36,0,0,1,.27,0,.24.24,0,0,1,.1.1.13.13,0,0,1,0,.12,2,2,0,0,1-.34.3l0,0-.1.09a.23.23,0,0,0-.05.07.06.06,0,0,0,0,.06.59.59,0,0,0,.11.09l-.11.11h0a.59.59,0,0,1-.25-.18.17.17,0,0,1,0-.18,1.3,1.3,0,0,1,.23-.21l.08-.07.12-.1,0-.05s0,0,0,0,0,0,0,0-.12,0-.26.06a1.8,1.8,0,0,0-.43.23l-.13.09a.16.16,0,0,1-.18,0l-.11-.07s0,0,0-.05l.11-.09.18-.14.24-.2.07-.08s0,0,0,0a0,0,0,0,0,0,0s-.13,0-.26.05a1.47,1.47,0,0,0-.39.21l-.15.12-.09.06h0l-.1,0,0,0a0,0,0,0,1,0,0A.23.23,0,0,1,46,43h0a.32.32,0,0,1-.14,0A.47.47,0,0,1,45.71,43Z"/><path class="cls-1" d="M47.75,43.94l-.19,0-.16-.07.11-.1.13.05.14,0a1.19,1.19,0,0,1,.15-.18l.23-.2.24-.16a.11.11,0,0,1,.11,0,.35.35,0,0,1,.11.09.06.06,0,0,1,0,.07s0,0-.11.08l-.15.1a.92.92,0,0,0-.2.16.6.6,0,0,0-.11.12s0,0,0,.06a.05.05,0,0,0,0,.05.35.35,0,0,0,.25,0,1.23,1.23,0,0,0,.35-.17l.2-.15c.08-.07.14-.09.18-.07a.3.3,0,0,1,.1.09s0,.06,0,.08l-.06,0-.07,0-.59.45.21.1h0l-.12.11-.16-.07-.1,0a1.24,1.24,0,0,1-.36.25.31.31,0,0,1-.27,0,.13.13,0,0,1-.07-.08.1.1,0,0,1,0-.09.28.28,0,0,1,.18-.13.63.63,0,0,1,.28,0l.23-.16.2-.16a1,1,0,0,1-.38.14.36.36,0,0,1-.27,0,.2.2,0,0,1-.08-.08A.16.16,0,0,1,47.75,43.94Z"/><path class="cls-1" d="M49.4,44.94a.33.33,0,0,1-.14,0,.51.51,0,0,1-.15-.07l.12-.09a.33.33,0,0,0,.24,0,1.39,1.39,0,0,0,.33-.18l.22-.18c.1-.09.19-.12.24-.07a.38.38,0,0,1,.11.08,0,0,0,0,1,0,.06l-.17.1-.3.2a1.57,1.57,0,0,1,.52-.13.51.51,0,0,1,.33.07.2.2,0,0,1,.07.1.14.14,0,0,1,0,.11,1.78,1.78,0,0,1-.35.24l-.07,0-.11.07-.06.06a.06.06,0,0,0,0,.07.48.48,0,0,0,.1.09l-.13.1,0,0a.68.68,0,0,1-.21-.21.15.15,0,0,1,0-.18s.05-.06.11-.1l.23-.14h0c.09,0,.13-.07.14-.09a0,0,0,0,0,0,0l0,0s-.13,0-.28,0a1.62,1.62,0,0,0-.45.18l-.11.06a.18.18,0,0,1-.23,0l0,0a0,0,0,0,1,0,0,0,0,0,0,1,0,0Z"/><path class="cls-1" d="M51.23,46a1,1,0,0,1-.39.07.4.4,0,0,1-.28-.1l-.08-.09a.16.16,0,0,1,0-.09l-.14,0-.15-.1.13-.09.11.07.09,0,0,0,0,0a.53.53,0,0,1,.16-.13.92.92,0,0,1,.23-.09.94.94,0,0,1,.37,0,.59.59,0,0,1,.29.13.41.41,0,0,1,.09.1.5.5,0,0,1,0,.13l.05,0,.06,0,0,0a.53.53,0,0,1,.1.12s0,.07,0,.08a.27.27,0,0,1-.11,0l-.18.08a1.41,1.41,0,0,0-.28.15.73.73,0,0,0-.15.11.06.06,0,0,0,0,.07.53.53,0,0,0,.09.11l-.13.08h0a.82.82,0,0,1-.19-.2.16.16,0,0,1,0-.15L51.1,46Zm.37-.25,0-.07s0,0,0,0a.3.3,0,0,0-.16-.06.66.66,0,0,0-.24,0,.52.52,0,0,0-.21.07.36.36,0,0,0-.15.1.16.16,0,0,0,0,.08.09.09,0,0,0,0,.06.39.39,0,0,0,.3,0A2,2,0,0,0,51.6,45.71Z"/><path class="cls-1" d="M51.21,46.41l.14-.07a.27.27,0,0,0,.23.07,1,1,0,0,0,.35-.13,1.18,1.18,0,0,0,.23-.14c.13-.08.22-.09.27,0l.09.1s0,0,0,.06l-.19.08-.33.15a2.08,2.08,0,0,1,.54-.07.44.44,0,0,1,.28.09.3.3,0,0,1,.06.11.13.13,0,0,1,0,.1.36.36,0,0,1-.13.08l-.27.1a2.41,2.41,0,0,1,.56-.06.41.41,0,0,1,.26.1.25.25,0,0,1,.07.12.14.14,0,0,1,0,.12,1.82,1.82,0,0,1-.4.19l0,0-.12.06-.07,0a0,0,0,0,0,0,.06.48.48,0,0,0,.08.11l-.14.08h0a.86.86,0,0,1-.19-.25.17.17,0,0,1,0-.18,1.12,1.12,0,0,1,.28-.14l.1,0,.14-.06,0,0v0a0,0,0,0,0,0,0,.5.5,0,0,0-.26,0,3.17,3.17,0,0,0-.48.1l-.15.06a.15.15,0,0,1-.18,0L51.85,47s0,0,0,0L52,46.9l.21-.09.29-.12.09-.06a0,0,0,0,0,0,0s0,0,0,0-.11,0-.26,0a1.57,1.57,0,0,0-.43.09l-.18.07-.1,0h-.05l-.08-.07,0,0s0,0,0,0l.06,0h0l-.14,0Z"/><path class="cls-1" d="M53,48l-.22-.13a1.29,1.29,0,0,1-.18-.16l.15-.06a.5.5,0,0,0,.11.1.57.57,0,0,0,.13.08.27.27,0,0,1,.05-.14.4.4,0,0,1,.11-.12.51.51,0,0,1,.4-.13.55.55,0,0,1,.38.18.29.29,0,0,1,.08.2.23.23,0,0,1-.09.18.48.48,0,0,1-.29.11,1,1,0,0,1-.39,0,.5.5,0,0,0,0,.12.47.47,0,0,0,.09.12v0l-.14.06,0,0a1,1,0,0,1-.13-.2A.38.38,0,0,1,53,48Zm.26-.06a.57.57,0,0,0,.29,0,.41.41,0,0,0,.23-.08.16.16,0,0,0,0-.07.11.11,0,0,0,0-.07.23.23,0,0,0-.2-.06.49.49,0,0,0-.25.1l-.06.08A.19.19,0,0,0,53.24,48Z"/><path class="cls-1" d="M38.1,43.05l-.14,0a.47.47,0,0,1-.16,0l.09-.13a.28.28,0,0,0,.22,0,.88.88,0,0,0,.24-.26L38.8,42l.11-.17c.08-.12.16-.16.25-.13l.12,0s0,0,0,0l-.09.12,0,.06-.63.76a1.76,1.76,0,0,1,.45-.29.44.44,0,0,1,.33,0,.15.15,0,0,1,.1.07.11.11,0,0,1,0,.11,1.31,1.31,0,0,1-.24.34l0,.06a.76.76,0,0,0-.08.11l0,.07a.08.08,0,0,0,0,.07l.13.06-.09.13h0a.69.69,0,0,1-.26-.13.16.16,0,0,1-.05-.17A.59.59,0,0,1,38.8,43l.18-.21h0a1.18,1.18,0,0,0,.11-.13,0,0,0,0,0,0,0l0,0a.46.46,0,0,0-.27.1,1.7,1.7,0,0,0-.36.31l-.08.1a.22.22,0,0,1-.23.07l-.06,0s0,0,0,0v0Z"/><path class="cls-1" d="M39.55,43.48a1,1,0,0,1-.25,0l-.24,0,.09-.13.16,0h.14a.22.22,0,0,1,0-.14.5.5,0,0,1,0-.16.55.55,0,0,1,.28-.32.52.52,0,0,1,.42,0,.26.26,0,0,1,.17.13.2.2,0,0,1,0,.2.48.48,0,0,1-.19.25,1.27,1.27,0,0,1-.35.17.24.24,0,0,0,.08.09.46.46,0,0,0,.14.07h0l-.09.13h0a.9.9,0,0,1-.22-.1A.47.47,0,0,1,39.55,43.48Zm.19-.18a.61.61,0,0,0,.27-.13.4.4,0,0,0,.15-.18.11.11,0,0,0,0-.08.09.09,0,0,0-.06,0,.21.21,0,0,0-.21,0,.41.41,0,0,0-.15.21.44.44,0,0,0,0,.1A.24.24,0,0,0,39.74,43.3Z"/><path class="cls-1" d="M39.93,43.72l.1-.12a.31.31,0,0,0,.14,0,.74.74,0,0,0,.18,0c.09-.15.18-.3.29-.45a4.7,4.7,0,0,1,.34-.44,1,1,0,0,1,.24-.23.21.21,0,0,1,.18,0s.07,0,.08.08a.13.13,0,0,1,0,.12.54.54,0,0,1-.14.19,1.5,1.5,0,0,1-.28.18,5.06,5.06,0,0,0-.31.43,2.31,2.31,0,0,0-.16.26.17.17,0,0,0,0,.1l.09.06-.09.12h0a.56.56,0,0,1-.19-.1.24.24,0,0,1,0-.14.71.71,0,0,1-.2,0A.63.63,0,0,1,39.93,43.72Z"/><path class="cls-1" d="M40.57,44l.1-.12.14,0,.19,0c.09-.15.18-.3.29-.45s.23-.29.35-.43a1,1,0,0,1,.25-.22.2.2,0,0,1,.18,0,.11.11,0,0,1,.08.08s0,.07,0,.12a.54.54,0,0,1-.15.18,2.27,2.27,0,0,1-.28.18c-.12.15-.23.28-.32.41a1.92,1.92,0,0,0-.17.27.14.14,0,0,0,0,.09.2.2,0,0,0,.09.06l-.09.13h0a.63.63,0,0,1-.19-.11A.24.24,0,0,1,41,44a.63.63,0,0,1-.19,0A.69.69,0,0,1,40.57,44Z"/><path class="cls-1" d="M42.4,43.94a.12.12,0,0,1-.07-.07.14.14,0,0,1,0-.09.19.19,0,0,1,.1-.1.15.15,0,0,1,.13,0,.17.17,0,0,1,.1.1.31.31,0,0,1,0,.18.65.65,0,0,1-.15.23,1,1,0,0,1-.22.18.73.73,0,0,1-.25.1.45.45,0,0,1-.23,0,.74.74,0,0,1-.13-.08.25.25,0,0,1-.08-.1l-.17,0a.77.77,0,0,1-.19-.05l.11-.12.11,0h.11a.22.22,0,0,1,0-.08.24.24,0,0,1,0-.08.8.8,0,0,1,.15-.21.78.78,0,0,1,.24-.16.84.84,0,0,1,.24-.06.48.48,0,0,1,.22,0l0,0s0,0,0,0a.1.1,0,0,1-.08,0l-.12.05a1,1,0,0,0-.29.19.6.6,0,0,0-.17.23.12.12,0,0,0,0,.1.09.09,0,0,0,.06.06.33.33,0,0,0,.29,0A.7.7,0,0,0,42.4,43.94Z"/><path class="cls-1" d="M42.82,44.86l.11-.11a.25.25,0,0,0,.24,0,.87.87,0,0,0,.3-.22l.18-.2q.15-.16.24-.12l.12.07s0,0,0,0l-.16.14c-.09.08-.19.15-.27.23a2.63,2.63,0,0,1,.5-.22.4.4,0,0,1,.29,0,.19.19,0,0,1,.09.09.14.14,0,0,1,0,.11s0,.06-.1.1a1.31,1.31,0,0,1-.23.18,3,3,0,0,1,.52-.22.51.51,0,0,1,.28,0,.24.24,0,0,1,.1.1A.13.13,0,0,1,45,45a1.9,1.9,0,0,1-.34.31l0,0-.1.09a.12.12,0,0,0,0,.06.06.06,0,0,0,0,.07l.11.08-.11.11h0a.69.69,0,0,1-.25-.19.17.17,0,0,1,0-.18,1.54,1.54,0,0,1,.22-.21l.09-.07.12-.1,0,0s0,0,0,0,0,0,0,0a.48.48,0,0,0-.26.06,2.25,2.25,0,0,0-.43.23l-.13.1a.15.15,0,0,1-.18,0l-.11-.06s0,0,0,0a.36.36,0,0,1,.11-.1l.18-.14.24-.2a.23.23,0,0,0,.07-.08,0,0,0,0,0,0,0l0,0s-.13,0-.27.05a2.82,2.82,0,0,0-.38.21l-.15.12-.09.07h-.05l-.1,0,0,0a.08.08,0,0,1,0,0l0-.05H43A.49.49,0,0,1,42.82,44.86Z"/><path class="cls-1" d="M44.86,45.83l-.19,0-.16-.06.11-.11.13.06.14,0a1.19,1.19,0,0,1,.15-.18l.23-.2.24-.16a.15.15,0,0,1,.11,0,.35.35,0,0,1,.11.09.08.08,0,0,1,0,.08l-.11.08-.15.1-.2.15a.6.6,0,0,0-.11.12s0,0,0,.07,0,0,0,0a.33.33,0,0,0,.24,0,1.44,1.44,0,0,0,.36-.17,1.27,1.27,0,0,0,.2-.16q.12-.11.18-.06a.21.21,0,0,1,.1.08s0,.06,0,.08,0,0-.06.06l-.07,0-.59.46.21.09h0l-.12.1-.16-.07-.1,0a1.39,1.39,0,0,1-.36.24.28.28,0,0,1-.27,0,.12.12,0,0,1-.07-.07.14.14,0,0,1,0-.09.35.35,0,0,1,.18-.13.56.56,0,0,1,.29,0l.23-.17.2-.15a1.19,1.19,0,0,1-.38.14A.49.49,0,0,1,45,46a.2.2,0,0,1-.08-.08A.22.22,0,0,1,44.86,45.83Z"/><path class="cls-1" d="M46.51,46.84h-.14l-.15-.07.12-.1a.29.29,0,0,0,.24,0,.91.91,0,0,0,.33-.18l.22-.17c.1-.1.19-.12.24-.08l.11.09s0,0,0,0a.92.92,0,0,1-.17.11l-.3.19a1.86,1.86,0,0,1,.52-.13.51.51,0,0,1,.33.08.17.17,0,0,1,.07.1.13.13,0,0,1,0,.11,1.17,1.17,0,0,1-.34.23l-.07,0-.11.08-.06.05a.06.06,0,0,0,0,.07l.1.1-.13.09h0a.6.6,0,0,1-.21-.22.15.15,0,0,1,0-.17.44.44,0,0,1,.12-.1l.23-.14,0,0a.54.54,0,0,0,.14-.08,0,0,0,0,0,0,0l0,0s-.13,0-.28,0a1.66,1.66,0,0,0-.45.17l-.11.07a.18.18,0,0,1-.23,0l-.06,0s0,0,0,0,0,0,0,0Z"/><path class="cls-1" d="M48.34,47.85a1,1,0,0,1-.39.08.53.53,0,0,1-.28-.1l-.08-.09a.16.16,0,0,1,0-.09l-.14-.06-.15-.1.13-.08a.6.6,0,0,0,.11.06l.09,0,0,0,0,0a.53.53,0,0,1,.16-.13,1.57,1.57,0,0,1,.23-.09.93.93,0,0,1,.37,0,.64.64,0,0,1,.29.13.28.28,0,0,1,.09.1.34.34,0,0,1,0,.12l0,0,.07,0,0,0a.35.35,0,0,1,.1.11.1.1,0,0,1,0,.09l-.11,0a.75.75,0,0,0-.18.08,2.4,2.4,0,0,0-.28.14.49.49,0,0,0-.15.12,0,0,0,0,0,0,.06s0,.06.09.11l-.13.09,0,0a.67.67,0,0,1-.19-.2.12.12,0,0,1,0-.14l.07-.07Zm.37-.25,0-.06,0,0a.3.3,0,0,0-.16-.06h-.24a1.29,1.29,0,0,0-.21.07.37.37,0,0,0-.15.11.13.13,0,0,0,0,.07.06.06,0,0,0,0,.06.34.34,0,0,0,.3,0A2.53,2.53,0,0,0,48.71,47.6Z"/><path class="cls-1" d="M48.32,48.31l.14-.08a.27.27,0,0,0,.23.08,1.18,1.18,0,0,0,.35-.13l.23-.14c.13-.08.22-.1.27,0l.09.11s0,0,0,0l-.18.09a2.52,2.52,0,0,0-.33.14,2.64,2.64,0,0,1,.54-.07.45.45,0,0,1,.28.1.24.24,0,0,1,.06.11.14.14,0,0,1,0,.1.5.5,0,0,1-.13.07l-.27.11a3.53,3.53,0,0,1,.56-.07.41.41,0,0,1,.26.1.33.33,0,0,1,.07.13.12.12,0,0,1,0,.11,1.45,1.45,0,0,1-.41.2l0,0-.12.05-.07,0a.06.06,0,0,0,0,.07l.08.11-.14.07h0a.85.85,0,0,1-.19-.24.17.17,0,0,1,0-.18,1.19,1.19,0,0,1,.27-.14l.1,0,.15-.06,0,0a0,0,0,0,0,0,0v0s-.11,0-.26,0a2.16,2.16,0,0,0-.48.1l-.15.05A.17.17,0,0,1,49,49L49,48.9s0,0,0,0l.14-.06.21-.08.29-.12.09-.06a0,0,0,0,0,0,0,.08.08,0,0,0,0,0,.52.52,0,0,0-.26,0,1.57,1.57,0,0,0-.43.09l-.18.07-.1,0-.05,0a.23.23,0,0,1-.08-.07l0,0a0,0,0,0,1,0,0l.06,0h0a.35.35,0,0,1-.14,0A.55.55,0,0,1,48.32,48.31Z"/><path class="cls-1" d="M50.09,49.91a1.55,1.55,0,0,1-.22-.12l-.18-.16.14-.06.12.1.13.08a.24.24,0,0,1,.05-.14.58.58,0,0,1,.11-.13.56.56,0,0,1,.78.06.27.27,0,0,1,.08.2.26.26,0,0,1-.09.18.65.65,0,0,1-.29.11.87.87,0,0,1-.39,0,.51.51,0,0,0,0,.13.47.47,0,0,0,.09.12h0l-.14.07,0,0a1.21,1.21,0,0,1-.14-.2A.41.41,0,0,1,50.09,49.91Zm.26-.06a.7.7,0,0,0,.29,0,.44.44,0,0,0,.23-.09.21.21,0,0,0,0-.06.1.1,0,0,0,0-.08.21.21,0,0,0-.2-.06.52.52,0,0,0-.24.11l-.06.07A.24.24,0,0,0,50.35,49.85Z"/><path class="cls-1" d="M34.29,45a.32.32,0,0,1-.14,0A.5.5,0,0,1,34,45l.09-.13a.27.27,0,0,0,.23,0,.82.82,0,0,0,.24-.25l.45-.62.11-.17c.07-.12.16-.17.25-.14l.12,0a0,0,0,0,1,0,0s0,.06-.08.12l0,0-.64.77a2.89,2.89,0,0,1,.45-.3.52.52,0,0,1,.34,0,.13.13,0,0,1,.1.07.13.13,0,0,1,0,.11,1.37,1.37,0,0,1-.25.34l0,.06a.35.35,0,0,0-.08.1l0,.08a.07.07,0,0,0,0,.06.31.31,0,0,0,.13.06l-.09.13h0a.56.56,0,0,1-.27-.13.15.15,0,0,1,0-.17.57.57,0,0,1,.07-.13,1.45,1.45,0,0,1,.18-.21v0c.07-.07.1-.11.1-.13a0,0,0,0,0,0,0h0s-.13,0-.26.09a1.8,1.8,0,0,0-.37.32l-.08.1a.18.18,0,0,1-.22.06l-.07,0s0,0,0,0,0,0,0,0Z"/><path class="cls-1" d="M35.73,45.39h-.25l-.23,0,.09-.13.15,0h.15a.35.35,0,0,1,0-.14.59.59,0,0,1,0-.17.5.5,0,0,1,.28-.31.52.52,0,0,1,.42,0,.26.26,0,0,1,.17.13.23.23,0,0,1,0,.2.57.57,0,0,1-.19.24,1,1,0,0,1-.36.18s.05.07.09.09a.39.39,0,0,0,.13.06h0l-.09.13h0a.9.9,0,0,1-.22-.11A.47.47,0,0,1,35.73,45.39Zm.2-.18a.91.91,0,0,0,.26-.13.37.37,0,0,0,.16-.18.11.11,0,0,0,0-.08.13.13,0,0,0-.07,0,.2.2,0,0,0-.2,0,.49.49,0,0,0-.16.21.31.31,0,0,0,0,.09A.15.15,0,0,0,35.93,45.21Z"/><path class="cls-1" d="M36.12,45.63l.09-.13a.32.32,0,0,0,.14,0,.77.77,0,0,0,.19-.05,4.82,4.82,0,0,1,.29-.45,3.46,3.46,0,0,1,.34-.44,1.57,1.57,0,0,1,.24-.23.23.23,0,0,1,.18,0s.06,0,.08.08a.24.24,0,0,1,0,.12.54.54,0,0,1-.15.18,1.17,1.17,0,0,1-.27.19c-.12.15-.23.29-.32.42a1.34,1.34,0,0,0-.15.27s0,.07,0,.09,0,0,.09.06l-.09.13h0a.48.48,0,0,1-.19-.11.14.14,0,0,1-.05-.13l-.2,0A.63.63,0,0,1,36.12,45.63Z"/><path class="cls-1" d="M36.76,45.86l.1-.13a.22.22,0,0,0,.14,0,.54.54,0,0,0,.19,0,3.7,3.7,0,0,1,.29-.44c.11-.15.23-.3.35-.44a1.38,1.38,0,0,1,.25-.22.23.23,0,0,1,.18,0s.07,0,.08.08a.17.17,0,0,1,0,.12.37.37,0,0,1-.14.18,1.12,1.12,0,0,1-.28.18c-.13.15-.23.29-.33.42a2.31,2.31,0,0,0-.16.26.11.11,0,0,0,.09.16l-.1.12h0A.48.48,0,0,1,37.2,46a.17.17,0,0,1-.05-.14.48.48,0,0,1-.2,0A.63.63,0,0,1,36.76,45.86Z"/><path class="cls-1" d="M38.59,45.85a.15.15,0,0,1-.07-.07.17.17,0,0,1,0-.1.19.19,0,0,1,.1-.1.15.15,0,0,1,.13,0,.14.14,0,0,1,.09.11.21.21,0,0,1,0,.17.83.83,0,0,1-.15.23,1,1,0,0,1-.22.19.69.69,0,0,1-.25.09.45.45,0,0,1-.23,0,.32.32,0,0,1-.13-.08.25.25,0,0,1-.08-.1.55.55,0,0,1-.18,0l-.18,0,.11-.12.11,0h.1s0-.06,0-.08l0-.09a.69.69,0,0,1,.15-.21.83.83,0,0,1,.23-.15.54.54,0,0,1,.25-.06.51.51,0,0,1,.22,0s0,0,0,0a0,0,0,0,1,0,0s0,0-.09,0l-.12,0a1.24,1.24,0,0,0-.29.2A.69.69,0,0,0,38,46a.18.18,0,0,0,0,.1.12.12,0,0,0,.07.07.34.34,0,0,0,.29-.06A.67.67,0,0,0,38.59,45.85Z"/><path class="cls-1" d="M39,46.77l.12-.12a.28.28,0,0,0,.24,0,1.19,1.19,0,0,0,.3-.23l.18-.2c.09-.11.17-.15.24-.11l.12.07a.06.06,0,0,1,0,.05,1.18,1.18,0,0,1-.16.13l-.27.24a2.11,2.11,0,0,1,.5-.22.4.4,0,0,1,.29,0,.2.2,0,0,1,.09.09.14.14,0,0,1,0,.11l-.1.1-.23.18a2.16,2.16,0,0,1,.52-.22.35.35,0,0,1,.27,0,.22.22,0,0,1,.11.1.11.11,0,0,1,0,.12,1.26,1.26,0,0,1-.33.3l0,0-.09.09-.06.07a.06.06,0,0,0,0,.07l.11.08-.11.11h0a.59.59,0,0,1-.25-.18.15.15,0,0,1,0-.18,1.11,1.11,0,0,1,.22-.21l.09-.07.12-.1,0,0v0l0,0s-.11,0-.26.06a1.75,1.75,0,0,0-.42.23l-.13.09a.16.16,0,0,1-.18,0l-.11-.07s0,0,0,0l.11-.09.18-.14.24-.2.07-.08v0s0,0,0,0-.12,0-.26,0a1.41,1.41,0,0,0-.38.21l-.15.12-.09.06h-.05l-.1,0a.15.15,0,0,1-.06,0s0,0,0,0l0,0h0a.38.38,0,0,1-.15,0A.53.53,0,0,1,39,46.77Z"/><path class="cls-1" d="M41.05,47.74l-.19,0-.17-.07.12-.1.13,0,.14,0a1.19,1.19,0,0,1,.15-.18l.23-.2.24-.16a.09.09,0,0,1,.1,0,.31.31,0,0,1,.12.09.08.08,0,0,1,0,.08l-.11.07-.16.1a2,2,0,0,0-.2.16.53.53,0,0,0-.1.12.11.11,0,0,0,0,.07s0,0,0,0a.32.32,0,0,0,.24,0,1.16,1.16,0,0,0,.36-.17l.2-.15c.08-.07.14-.09.18-.07l.1.09a.08.08,0,0,1,0,.08l-.07,0-.06.05-.6.45.22.1h0l-.12.1-.16-.07-.1,0a1.14,1.14,0,0,1-.37.25.29.29,0,0,1-.26,0,.13.13,0,0,1-.07-.08.1.1,0,0,1,0-.09.35.35,0,0,1,.18-.13.9.9,0,0,1,.29,0L41.6,48a1.92,1.92,0,0,0,.21-.16,1.05,1.05,0,0,1-.38.14.35.35,0,0,1-.27-.05.18.18,0,0,1-.09-.08A.1.1,0,0,1,41.05,47.74Z"/><path class="cls-1" d="M42.7,48.74a.38.38,0,0,1-.15,0,.51.51,0,0,1-.15-.07l.13-.09a.29.29,0,0,0,.24,0,1.39,1.39,0,0,0,.33-.18l.21-.18c.11-.09.19-.12.25-.07l.11.08a.07.07,0,0,1,0,.06l-.17.11-.31.19a2,2,0,0,1,.53-.13.46.46,0,0,1,.32.07.24.24,0,0,1,.08.1.11.11,0,0,1,0,.11,1.58,1.58,0,0,1-.34.24l-.07,0-.11.07-.06.06a.06.06,0,0,0,0,.07.3.3,0,0,0,.1.09l-.13.1,0,0a.68.68,0,0,1-.21-.21.17.17,0,0,1,0-.18.76.76,0,0,1,.12-.1l.23-.14h0c.09-.05.13-.07.14-.09a0,0,0,0,0,0,0l0,0s-.13,0-.28,0a1.41,1.41,0,0,0-.45.18l-.11.06a.2.2,0,0,1-.24,0l0,0s0,0,0,0l0,0Z"/><path class="cls-1" d="M44.53,49.76a1.07,1.07,0,0,1-.39.07.4.4,0,0,1-.28-.1.18.18,0,0,1-.08-.09.16.16,0,0,1,0-.09l-.14,0a.65.65,0,0,1-.15-.1l.13-.09.1.07.1,0,0,0,0,0A.43.43,0,0,1,44,49.2a.79.79,0,0,1,.23-.09.89.89,0,0,1,.36,0,.59.59,0,0,1,.29.13l.1.1a.5.5,0,0,1,0,.13l0,0,.06,0,0,0a.47.47,0,0,1,.09.12s0,.07,0,.08,0,0-.1,0l-.19.08a1.63,1.63,0,0,0-.27.15.73.73,0,0,0-.15.11.11.11,0,0,0,0,.07.53.53,0,0,0,.09.11l-.13.08h0a.82.82,0,0,1-.19-.2.14.14,0,0,1,0-.15l.07-.06Zm.36-.25a.14.14,0,0,0,0-.07l0,0a.34.34,0,0,0-.16-.06.66.66,0,0,0-.24,0,.65.65,0,0,0-.36.17.2.2,0,0,0,0,.08.07.07,0,0,0,0,.06.39.39,0,0,0,.3,0A1.94,1.94,0,0,0,44.89,49.51Z"/><path class="cls-1" d="M44.51,50.22l.14-.08a.27.27,0,0,0,.23.07,1,1,0,0,0,.35-.13,1.58,1.58,0,0,0,.23-.14c.13-.08.21-.09.26,0a.91.91,0,0,1,.1.1s0,0,0,.06l-.19.08-.32.15a2.64,2.64,0,0,1,.54-.07.41.41,0,0,1,.27.09.15.15,0,0,1,.06.11.1.1,0,0,1,0,.1.31.31,0,0,1-.12.08l-.27.1a2.37,2.37,0,0,1,.56-.06.43.43,0,0,1,.26.1.24.24,0,0,1,.07.13.15.15,0,0,1,0,.11,1.83,1.83,0,0,1-.41.2h0l-.12.06-.07,0a0,0,0,0,0,0,.06.23.23,0,0,0,.08.11l-.14.08h0a.86.86,0,0,1-.19-.25.15.15,0,0,1,0-.17A.73.73,0,0,1,46,51l.1,0,.15-.07,0,0v0a0,0,0,0,0,0,0,.5.5,0,0,0-.27,0,2,2,0,0,0-.47.09l-.16.06a.14.14,0,0,1-.17,0l-.09-.09a0,0,0,0,1,0-.05l.14-.06.21-.09.29-.12.09-.06v0l0,0s-.12,0-.26,0a1.58,1.58,0,0,0-.43.1L45,50.5l-.1,0h0l-.08-.07a.23.23,0,0,1,0-.05s0,0,0,0l.06,0h0a.35.35,0,0,1-.14,0A.55.55,0,0,1,44.51,50.22Z"/><path class="cls-1" d="M46.28,51.82l-.22-.13a.69.69,0,0,1-.18-.16l.14-.06a.53.53,0,0,0,.12.1l.12.08a.5.5,0,0,1,.05-.13.69.69,0,0,1,.11-.13.54.54,0,0,1,.4-.13.55.55,0,0,1,.39.18.34.34,0,0,1,.08.2.23.23,0,0,1-.09.18.48.48,0,0,1-.29.11,1.09,1.09,0,0,1-.4,0,.27.27,0,0,0,0,.12.77.77,0,0,0,.09.13h0l-.15.06,0,0a1.05,1.05,0,0,1-.14-.2A.45.45,0,0,1,46.28,51.82Zm.26-.06a.57.57,0,0,0,.29,0,.44.44,0,0,0,.23-.08.09.09,0,0,0,0-.07.11.11,0,0,0,0-.07.21.21,0,0,0-.2-.06.38.38,0,0,0-.24.11.13.13,0,0,0-.06.07A.19.19,0,0,0,46.54,51.76Z"/><path class="cls-1" d="M30.35,47.32a.32.32,0,0,1-.14,0,.45.45,0,0,1-.16,0l.09-.13a.25.25,0,0,0,.22,0,.82.82,0,0,0,.24-.25l.45-.62.11-.17c.08-.12.16-.17.25-.14a.35.35,0,0,1,.12,0,.05.05,0,0,1,0,.05l-.09.12s0,0,0,0l-.63.77a2.18,2.18,0,0,1,.45-.3.48.48,0,0,1,.33,0,.13.13,0,0,1,.1.07.1.1,0,0,1,0,.11,1.51,1.51,0,0,1-.24.34l-.05.06-.08.1s0,.06,0,.08a.07.07,0,0,0,0,.06.31.31,0,0,0,.13.06l-.09.13h0a.57.57,0,0,1-.26-.13A.15.15,0,0,1,31,47.4a.57.57,0,0,1,.07-.13,2.59,2.59,0,0,1,.18-.21v0a.64.64,0,0,0,.11-.13,0,0,0,0,0,0,0h0q-.08,0-.27.09a1.76,1.76,0,0,0-.36.32.44.44,0,0,0-.08.1.2.2,0,0,1-.23.06l-.06,0s0,0,0,0a0,0,0,0,1,0,0Z"/><path class="cls-1" d="M31.8,47.75h-.25l-.24,0,.09-.13.16,0h.14a.23.23,0,0,1,0-.14.55.55,0,0,1,0-.17A.53.53,0,0,1,32,47a.52.52,0,0,1,.42,0,.24.24,0,0,1,.17.13.2.2,0,0,1,0,.2.5.5,0,0,1-.19.24,1.06,1.06,0,0,1-.35.18l.08.09a.45.45,0,0,0,.14.06h0l-.09.13h0a.9.9,0,0,1-.22-.11A.44.44,0,0,1,31.8,47.75Zm.19-.19a.72.72,0,0,0,.27-.12.37.37,0,0,0,.15-.19.08.08,0,0,0,0-.07.1.1,0,0,0-.06,0,.21.21,0,0,0-.21,0,.41.41,0,0,0-.15.21.37.37,0,0,0,0,.09A.19.19,0,0,0,32,47.56Z"/><path class="cls-1" d="M32.18,48l.1-.13a.3.3,0,0,0,.14,0,.83.83,0,0,0,.18-.05c.09-.15.18-.3.29-.45a4.7,4.7,0,0,1,.34-.44,1.19,1.19,0,0,1,.24-.23.24.24,0,0,1,.18,0,.11.11,0,0,1,.08.08.13.13,0,0,1,0,.12.63.63,0,0,1-.14.18,1.52,1.52,0,0,1-.28.19c-.12.15-.22.29-.31.42a1.59,1.59,0,0,0-.16.27.14.14,0,0,0,0,.09.15.15,0,0,0,.09.06l-.09.13h0a.56.56,0,0,1-.19-.11.21.21,0,0,1,0-.13.69.69,0,0,1-.2,0A.41.41,0,0,1,32.18,48Z"/><path class="cls-1" d="M32.82,48.22l.1-.13a.22.22,0,0,0,.14,0,.81.81,0,0,0,.19,0c.09-.15.18-.29.29-.44s.23-.3.35-.44a1.32,1.32,0,0,1,.25-.22.24.24,0,0,1,.18,0s.07,0,.08.08a.17.17,0,0,1,0,.12.4.4,0,0,1-.15.18,1.12,1.12,0,0,1-.28.18c-.12.15-.23.29-.32.42l-.17.26a.14.14,0,0,0,0,.09.22.22,0,0,0,.09.07l-.09.12h0a.48.48,0,0,1-.19-.11.24.24,0,0,1,0-.14.43.43,0,0,1-.19,0A.69.69,0,0,1,32.82,48.22Z"/><path class="cls-1" d="M34.65,48.21a.15.15,0,0,1-.07-.07.17.17,0,0,1,0-.1.19.19,0,0,1,.1-.1.15.15,0,0,1,.13,0,.18.18,0,0,1,.1.11.28.28,0,0,1,0,.17.65.65,0,0,1-.15.23.79.79,0,0,1-.22.19.69.69,0,0,1-.25.09.45.45,0,0,1-.23,0,.41.41,0,0,1-.13-.08.25.25,0,0,1-.08-.1h-.17l-.19,0,.11-.12.11,0h.11a.19.19,0,0,1,0-.08.29.29,0,0,1,0-.09A1.37,1.37,0,0,1,34,48a.78.78,0,0,1,.24-.16.6.6,0,0,1,.24-.05.49.49,0,0,1,.22,0l0,0s0,0,0,0a.21.21,0,0,1-.08,0l-.12,0a1.06,1.06,0,0,0-.29.2.57.57,0,0,0-.17.22.12.12,0,0,0,0,.1.13.13,0,0,0,.06.07.34.34,0,0,0,.29-.06A.73.73,0,0,0,34.65,48.21Z"/><path class="cls-1" d="M35.07,49.13l.11-.12a.29.29,0,0,0,.24,0,.92.92,0,0,0,.3-.23l.18-.2q.15-.17.24-.12l.12.08s0,0,0,.05l-.16.13-.27.24a2.11,2.11,0,0,1,.5-.22.4.4,0,0,1,.29,0,.18.18,0,0,1,.09.08.17.17,0,0,1,0,.12.45.45,0,0,1-.1.1l-.23.18a2.35,2.35,0,0,1,.52-.22.38.38,0,0,1,.28,0,.24.24,0,0,1,.1.1.13.13,0,0,1,0,.12,2,2,0,0,1-.34.3l0,0-.1.09s0,0,0,.07,0,0,0,.06a.59.59,0,0,0,.11.09l-.11.11h0a.59.59,0,0,1-.25-.18.17.17,0,0,1,0-.18,1.54,1.54,0,0,1,.22-.21l.09-.07.12-.1,0,0s0,0,0,0,0,0,0,0-.12,0-.26.06a1.8,1.8,0,0,0-.43.23l-.13.09a.16.16,0,0,1-.18,0l-.11-.07s0,0,0,0l.11-.09.18-.14.24-.2.07-.08a0,0,0,0,0,0,0,0,0,0,0,0,0,0s-.13,0-.27,0a1.58,1.58,0,0,0-.38.21.79.79,0,0,0-.15.12l-.09.06a0,0,0,0,1-.05,0l-.1,0,0,0a0,0,0,0,1,0,0,.23.23,0,0,1,0,0h0a.33.33,0,0,1-.14,0A.47.47,0,0,1,35.07,49.13Z"/><path class="cls-1" d="M37.11,50.1l-.19,0L36.76,50l.11-.1.13,0,.14,0a1.19,1.19,0,0,1,.15-.18l.23-.2.24-.16a.11.11,0,0,1,.11,0,.35.35,0,0,1,.11.09.06.06,0,0,1,0,.07s-.05,0-.11.08l-.15.1a.92.92,0,0,0-.2.16.6.6,0,0,0-.11.12s0,.05,0,.06a.05.05,0,0,0,0,0,.33.33,0,0,0,.24,0A1.16,1.16,0,0,0,38,50l.2-.15c.08-.07.14-.09.18-.07a.3.3,0,0,1,.1.09s0,.06,0,.08l-.06,0L38.4,50l-.59.45.21.1h0l-.12.11-.16-.07-.1,0a1.24,1.24,0,0,1-.36.25.31.31,0,0,1-.27,0,.13.13,0,0,1-.07-.08s0-.05,0-.09a.35.35,0,0,1,.18-.13.69.69,0,0,1,.29,0l.23-.16.2-.16a1,1,0,0,1-.38.14.36.36,0,0,1-.27,0,.16.16,0,0,1-.08-.08A.16.16,0,0,1,37.11,50.1Z"/><path class="cls-1" d="M38.76,51.1a.33.33,0,0,1-.14,0,.51.51,0,0,1-.15-.07l.12-.09a.33.33,0,0,0,.24,0,1.39,1.39,0,0,0,.33-.18l.22-.18c.1-.09.19-.12.24-.07a.38.38,0,0,1,.11.08,0,0,0,0,1,0,.06l-.17.11a2.2,2.2,0,0,0-.3.19,1.57,1.57,0,0,1,.52-.13.51.51,0,0,1,.33.07.2.2,0,0,1,.07.1.11.11,0,0,1,0,.11,1.33,1.33,0,0,1-.34.24l-.07,0-.11.07-.06.06a.06.06,0,0,0,0,.07.48.48,0,0,0,.1.09l-.13.1,0,0a.68.68,0,0,1-.21-.21.17.17,0,0,1,0-.18.44.44,0,0,1,.12-.1l.23-.14h0c.09,0,.13-.07.14-.09a0,0,0,0,0,0,0l0,0s-.13,0-.28,0a1.41,1.41,0,0,0-.45.18l-.11.06a.18.18,0,0,1-.23,0l-.06,0a0,0,0,0,1,0,0l0,0Z"/><path class="cls-1" d="M40.59,52.12a1,1,0,0,1-.39.07.4.4,0,0,1-.28-.1L39.84,52a.16.16,0,0,1,0-.09l-.14,0-.15-.1.13-.09.11.07.09,0,0,0,0,0a.53.53,0,0,1,.16-.13.92.92,0,0,1,.23-.09.94.94,0,0,1,.37,0,.64.64,0,0,1,.29.13.41.41,0,0,1,.09.1.5.5,0,0,1,0,.13l0,0,.07,0,0,0a.53.53,0,0,1,.1.12s0,.07,0,.08a.27.27,0,0,1-.11.05l-.18.08a1.41,1.41,0,0,0-.28.15.73.73,0,0,0-.15.11.06.06,0,0,0,0,.07s0,.06.09.11l-.13.08h0a.82.82,0,0,1-.19-.2.14.14,0,0,1,0-.15l.07-.06Zm.37-.25,0-.07,0,0a.3.3,0,0,0-.16-.06.66.66,0,0,0-.24,0,.52.52,0,0,0-.21.07.36.36,0,0,0-.15.1.16.16,0,0,0,0,.08.09.09,0,0,0,0,.06.39.39,0,0,0,.3,0A2,2,0,0,0,41,51.87Z"/><path class="cls-1" d="M40.57,52.57l.14-.07a.27.27,0,0,0,.23.07,1,1,0,0,0,.35-.13,1.18,1.18,0,0,0,.23-.14c.13-.08.22-.09.27,0l.09.1s0,0,0,.06l-.18.08-.33.15a2.08,2.08,0,0,1,.54-.07.44.44,0,0,1,.28.09.3.3,0,0,1,.06.11.13.13,0,0,1,0,.1.49.49,0,0,1-.13.08l-.27.1a2.41,2.41,0,0,1,.56-.06.41.41,0,0,1,.26.1.25.25,0,0,1,.07.12.14.14,0,0,1,0,.12,1.57,1.57,0,0,1-.41.19l0,0-.12.06s-.06,0-.07,0a0,0,0,0,0,0,.06.48.48,0,0,0,.08.11l-.14.08h0a.86.86,0,0,1-.19-.25.17.17,0,0,1,0-.18,1.19,1.19,0,0,1,.27-.14l.1,0,.15-.06,0,0v0a0,0,0,0,0,0,0,.5.5,0,0,0-.26,0,2.94,2.94,0,0,0-.48.1l-.15.06a.15.15,0,0,1-.18,0l-.08-.09s0,0,0-.05l.14-.06.21-.09.29-.12.09-.06a0,0,0,0,0,0,0l0,0s-.11,0-.26,0a1.57,1.57,0,0,0-.43.09l-.18.07-.1,0H40.9l-.08-.07,0,0s0,0,0,0l.06,0h0l-.14,0A.37.37,0,0,1,40.57,52.57Z"/><path class="cls-1" d="M42.34,54.18l-.22-.13a1.29,1.29,0,0,1-.18-.16l.14-.06a.53.53,0,0,0,.12.1.57.57,0,0,0,.13.08.21.21,0,0,1,.05-.13.33.33,0,0,1,.11-.13.51.51,0,0,1,.4-.13.55.55,0,0,1,.38.18.29.29,0,0,1,.08.2.23.23,0,0,1-.09.18.48.48,0,0,1-.29.11,1,1,0,0,1-.39,0,.5.5,0,0,0,0,.12.77.77,0,0,0,.09.13h0l-.14.06,0,0a1.86,1.86,0,0,1-.14-.2A.49.49,0,0,1,42.34,54.18Zm.26-.06a.57.57,0,0,0,.29,0,.44.44,0,0,0,.23-.08.16.16,0,0,0,0-.07.09.09,0,0,0,0-.07.21.21,0,0,0-.2-.06.5.5,0,0,0-.24.1l-.06.08A.19.19,0,0,0,42.6,54.12Z"/><path class="cls-1" d="M27.28,49.47a.33.33,0,0,1-.14,0H27l.09-.14a.28.28,0,0,0,.22,0,1,1,0,0,0,.24-.25l.45-.63.11-.17c.08-.11.16-.16.25-.13a.35.35,0,0,1,.12.05.05.05,0,0,1,0,0l-.09.12,0,.06-.64.77a1.59,1.59,0,0,1,.45-.3.49.49,0,0,1,.33,0,.2.2,0,0,1,.1.07.14.14,0,0,1,0,.11,2.26,2.26,0,0,1-.25.35l-.05,0a.76.76,0,0,0-.08.11l0,.07a.06.06,0,0,0,0,.07l.12.06-.09.13h0a.67.67,0,0,1-.27-.13.16.16,0,0,1-.05-.17.32.32,0,0,1,.08-.13,1.91,1.91,0,0,1,.17-.22h0l.1-.13a0,0,0,0,0,0,0l0,0a.42.42,0,0,0-.26.1,1.74,1.74,0,0,0-.37.31l-.08.1a.22.22,0,0,1-.23.07l-.06,0s0,0,0,0a0,0,0,0,1,0,0Z"/><path class="cls-1" d="M28.73,49.9h-.25a1,1,0,0,1-.24,0l.09-.13.16,0a.33.33,0,0,0,.14,0,.32.32,0,0,1,0-.14.5.5,0,0,1,0-.16.55.55,0,0,1,.28-.32.54.54,0,0,1,.43,0,.27.27,0,0,1,.16.13.22.22,0,0,1,0,.21.5.5,0,0,1-.19.24,1.27,1.27,0,0,1-.35.17.39.39,0,0,0,.08.1l.14.06h0l-.09.12h0a.9.9,0,0,1-.22-.1A.38.38,0,0,1,28.73,49.9Zm.19-.18a.66.66,0,0,0,.27-.12.48.48,0,0,0,.15-.19.11.11,0,0,0,0-.08.09.09,0,0,0-.06,0,.23.23,0,0,0-.21,0,.44.44,0,0,0-.15.22.29.29,0,0,0,0,.09A.24.24,0,0,0,28.92,49.72Z"/><path class="cls-1" d="M29.11,50.14l.1-.12a.31.31,0,0,0,.14,0,.93.93,0,0,0,.19,0,3.68,3.68,0,0,1,.28-.45c.11-.15.22-.3.34-.44a1,1,0,0,1,.24-.23.2.2,0,0,1,.18,0,.11.11,0,0,1,.08.07.13.13,0,0,1,0,.12.54.54,0,0,1-.14.19,2.26,2.26,0,0,1-.28.19c-.12.15-.22.29-.31.42a2.31,2.31,0,0,0-.16.26.17.17,0,0,0,0,.1l.1.06-.1.12h0a.7.7,0,0,1-.18-.11.2.2,0,0,1-.06-.14.45.45,0,0,1-.2,0A.63.63,0,0,1,29.11,50.14Z"/><path class="cls-1" d="M29.76,50.37l.09-.12a.32.32,0,0,0,.14,0l.19,0q.13-.23.3-.45a4.7,4.7,0,0,1,.35-.43.9.9,0,0,1,.25-.22.19.19,0,0,1,.18,0,.11.11,0,0,1,.07.08.13.13,0,0,1,0,.12.54.54,0,0,1-.15.18,2.27,2.27,0,0,1-.28.18l-.32.41a1.92,1.92,0,0,0-.17.27.14.14,0,0,0,0,.09.2.2,0,0,0,.1.07l-.1.12h0a.56.56,0,0,1-.18-.11.2.2,0,0,1-.06-.14.63.63,0,0,1-.19,0A.58.58,0,0,1,29.76,50.37Z"/><path class="cls-1" d="M31.58,50.37a.17.17,0,0,1-.07-.08.1.1,0,0,1,0-.09.18.18,0,0,1,.09-.1.17.17,0,0,1,.14,0,.18.18,0,0,1,.09.1.31.31,0,0,1,0,.18.65.65,0,0,1-.15.23,1,1,0,0,1-.22.18.57.57,0,0,1-.25.1.45.45,0,0,1-.23,0,.74.74,0,0,1-.13-.08.39.39,0,0,1-.08-.1h-.17l-.18-.06.1-.12.12,0h.1a.25.25,0,0,1,0-.08.31.31,0,0,1,0-.08.78.78,0,0,1,.16-.21.63.63,0,0,1,.23-.16.84.84,0,0,1,.24-.06.48.48,0,0,1,.22,0l0,0s0,0,0,0,0,0-.08,0l-.12.05a1,1,0,0,0-.29.19.6.6,0,0,0-.17.23.12.12,0,0,0,0,.1.09.09,0,0,0,.06.06.3.3,0,0,0,.29-.05A.66.66,0,0,0,31.58,50.37Z"/><path class="cls-1" d="M32,51.28l.11-.11a.26.26,0,0,0,.24,0,.87.87,0,0,0,.3-.22l.18-.2q.15-.16.24-.12l.12.07s0,0,0,0a.92.92,0,0,1-.16.14l-.27.23a3.5,3.5,0,0,1,.5-.22.46.46,0,0,1,.29,0,.19.19,0,0,1,.09.09.14.14,0,0,1,0,.11.35.35,0,0,1-.09.11l-.24.17a3.56,3.56,0,0,1,.53-.22.41.41,0,0,1,.27,0,.19.19,0,0,1,.1.1.11.11,0,0,1,0,.11,2.1,2.1,0,0,1-.33.31l0,0-.1.09,0,.06a.08.08,0,0,0,0,.07l.11.08-.11.11h0a.69.69,0,0,1-.25-.19.15.15,0,0,1,0-.17,1,1,0,0,1,.23-.22l.08-.06.12-.11,0,0a0,0,0,0,0,0,0l0,0a.63.63,0,0,0-.26.06,2.25,2.25,0,0,0-.43.23l-.13.1a.16.16,0,0,1-.18,0l-.11-.07s0,0,0-.05l.11-.1.18-.14.24-.2a.23.23,0,0,0,.07-.08,0,0,0,0,0,0,0l0,0s-.13,0-.26.05a2.42,2.42,0,0,0-.39.21l-.15.12-.09.07H32.4l-.1,0,0,0a.06.06,0,0,1,0,0l0,0h-.13A.49.49,0,0,1,32,51.28Z"/><path class="cls-1" d="M34,52.26l-.19,0a.76.76,0,0,1-.16-.06L33.8,52l.13.06.14,0a1.19,1.19,0,0,1,.15-.18l.23-.2.24-.16a.15.15,0,0,1,.11,0,.35.35,0,0,1,.11.09.08.08,0,0,1,0,.08.49.49,0,0,1-.11.08l-.15.1-.2.15-.11.13a.07.07,0,0,0,0,.06.05.05,0,0,0,0,.05.32.32,0,0,0,.24,0,1.39,1.39,0,0,0,.35-.17,1.27,1.27,0,0,0,.2-.16c.08-.06.14-.09.18-.06a.21.21,0,0,1,.1.08s0,.06,0,.08,0,0-.06.06l-.07,0-.59.45.21.09h0l-.12.11-.16-.08-.1,0a1.39,1.39,0,0,1-.36.24A.28.28,0,0,1,34,53a.12.12,0,0,1-.07-.07.1.1,0,0,1,0-.09.28.28,0,0,1,.18-.13.52.52,0,0,1,.28,0l.23-.16.2-.16a1.19,1.19,0,0,1-.38.14.41.41,0,0,1-.27,0,.2.2,0,0,1-.08-.08A.19.19,0,0,1,34,52.26Z"/><path class="cls-1" d="M35.69,53.26h-.14l-.15-.07.12-.1a.29.29,0,0,0,.24,0,.91.91,0,0,0,.33-.18,1.46,1.46,0,0,0,.22-.17c.1-.09.19-.12.24-.08l.11.09s0,0,0,0a.92.92,0,0,1-.17.11l-.3.19a1.86,1.86,0,0,1,.52-.13.49.49,0,0,1,.33.08.17.17,0,0,1,.07.1.15.15,0,0,1,0,.11,1.51,1.51,0,0,1-.35.23l-.07,0-.11.08-.06,0a.06.06,0,0,0,0,.07.91.91,0,0,0,.1.1l-.12.09h0a.68.68,0,0,1-.21-.21.17.17,0,0,1,0-.18s.05-.06.11-.1l.23-.14h0l.13-.09a0,0,0,0,0,0,0l0,0a.53.53,0,0,0-.28,0,1.94,1.94,0,0,0-.45.17l-.11.07a.18.18,0,0,1-.23,0s0,0,0,0a0,0,0,0,1,0,0l0,0Z"/><path class="cls-1" d="M37.52,54.27a1,1,0,0,1-.39.08.45.45,0,0,1-.28-.1l-.08-.09a.16.16,0,0,1,0-.09l-.14,0-.15-.11.13-.08a.3.3,0,0,0,.11.06l.09,0,0,0,0,0a.53.53,0,0,1,.16-.13l.23-.08a.78.78,0,0,1,.37,0,.59.59,0,0,1,.29.13.41.41,0,0,1,.09.1A.56.56,0,0,1,38,54l0,0,.06,0,0,0a.35.35,0,0,1,.1.11.1.1,0,0,1,0,.09l-.11,0a.75.75,0,0,0-.18.08l-.28.14-.15.12a.06.06,0,0,0,0,.07l.09.1-.13.09h0a1,1,0,0,1-.19-.2.16.16,0,0,1,0-.15l.07-.06Zm.37-.24,0-.07,0-.05a.38.38,0,0,0-.17-.06h-.23a1.14,1.14,0,0,0-.22.07.48.48,0,0,0-.15.11.13.13,0,0,0,0,.08.09.09,0,0,0,0,.06.4.4,0,0,0,.31,0A3,3,0,0,0,37.89,54Z"/><path class="cls-1" d="M37.5,54.73l.14-.07a.3.3,0,0,0,.23.07,1.06,1.06,0,0,0,.36-.13l.22-.14c.13-.08.22-.09.27-.05s.08.08.09.11,0,0,0,0l-.19.09a2.52,2.52,0,0,0-.33.14,2,2,0,0,1,.54-.06.38.38,0,0,1,.28.09.24.24,0,0,1,.06.11.13.13,0,0,1,0,.1.3.3,0,0,1-.13.07l-.27.11a3.49,3.49,0,0,1,.57-.07.41.41,0,0,1,.25.11.25.25,0,0,1,.07.12.12.12,0,0,1,0,.11,1.33,1.33,0,0,1-.4.2l0,0-.12,0-.07.05a.08.08,0,0,0,0,.07L39,56l-.14.07h0a.64.64,0,0,1-.18-.24.15.15,0,0,1,0-.18,1.36,1.36,0,0,1,.28-.14l.1,0,.14-.06,0,0a0,0,0,0,0,0,0v0s-.11,0-.26,0a2.29,2.29,0,0,0-.48.1.47.47,0,0,0-.15.06.17.17,0,0,1-.18,0l-.08-.1s0,0,0,0l.13-.06.21-.08.29-.12.09-.06a0,0,0,0,0,0,0s0,0,0,0-.11,0-.26,0a1.57,1.57,0,0,0-.43.09L38,55l-.1,0-.05,0L37.75,55s0,0,0-.06a0,0,0,0,1,0,0l.06,0h0l-.14,0Z"/><path class="cls-1" d="M39.27,56.33a.94.94,0,0,1-.22-.12l-.18-.16L39,56l.11.1.13.08a.34.34,0,0,1,.05-.14.58.58,0,0,1,.11-.13.56.56,0,0,1,.78.06.24.24,0,0,1,.08.2.26.26,0,0,1-.09.18.55.55,0,0,1-.29.11.88.88,0,0,1-.39,0,.28.28,0,0,0,0,.13.28.28,0,0,0,.08.12h0l-.14.07,0,0a.76.76,0,0,1-.13-.2A.42.42,0,0,1,39.27,56.33Zm.26-.06a.7.7,0,0,0,.29,0,.41.41,0,0,0,.23-.08l0-.07a.09.09,0,0,0,0-.07.24.24,0,0,0-.2-.07.44.44,0,0,0-.24.11l-.07.07A.24.24,0,0,0,39.53,56.27Z"/><path class="cls-1" d="M64.82,49a.37.37,0,0,1-.14,0,.52.52,0,0,1-.17,0l.09-.13a.28.28,0,0,0,.22,0,1,1,0,0,0,.25-.26l.44-.62a1.56,1.56,0,0,0,.12-.17c.07-.12.15-.16.24-.13a.39.39,0,0,1,.13,0s0,0,0,0a.58.58,0,0,1-.08.12l0,.06-.64.76a1.76,1.76,0,0,1,.45-.29.5.5,0,0,1,.33,0,.23.23,0,0,1,.11.07.14.14,0,0,1,0,.11,1.48,1.48,0,0,1-.25.34l-.05.06a.76.76,0,0,0-.08.11l0,.07a.06.06,0,0,0,0,.07l.12.06-.08.13h0a.67.67,0,0,1-.27-.13.16.16,0,0,1,0-.17.51.51,0,0,1,.08-.13l.17-.22h0a.7.7,0,0,0,.1-.13v0l0,0s-.13,0-.26.1a1.74,1.74,0,0,0-.37.31l-.08.1a.21.21,0,0,1-.23.07l-.06,0a0,0,0,0,1,0,0v0Z"/><path class="cls-1" d="M66.26,49.41a1,1,0,0,1-.25,0l-.24,0,.1-.13.15,0h.15a.32.32,0,0,1,0-.14.5.5,0,0,1,0-.16.55.55,0,0,1,.28-.32.54.54,0,0,1,.43,0,.29.29,0,0,1,.17.13.27.27,0,0,1,0,.2.54.54,0,0,1-.19.25,1.2,1.2,0,0,1-.36.17.2.2,0,0,0,.09.09.4.4,0,0,0,.13.07h0l-.1.12h0a1.12,1.12,0,0,1-.22-.1A.62.62,0,0,1,66.26,49.41Zm.19-.18a.57.57,0,0,0,.27-.13.4.4,0,0,0,.15-.18.08.08,0,0,0,0-.08.09.09,0,0,0-.06,0,.19.19,0,0,0-.2,0,.37.37,0,0,0-.16.22.29.29,0,0,0,0,.09S66.44,49.2,66.45,49.23Z"/><path class="cls-1" d="M66.65,49.65l.09-.12a.32.32,0,0,0,.14,0,.81.81,0,0,0,.19,0c.08-.15.18-.3.28-.45s.22-.3.34-.44a.82.82,0,0,1,.25-.23.17.17,0,0,1,.18,0,.14.14,0,0,1,.08.07.17.17,0,0,1,0,.12.37.37,0,0,1-.14.19,1.15,1.15,0,0,1-.27.18c-.12.15-.23.3-.32.43a2.31,2.31,0,0,0-.16.26.11.11,0,0,0,0,.1.17.17,0,0,0,.09.06l-.1.12h0a.48.48,0,0,1-.19-.1.16.16,0,0,1,0-.14.51.51,0,0,1-.2,0A.58.58,0,0,1,66.65,49.65Z"/><path class="cls-1" d="M67.29,49.88l.1-.12.14,0,.19,0a3.79,3.79,0,0,1,.29-.45c.11-.15.23-.29.35-.43a.9.9,0,0,1,.25-.22.19.19,0,0,1,.18,0s.06,0,.08.08a.17.17,0,0,1,0,.12.63.63,0,0,1-.14.18,2.27,2.27,0,0,1-.28.18,5,5,0,0,0-.33.41,1.59,1.59,0,0,0-.16.27A.07.07,0,0,0,68,50,.17.17,0,0,0,68,50l-.1.12h0a.7.7,0,0,1-.18-.11.16.16,0,0,1,0-.14.69.69,0,0,1-.2,0A.58.58,0,0,1,67.29,49.88Z"/><path class="cls-1" d="M69.11,49.88,69,49.8a.1.1,0,0,1,0-.09.18.18,0,0,1,.09-.1.17.17,0,0,1,.14,0,.15.15,0,0,1,.09.1.3.3,0,0,1,0,.18,1.14,1.14,0,0,1-.15.23,1.24,1.24,0,0,1-.22.18.61.61,0,0,1-.26.1.46.46,0,0,1-.23,0l-.13-.08a.23.23,0,0,1-.07-.1.55.55,0,0,1-.18,0,.61.61,0,0,1-.18-.05L68,50l.12,0h.1s0,0,0-.08l0-.08a.51.51,0,0,1,.15-.21.87.87,0,0,1,.23-.16,1.05,1.05,0,0,1,.24-.06.53.53,0,0,1,.23,0l0,0s0,0,0,0a.19.19,0,0,1-.09,0l-.12,0a1.21,1.21,0,0,0-.29.19.6.6,0,0,0-.17.23.18.18,0,0,0,0,.1.09.09,0,0,0,.06.06.32.32,0,0,0,.29,0A.61.61,0,0,0,69.11,49.88Z"/><path class="cls-1" d="M69.53,50.79l.11-.11a.28.28,0,0,0,.25,0,1.11,1.11,0,0,0,.3-.22l.18-.2c.09-.11.17-.15.23-.12l.12.07s0,0,0,0,0,.06-.15.14l-.28.23a2.94,2.94,0,0,1,.5-.22.43.43,0,0,1,.3,0,.22.22,0,0,1,.08.09.11.11,0,0,1,0,.11l-.1.11-.23.17a2.46,2.46,0,0,1,.52-.22.39.39,0,0,1,.27,0,.25.25,0,0,1,.11.09.17.17,0,0,1,0,.12,1.41,1.41,0,0,1-.33.31l0,0a.76.76,0,0,0-.09.09l-.06.06a.06.06,0,0,0,0,.07.27.27,0,0,0,.11.08l-.11.11h0a.94.94,0,0,1-.25-.19.17.17,0,0,1,0-.18.87.87,0,0,1,.22-.21l.08-.07.12-.1,0,0a0,0,0,0,0,0,0l0,0a.63.63,0,0,0-.26.06,2.6,2.6,0,0,0-.43.23l-.13.1a.12.12,0,0,1-.17,0,.48.48,0,0,1-.11-.06.06.06,0,0,1,0,0l.12-.1.17-.14a1.68,1.68,0,0,0,.24-.2.23.23,0,0,0,.07-.08,0,0,0,0,0,0,0l0,0s-.12,0-.26.05a2,2,0,0,0-.38.21l-.16.12L70,51h-.06l-.09,0-.06,0s0,0,0,0,0,0,0,0h-.14A.58.58,0,0,1,69.53,50.79Z"/><path class="cls-1" d="M71.58,51.76a.58.58,0,0,1-.19,0,.85.85,0,0,1-.17-.06l.12-.11a.52.52,0,0,0,.13.06l.14,0a1.1,1.1,0,0,1,.14-.18,1.8,1.8,0,0,1,.24-.2,1.06,1.06,0,0,1,.24-.16.12.12,0,0,1,.1,0,.26.26,0,0,1,.11.09s0,.06,0,.08l-.1.08-.16.1-.2.15a.57.57,0,0,0-.1.13.07.07,0,0,0,0,.06s0,0,0,0a.32.32,0,0,0,.24,0,1.25,1.25,0,0,0,.35-.17,1.3,1.3,0,0,0,.21-.16q.12-.1.18-.06a.24.24,0,0,1,.09.08s0,.06,0,.08l-.07.06-.07,0-.59.46.21.09h0l-.11.1-.16-.07-.1,0a1.27,1.27,0,0,1-.37.24.28.28,0,0,1-.27,0,.16.16,0,0,1-.07-.07.15.15,0,0,1,0-.09.35.35,0,0,1,.18-.13.52.52,0,0,1,.28,0l.23-.17.21-.15A1.39,1.39,0,0,1,72,52a.43.43,0,0,1-.28-.05l-.08-.08A.12.12,0,0,1,71.58,51.76Z"/><path class="cls-1" d="M73.23,52.77h-.15l-.15-.07.13-.1a.29.29,0,0,0,.24,0,.91.91,0,0,0,.33-.18l.21-.17c.11-.1.19-.12.25-.08a.48.48,0,0,1,.1.09s0,0,0,.05l-.18.11-.3.19a2,2,0,0,1,.52-.13.48.48,0,0,1,.33.08.19.19,0,0,1,.08.1.17.17,0,0,1,0,.11,1.51,1.51,0,0,1-.35.23l-.06,0-.11.08L74,53.2s0,0,0,.07a.35.35,0,0,0,.09.1l-.12.09h0a.6.6,0,0,1-.21-.22.14.14,0,0,1,0-.17.57.57,0,0,1,.11-.1l.24-.14,0,0,.14-.08a0,0,0,0,0,0,0l0,0a.49.49,0,0,0-.27,0,1.66,1.66,0,0,0-.45.17l-.11.07a.2.2,0,0,1-.24,0l0,0s0,0,0,0l0,0Z"/><path class="cls-1" d="M75.06,53.78a1.13,1.13,0,0,1-.4.08.49.49,0,0,1-.27-.1.22.22,0,0,1-.08-.09.16.16,0,0,1,0-.09.42.42,0,0,1-.14-.06.59.59,0,0,1-.16-.1l.14-.08a.27.27,0,0,0,.1.06l.1,0a.05.05,0,0,1,0,0l0,0a.59.59,0,0,1,.17-.13l.23-.09a.88.88,0,0,1,.36,0,.59.59,0,0,1,.29.13.28.28,0,0,1,.09.1.25.25,0,0,1,0,.12l0,0,.06,0,0,0a.26.26,0,0,1,.1.11s0,.07,0,.09l-.11,0-.18.08-.28.14c-.07.05-.12.08-.14.12s0,0,0,.06a.35.35,0,0,0,.09.11l-.13.09,0,0a.73.73,0,0,1-.18-.19.12.12,0,0,1,0-.15l.07-.07Zm.36-.24,0-.07a.1.1,0,0,0,0,0,.34.34,0,0,0-.17-.06H75l-.22.07a.4.4,0,0,0-.14.11s0,.05,0,.07a.09.09,0,0,0,0,.07.41.41,0,0,0,.31,0A3,3,0,0,0,75.42,53.54Z"/><path class="cls-1" d="M75,54.24l.13-.08a.31.31,0,0,0,.24.08,1,1,0,0,0,.35-.13L76,54c.12-.08.21-.1.26,0a.35.35,0,0,1,.09.11s0,0,0,0l-.19.09-.33.14a2.81,2.81,0,0,1,.54-.07.42.42,0,0,1,.28.1.14.14,0,0,1,.06.11.14.14,0,0,1,0,.1.31.31,0,0,1-.12.07l-.28.11a3.49,3.49,0,0,1,.57-.07.39.39,0,0,1,.25.11.19.19,0,0,1,.07.12.11.11,0,0,1,0,.11,1.64,1.64,0,0,1-.41.2l0,0-.11.05-.07,0a.06.06,0,0,0,0,.07.53.53,0,0,0,.09.11l-.14.07h0a.69.69,0,0,1-.19-.24.17.17,0,0,1,0-.18,1,1,0,0,1,.27-.14l.1,0,.14-.06,0,0,0,0s0,0,0,0-.12,0-.27,0a2.29,2.29,0,0,0-.48.1l-.15.05a.17.17,0,0,1-.18,0,.48.48,0,0,1-.08-.1,0,0,0,0,1,0,0l.14-.06.21-.08.28-.12s.08,0,.09-.06l0,0,0,0s-.12,0-.27,0a1.43,1.43,0,0,0-.42.09l-.18.07-.11,0,0,0-.08-.07,0,0s0,0,0,0l.06,0h0a.32.32,0,0,1-.14,0A.42.42,0,0,1,75,54.24Z"/><path class="cls-1" d="M76.8,55.84a.88.88,0,0,1-.21-.12l-.19-.16.15-.06.12.1.12.08a.58.58,0,0,1,0-.14l.11-.13a.57.57,0,0,1,.4-.13.56.56,0,0,1,.39.19.32.32,0,0,1,.08.2.33.33,0,0,1-.1.18.61.61,0,0,1-.28.11.92.92,0,0,1-.4,0,.28.28,0,0,0,0,.13.42.42,0,0,0,.08.12h0l-.14.07,0,0a.81.81,0,0,1-.14-.2A.6.6,0,0,1,76.8,55.84Zm.26-.06a.75.75,0,0,0,.3,0,.41.41,0,0,0,.22-.08s0,0,0-.07a.09.09,0,0,0,0-.07.2.2,0,0,0-.2-.07.44.44,0,0,0-.24.11.19.19,0,0,0-.06.07A.26.26,0,0,0,77.06,55.78Z"/><path class="cls-1" d="M62.57,50.93a.37.37,0,0,1-.14,0,.5.5,0,0,1-.17,0l.09-.13a.34.34,0,0,0,.22,0,1.15,1.15,0,0,0,.25-.25l.44-.63a1.56,1.56,0,0,0,.12-.17c.07-.11.15-.16.24-.13a.34.34,0,0,1,.13,0s0,0,0,0a.58.58,0,0,1-.08.12l0,.06-.64.77a1.59,1.59,0,0,1,.45-.3.5.5,0,0,1,.33,0,.23.23,0,0,1,.11.07.14.14,0,0,1,0,.11,1.45,1.45,0,0,1-.25.35l0,0-.08.11,0,.07a.06.06,0,0,0,0,.07l.12.06-.08.13h0a.67.67,0,0,1-.27-.13.16.16,0,0,1-.05-.17.51.51,0,0,1,.08-.13l.17-.22h0l.1-.13v0l0,0c-.05,0-.13,0-.26.1a1.74,1.74,0,0,0-.37.31l-.08.1a.19.19,0,0,1-.23.07l-.06,0a0,0,0,0,1,0,0v0Z"/><path class="cls-1" d="M64,51.36h-.25a1,1,0,0,1-.24,0l.1-.13a.8.8,0,0,0,.15,0h.15a.32.32,0,0,1,0-.14.5.5,0,0,1,0-.16.55.55,0,0,1,.28-.32.58.58,0,0,1,.43,0,.29.29,0,0,1,.17.13.3.3,0,0,1,0,.21.57.57,0,0,1-.19.24,1.2,1.2,0,0,1-.36.17.28.28,0,0,0,.09.1l.13.06h0l-.1.12h0a1.12,1.12,0,0,1-.22-.1A.47.47,0,0,1,64,51.36Zm.19-.18a.66.66,0,0,0,.27-.12.48.48,0,0,0,.15-.19s0,0,0-.08a.09.09,0,0,0-.06,0,.22.22,0,0,0-.2,0,.4.4,0,0,0-.16.22.29.29,0,0,0,0,.09S64.19,51.15,64.2,51.18Z"/><path class="cls-1" d="M64.4,51.6l.09-.12a.32.32,0,0,0,.14,0,.5.5,0,0,0,.19,0c.08-.15.18-.3.28-.45s.22-.3.34-.44a.82.82,0,0,1,.25-.23.19.19,0,0,1,.18,0,.14.14,0,0,1,.08.07.17.17,0,0,1,0,.12.37.37,0,0,1-.14.19,1.57,1.57,0,0,1-.27.19c-.12.15-.23.29-.32.42a2.31,2.31,0,0,0-.16.26.11.11,0,0,0,0,.1.17.17,0,0,0,.09.06l-.1.13h0a.63.63,0,0,1-.19-.11.16.16,0,0,1,0-.14.51.51,0,0,1-.2,0A.58.58,0,0,1,64.4,51.6Z"/><path class="cls-1" d="M65,51.83l.1-.12a.3.3,0,0,0,.14,0,.93.93,0,0,0,.19,0,3.79,3.79,0,0,1,.29-.45c.11-.15.23-.29.35-.43a.9.9,0,0,1,.25-.22.19.19,0,0,1,.18,0s.06,0,.08.08a.17.17,0,0,1,0,.12.63.63,0,0,1-.14.18,2.27,2.27,0,0,1-.28.18,5,5,0,0,0-.33.42,1.28,1.28,0,0,0-.16.26s0,.07,0,.09,0,.05.09.07l-.1.12h0a.5.5,0,0,1-.18-.11.16.16,0,0,1,0-.14.69.69,0,0,1-.2,0A.58.58,0,0,1,65,51.83Z"/><path class="cls-1" d="M66.86,51.83l-.07-.08a.1.1,0,0,1,0-.09.18.18,0,0,1,.09-.1.17.17,0,0,1,.14,0,.15.15,0,0,1,.09.1.3.3,0,0,1,0,.18,1.14,1.14,0,0,1-.15.23,1.24,1.24,0,0,1-.22.18.61.61,0,0,1-.26.1.46.46,0,0,1-.23,0,.57.57,0,0,1-.13-.08.23.23,0,0,1-.07-.1h-.18a.64.64,0,0,1-.18-.06l.1-.12.12,0H66s0-.05,0-.08l0-.08a.58.58,0,0,1,.15-.21.87.87,0,0,1,.23-.16,1.05,1.05,0,0,1,.24-.06.53.53,0,0,1,.23,0l0,0a.08.08,0,0,1,0,0,.19.19,0,0,1-.09,0l-.12.05a1.62,1.62,0,0,0-.29.19.6.6,0,0,0-.17.23.18.18,0,0,0,0,.1.09.09,0,0,0,.06.06.3.3,0,0,0,.29-.05A.61.61,0,0,0,66.86,51.83Z"/><path class="cls-1" d="M67.28,52.74l.11-.11a.28.28,0,0,0,.25,0,1.11,1.11,0,0,0,.3-.22l.18-.2c.09-.11.17-.15.23-.12a.48.48,0,0,1,.12.08s0,0,0,0l-.15.13-.28.23a4.07,4.07,0,0,1,.5-.22.5.5,0,0,1,.3,0,.22.22,0,0,1,.08.09.11.11,0,0,1,0,.11l-.1.11-.23.17a3.16,3.16,0,0,1,.52-.22.39.39,0,0,1,.27,0,.22.22,0,0,1,.11.1.17.17,0,0,1,0,.12,1.8,1.8,0,0,1-.33.3l0,0L69,53.3l-.06.06a.06.06,0,0,0,0,.07.27.27,0,0,0,.11.08l-.11.11h0a1.25,1.25,0,0,1-.25-.18.17.17,0,0,1,0-.18.71.71,0,0,1,.22-.22L69,53l.12-.11s0,0,0,0a0,0,0,0,0,0,0l0,0a.63.63,0,0,0-.26.06,3.65,3.65,0,0,0-.43.23l-.13.1a.14.14,0,0,1-.17,0l-.11-.07a.06.06,0,0,1,0-.05l.12-.1.17-.14a1.19,1.19,0,0,0,.24-.2.23.23,0,0,0,.07-.08,0,0,0,0,0,0,0l0,0a.49.49,0,0,0-.26.06,1.52,1.52,0,0,0-.38.2l-.16.12-.08.07h-.06l-.09,0-.06,0s0,0,0,0l0,0h-.14A.58.58,0,0,1,67.28,52.74Z"/><path class="cls-1" d="M69.33,53.72l-.19,0a.85.85,0,0,1-.17-.06l.12-.11a.52.52,0,0,0,.13.06l.14,0a1.1,1.1,0,0,1,.14-.18,1.8,1.8,0,0,1,.24-.2A1.06,1.06,0,0,1,70,53a.12.12,0,0,1,.1,0,.37.37,0,0,1,.11.09s0,.06,0,.08l-.1.08-.16.1-.2.15a.91.91,0,0,0-.1.13.07.07,0,0,0,0,.06.07.07,0,0,0,0,.05.32.32,0,0,0,.24,0,1.25,1.25,0,0,0,.35-.17,1.3,1.3,0,0,0,.21-.16c.08-.06.14-.09.18-.06a.24.24,0,0,1,.09.08s0,.06,0,.08,0,0-.07.06l-.07,0L70,54.1l.21.09h0l-.11.11L70,54.23l-.1,0a1.27,1.27,0,0,1-.37.24.28.28,0,0,1-.27,0,.16.16,0,0,1-.07-.07.15.15,0,0,1,0-.09.35.35,0,0,1,.18-.13.52.52,0,0,1,.28,0l.23-.16.21-.16a1.39,1.39,0,0,1-.38.14.43.43,0,0,1-.28,0l-.08-.08A.1.1,0,0,1,69.33,53.72Z"/><path class="cls-1" d="M71,54.72h-.15l-.15-.07.13-.1a.29.29,0,0,0,.24,0,.91.91,0,0,0,.33-.18l.21-.17c.11-.09.19-.12.25-.08a.48.48,0,0,1,.1.09s0,0,0,0l-.18.11-.3.19a2,2,0,0,1,.52-.13.48.48,0,0,1,.33.08.19.19,0,0,1,.08.1.15.15,0,0,1,0,.11A1.78,1.78,0,0,1,72,55L72,55l-.11.08a.14.14,0,0,0-.07.06s0,0,0,.06a.35.35,0,0,0,.09.1l-.12.09h0a.68.68,0,0,1-.21-.21.15.15,0,0,1,0-.18.57.57,0,0,1,.11-.1l.24-.14h0l.14-.09a0,0,0,0,0,0,0l0,0a.49.49,0,0,0-.27,0,1.66,1.66,0,0,0-.45.17l-.11.07a.2.2,0,0,1-.24,0,.11.11,0,0,1,0,0,0,0,0,0,1,0,0l0,0Z"/><path class="cls-1" d="M72.81,55.73a1.13,1.13,0,0,1-.4.08.43.43,0,0,1-.27-.1.22.22,0,0,1-.08-.09.16.16,0,0,1,0-.09l-.14-.05-.16-.1.14-.09a.27.27,0,0,0,.1.06l.1,0a.05.05,0,0,1,0,0l0-.05a.59.59,0,0,1,.17-.13,1,1,0,0,1,.23-.08.89.89,0,0,1,.36,0,.59.59,0,0,1,.29.13.41.41,0,0,1,.09.1.28.28,0,0,1,0,.12l0,0,.06,0,0,0a.33.33,0,0,1,.1.11s0,.07,0,.09l-.11,0-.18.08-.28.14a.63.63,0,0,0-.14.12.06.06,0,0,0,0,.07l.09.1-.13.09h0a.92.92,0,0,1-.18-.2.12.12,0,0,1,0-.15.22.22,0,0,1,.07-.06Zm.36-.24,0-.07a.1.1,0,0,0,0-.05.34.34,0,0,0-.17-.06.88.88,0,0,0-.23,0l-.22.07a.57.57,0,0,0-.14.11.1.1,0,0,0,0,.08.09.09,0,0,0,0,.06.41.41,0,0,0,.31,0A3,3,0,0,0,73.17,55.49Z"/><path class="cls-1" d="M72.79,56.19l.13-.07a.34.34,0,0,0,.24.07,1,1,0,0,0,.35-.13l.23-.14c.12-.08.21-.09.26-.05a.53.53,0,0,1,.09.11s0,0,0,.05l-.19.09-.33.14a2.07,2.07,0,0,1,.54-.06.38.38,0,0,1,.28.09.14.14,0,0,1,.06.11.13.13,0,0,1,0,.1.31.31,0,0,1-.12.07l-.28.11a2.44,2.44,0,0,1,.57-.06.34.34,0,0,1,.25.1.19.19,0,0,1,.07.12.11.11,0,0,1,0,.11,1.64,1.64,0,0,1-.41.2l0,0-.11.06-.07,0a.06.06,0,0,0,0,.07.53.53,0,0,0,.09.11l-.14.08h0a.81.81,0,0,1-.19-.25.17.17,0,0,1,0-.18,1,1,0,0,1,.27-.14l.1,0,.14-.06,0,0,0,0v0s-.12,0-.27,0a2.29,2.29,0,0,0-.48.1l-.15.06a.17.17,0,0,1-.18,0,.48.48,0,0,1-.08-.1,0,0,0,0,1,0-.05l.14-.06.21-.08.28-.12s.08,0,.09-.06l0,0,0,0s-.12,0-.27,0a1.43,1.43,0,0,0-.42.09l-.18.07-.11,0,0,0L73,56.44l0-.06s0,0,0,0,0,0,.06,0h0a.32.32,0,0,1-.14,0A.42.42,0,0,1,72.79,56.19Z"/><path class="cls-1" d="M74.55,57.8a1.48,1.48,0,0,1-.21-.13l-.19-.16.15-.06.12.1.12.08a.58.58,0,0,1,0-.14l.11-.13a.57.57,0,0,1,.4-.13.56.56,0,0,1,.39.19.32.32,0,0,1,.08.2.3.3,0,0,1-.1.18.52.52,0,0,1-.28.11.92.92,0,0,1-.4,0,.28.28,0,0,0,0,.13.42.42,0,0,0,.08.12h0l-.14.07,0,0a.77.77,0,0,1-.14-.19A.82.82,0,0,1,74.55,57.8Zm.26-.07a.75.75,0,0,0,.3,0,.41.41,0,0,0,.22-.08.09.09,0,0,0,0-.07.11.11,0,0,0,0-.07.23.23,0,0,0-.2-.07.44.44,0,0,0-.24.11l-.06.07A.26.26,0,0,0,74.81,57.73Z"/><path class="cls-1" d="M59.68,52.56l-.14,0a.52.52,0,0,1-.17,0l.09-.13a.31.31,0,0,0,.23,0,1,1,0,0,0,.24-.26l.45-.62.11-.17a.23.23,0,0,1,.25-.14l.12.05a0,0,0,0,1,0,0s0,.06-.08.12l0,0-.64.77a2.89,2.89,0,0,1,.45-.3.52.52,0,0,1,.34,0A.14.14,0,0,1,61,52a.14.14,0,0,1,0,.11,1.48,1.48,0,0,1-.25.34l0,.06a.81.81,0,0,0-.09.1l0,.08s0,0,0,.06a.31.31,0,0,0,.13.06l-.09.13h0a.84.84,0,0,1-.27-.13.17.17,0,0,1,0-.18.57.57,0,0,1,.07-.13,2.31,2.31,0,0,1,.18-.21v0c.06-.07.1-.11.1-.13a0,0,0,0,0,0,0h0s-.13,0-.26.1a1.49,1.49,0,0,0-.37.31l-.08.1a.18.18,0,0,1-.22.06l-.07,0s0,0,0,0l0,0S59.67,52.57,59.68,52.56Z"/><path class="cls-1" d="M61.12,53h-.25a1,1,0,0,1-.24-.05l.1-.12.15,0H61a.35.35,0,0,1,0-.14.59.59,0,0,1,0-.17.5.5,0,0,1,.28-.31.52.52,0,0,1,.42,0,.29.29,0,0,1,.17.13.23.23,0,0,1,0,.2.57.57,0,0,1-.19.24,1,1,0,0,1-.36.18.26.26,0,0,0,.09.09.4.4,0,0,0,.13.07h0l-.09.13h0a1.56,1.56,0,0,1-.22-.1A.67.67,0,0,1,61.12,53Zm.2-.18a.71.71,0,0,0,.26-.13.37.37,0,0,0,.16-.18.11.11,0,0,0,0-.08.13.13,0,0,0-.07-.05.23.23,0,0,0-.2.05.49.49,0,0,0-.16.21.34.34,0,0,0,0,.09A.15.15,0,0,0,61.32,52.81Z"/><path class="cls-1" d="M61.51,53.23l.09-.13a.32.32,0,0,0,.14,0,.77.77,0,0,0,.19,0c.08-.14.18-.29.29-.45a4.34,4.34,0,0,1,.34-.44A1.57,1.57,0,0,1,62.8,52a.23.23,0,0,1,.18,0,.16.16,0,0,1,.08.08.24.24,0,0,1,0,.12.54.54,0,0,1-.15.18,1.17,1.17,0,0,1-.27.19c-.12.15-.23.29-.32.42a1.34,1.34,0,0,0-.15.27s0,.07,0,.09,0,0,.09.07l-.09.12h0a.48.48,0,0,1-.19-.11.14.14,0,0,1-.05-.13l-.2,0A.58.58,0,0,1,61.51,53.23Z"/><path class="cls-1" d="M62.15,53.46l.1-.12a.31.31,0,0,0,.14,0,.54.54,0,0,0,.19,0,4.73,4.73,0,0,1,.29-.44c.11-.15.23-.29.35-.43a1.18,1.18,0,0,1,.25-.23.23.23,0,0,1,.18,0s.07,0,.08.08a.17.17,0,0,1,0,.12.44.44,0,0,1-.14.18,1.12,1.12,0,0,1-.28.18c-.13.15-.23.29-.33.42a2.31,2.31,0,0,0-.16.26.11.11,0,0,0,.09.16l-.1.12h0a.48.48,0,0,1-.19-.11.17.17,0,0,1-.05-.14.48.48,0,0,1-.2,0A.63.63,0,0,1,62.15,53.46Z"/><path class="cls-1" d="M64,53.45a.12.12,0,0,1-.07-.07s0-.06,0-.1a.19.19,0,0,1,.1-.1h.13a.16.16,0,0,1,.09.11.21.21,0,0,1,0,.17,1.58,1.58,0,0,1-.15.24,1.24,1.24,0,0,1-.22.18.69.69,0,0,1-.25.09.45.45,0,0,1-.23,0,.5.5,0,0,1-.13-.07.28.28,0,0,1-.08-.11.55.55,0,0,1-.18,0l-.18,0,.1-.12.12,0h.1s0-.06,0-.08l0-.08a.62.62,0,0,1,.15-.22.83.83,0,0,1,.23-.15.54.54,0,0,1,.25-.06.73.73,0,0,1,.22,0s0,0,0,0a0,0,0,0,1,0,0s0,0-.09.05l-.12,0a1.24,1.24,0,0,0-.29.2.82.82,0,0,0-.17.22.19.19,0,0,0,0,.1.12.12,0,0,0,.07.07.34.34,0,0,0,.29-.06A.67.67,0,0,0,64,53.45Z"/><path class="cls-1" d="M64.39,54.37l.11-.11a.36.36,0,0,0,.25,0,1.19,1.19,0,0,0,.3-.23l.18-.2c.09-.11.17-.15.24-.11l.12.07a.06.06,0,0,1,0,.05,1.18,1.18,0,0,1-.16.13l-.27.24a2.11,2.11,0,0,1,.5-.22A.4.4,0,0,1,66,54a.2.2,0,0,1,.09.09.14.14,0,0,1,0,.11l-.1.1c0,.05-.13.1-.23.18a2.16,2.16,0,0,1,.52-.22.35.35,0,0,1,.27,0,.22.22,0,0,1,.11.1.11.11,0,0,1,0,.12,1.41,1.41,0,0,1-.33.31l0,0-.09.08-.06.07a.06.06,0,0,0,0,.07l.11.08-.11.11h0a.59.59,0,0,1-.25-.18.15.15,0,0,1,0-.18,1.11,1.11,0,0,1,.22-.21l.09-.07.12-.1,0,0v0a0,0,0,0,0,0,0s-.11,0-.26.06a2,2,0,0,0-.43.23l-.12.1a.17.17,0,0,1-.18,0l-.11-.07a0,0,0,0,1,0,0s0-.05.11-.1l.18-.14.24-.2.07-.08v0l0,0s-.12,0-.26,0a1.28,1.28,0,0,0-.38.21l-.16.12-.08.06h0l-.1,0-.06,0a0,0,0,0,1,0,0s0,0,0-.05h0a.26.26,0,0,1-.15,0A.53.53,0,0,1,64.39,54.37Z"/><path class="cls-1" d="M66.44,55.34l-.19,0-.17-.07.12-.1.13,0,.14,0a1.25,1.25,0,0,1,.15-.19l.23-.2.24-.16a.09.09,0,0,1,.1,0,.31.31,0,0,1,.12.09.08.08,0,0,1,0,.08l-.11.08-.16.09-.2.16a.53.53,0,0,0-.1.12.11.11,0,0,0,0,.07l0,0a.28.28,0,0,0,.24,0,1.16,1.16,0,0,0,.36-.17l.2-.15c.08-.07.14-.09.18-.07l.1.09a.08.08,0,0,1,0,.08l-.07,0-.06.05-.6.45.22.1h0l-.12.1-.16-.07-.1,0a1.14,1.14,0,0,1-.37.25.29.29,0,0,1-.26,0,.13.13,0,0,1-.07-.08.08.08,0,0,1,0-.08.37.37,0,0,1,.18-.14.7.7,0,0,1,.29,0l.22-.17a1.66,1.66,0,0,0,.21-.16,1.05,1.05,0,0,1-.38.14.35.35,0,0,1-.27-.05.18.18,0,0,1-.09-.08A.1.1,0,0,1,66.44,55.34Z"/><path class="cls-1" d="M68.09,56.34a.26.26,0,0,1-.15,0,.34.34,0,0,1-.15-.07l.13-.09a.29.29,0,0,0,.24,0,1.1,1.1,0,0,0,.33-.18l.21-.18c.11-.09.19-.11.25-.07l.11.08s0,0,0,.06l-.18.11-.3.19a2,2,0,0,1,.53-.13.46.46,0,0,1,.32.07.24.24,0,0,1,.08.1.11.11,0,0,1,0,.11,1.58,1.58,0,0,1-.34.24l-.07,0-.11.07-.06.06a.06.06,0,0,0,0,.07.3.3,0,0,0,.1.09l-.13.1,0,0a.68.68,0,0,1-.21-.21.17.17,0,0,1,0-.18.76.76,0,0,1,.12-.1l.23-.14h0a.4.4,0,0,0,.14-.09v0s0,0,0,0-.13,0-.28,0a1.69,1.69,0,0,0-.45.18l-.11.06a.2.2,0,0,1-.24,0l0,0s0,0,0,0l0,0Z"/><path class="cls-1" d="M69.92,57.36a1.09,1.09,0,0,1-.4.07.44.44,0,0,1-.27-.09.32.32,0,0,1-.08-.09.22.22,0,0,1,0-.1.39.39,0,0,1-.14,0,.65.65,0,0,1-.15-.1l.13-.08.1.06a.19.19,0,0,0,.1,0s0,0,0,0,0,0,0,0a.43.43,0,0,1,.16-.13.79.79,0,0,1,.23-.09.89.89,0,0,1,.36,0,.7.7,0,0,1,.29.13l.1.11a.34.34,0,0,1,0,.12l0,0,.06,0,0,0a.47.47,0,0,1,.09.12s0,.07,0,.09l-.1,0-.19.08a1.63,1.63,0,0,0-.27.15.73.73,0,0,0-.15.11s0,0,0,.07a.53.53,0,0,0,.09.11l-.13.08h0a.82.82,0,0,1-.19-.2.12.12,0,0,1,0-.14l.07-.07Zm.36-.25a.11.11,0,0,0,0-.07l0,0a.34.34,0,0,0-.16-.06.66.66,0,0,0-.24,0,.81.81,0,0,0-.22.07.4.4,0,0,0-.14.11.09.09,0,0,0,0,.07.07.07,0,0,0,0,.06.35.35,0,0,0,.3,0A1.94,1.94,0,0,0,70.28,57.11Z"/><path class="cls-1" d="M69.9,57.82l.14-.08a.27.27,0,0,0,.23.07,1,1,0,0,0,.35-.13l.23-.13c.13-.08.21-.1.26,0l.1.1s0,0,0,.06a.79.79,0,0,1-.19.08l-.32.15a2.64,2.64,0,0,1,.54-.07.42.42,0,0,1,.27.1.12.12,0,0,1,.06.1.12.12,0,0,1,0,.11l-.12.07-.27.1a2.37,2.37,0,0,1,.56-.06.38.38,0,0,1,.25.1.2.2,0,0,1,.08.13.15.15,0,0,1,0,.11,1.83,1.83,0,0,1-.41.2l0,0a.43.43,0,0,0-.12.05l-.07,0a0,0,0,0,0,0,.06.23.23,0,0,0,.08.11l-.14.08h0a.86.86,0,0,1-.19-.25.16.16,0,0,1,0-.17.76.76,0,0,1,.27-.14l.1,0,.15-.07,0,0v0a0,0,0,0,0,0,0,.5.5,0,0,0-.27,0,2,2,0,0,0-.47.09l-.16.06a.14.14,0,0,1-.17,0,.73.73,0,0,1-.09-.09,0,0,0,0,1,0,0l.14-.06.21-.08.29-.13.08-.05a.08.08,0,0,0,0,0l0,0s-.12,0-.27,0a1.5,1.5,0,0,0-.42.09l-.18.07-.1,0a0,0,0,0,1,0,0l-.08-.07L70.1,58s0,0,0,0l.06,0h0a.32.32,0,0,1-.14,0A.55.55,0,0,1,69.9,57.82Z"/><path class="cls-1" d="M71.67,59.42l-.22-.13a.9.9,0,0,1-.18-.15l.14-.07.12.11.12.07a.5.5,0,0,1,0-.13.69.69,0,0,1,.11-.13.54.54,0,0,1,.4-.13.52.52,0,0,1,.39.19.29.29,0,0,1,.08.19.23.23,0,0,1-.09.18.59.59,0,0,1-.29.12,1.38,1.38,0,0,1-.4,0,.24.24,0,0,0,0,.12.77.77,0,0,0,.09.13h0l-.15.06,0,0a1.05,1.05,0,0,1-.14-.2A.45.45,0,0,1,71.67,59.42Zm.26-.06a.57.57,0,0,0,.29,0,.38.38,0,0,0,.22-.08.08.08,0,0,0,0-.07.13.13,0,0,0,0-.07.21.21,0,0,0-.2-.06.38.38,0,0,0-.24.11.13.13,0,0,0-.06.07A.19.19,0,0,0,71.93,59.36Z"/><path class="cls-1" d="M56.79,54.45a.33.33,0,0,1-.14,0,.5.5,0,0,1-.17,0l.09-.13a.37.37,0,0,0,.23,0,1,1,0,0,0,.24-.25l.45-.63.11-.17c.07-.11.16-.16.25-.13a.35.35,0,0,1,.12,0s0,0,0,0,0,.06-.08.12l0,.06-.64.77a1.92,1.92,0,0,1,.45-.3.5.5,0,0,1,.33,0,.23.23,0,0,1,.11.07.14.14,0,0,1,0,.11,1.45,1.45,0,0,1-.25.35l0,0-.09.11,0,.07a.08.08,0,0,0,0,.07l.12.06-.08.13h0a.67.67,0,0,1-.27-.13.16.16,0,0,1,0-.17.42.42,0,0,1,.07-.13l.17-.22h0a.7.7,0,0,0,.1-.13,0,0,0,0,0,0,0s0,0,0,0a.46.46,0,0,0-.26.1,1.74,1.74,0,0,0-.37.31l-.08.1a.19.19,0,0,1-.22.07l-.07,0a0,0,0,0,1,0,0s0,0,0,0S56.78,54.47,56.79,54.45Z"/><path class="cls-1" d="M58.23,54.88H58a1,1,0,0,1-.24,0l.1-.13.15,0h.15a.32.32,0,0,1,0-.14.5.5,0,0,1,0-.16.57.57,0,0,1,.29-.32.61.61,0,0,1,.42,0,.29.29,0,0,1,.17.13.25.25,0,0,1,0,.21.57.57,0,0,1-.19.24,1.2,1.2,0,0,1-.36.17.28.28,0,0,0,.09.1l.13.06h0l-.09.12h0a.9.9,0,0,1-.22-.1A.5.5,0,0,1,58.23,54.88Zm.2-.18a.68.68,0,0,0,.26-.12.43.43,0,0,0,.16-.19.11.11,0,0,0,0-.08l-.07,0a.22.22,0,0,0-.2,0,.45.45,0,0,0-.16.22.28.28,0,0,0,0,.09A.12.12,0,0,0,58.43,54.7Z"/><path class="cls-1" d="M58.62,55.12l.09-.12a.32.32,0,0,0,.14,0A.5.5,0,0,0,59,55c.08-.15.18-.3.28-.45s.22-.3.34-.44a1,1,0,0,1,.25-.23.19.19,0,0,1,.18,0,.14.14,0,0,1,.08.07.24.24,0,0,1,0,.12.48.48,0,0,1-.15.19,1.57,1.57,0,0,1-.27.19c-.12.15-.23.29-.32.42a1.77,1.77,0,0,0-.15.26.09.09,0,0,0,0,.1.17.17,0,0,0,.09.06l-.09.13h0a.63.63,0,0,1-.19-.11.16.16,0,0,1-.05-.14.48.48,0,0,1-.2,0A.58.58,0,0,1,58.62,55.12Z"/><path class="cls-1" d="M59.26,55.35l.1-.12a.3.3,0,0,0,.14,0,.93.93,0,0,0,.19,0,3.79,3.79,0,0,1,.29-.45c.11-.15.23-.29.35-.43a1.07,1.07,0,0,1,.25-.22.19.19,0,0,1,.18,0,.11.11,0,0,1,.08.08.17.17,0,0,1,0,.12.63.63,0,0,1-.14.18,2.27,2.27,0,0,1-.28.18c-.13.15-.24.29-.33.41a1.59,1.59,0,0,0-.16.27s0,.07,0,.09,0,0,.09.07l-.1.12h0a.63.63,0,0,1-.19-.11.19.19,0,0,1-.05-.14.69.69,0,0,1-.2,0A.63.63,0,0,1,59.26,55.35Z"/><path class="cls-1" d="M61.08,55.35a.21.21,0,0,1-.06-.08.1.1,0,0,1,0-.09.17.17,0,0,1,.1-.1.16.16,0,0,1,.22.1.24.24,0,0,1,0,.18,1.14,1.14,0,0,1-.15.23,1.24,1.24,0,0,1-.22.18.62.62,0,0,1-.25.1.45.45,0,0,1-.23,0,.47.47,0,0,1-.14-.08.36.36,0,0,1-.07-.1h-.18l-.18-.06.1-.12.12,0a.33.33,0,0,0,.1,0s0,0,0-.08l0-.08a.58.58,0,0,1,.15-.21.87.87,0,0,1,.23-.16,1,1,0,0,1,.25-.06.51.51,0,0,1,.22,0l0,0a.08.08,0,0,1,0,0,.19.19,0,0,1-.09,0l-.12,0a1.62,1.62,0,0,0-.29.19.72.72,0,0,0-.17.23.18.18,0,0,0,0,.1.09.09,0,0,0,.07.06c.07,0,.17,0,.29,0A.64.64,0,0,0,61.08,55.35Z"/><path class="cls-1" d="M61.5,56.26l.11-.11a.28.28,0,0,0,.25,0,1.11,1.11,0,0,0,.3-.22l.18-.2q.13-.16.24-.12l.12.08s0,0,0,.05l-.16.13a3.23,3.23,0,0,0-.27.23,3.07,3.07,0,0,1,.5-.22.46.46,0,0,1,.29,0l.09.09a.14.14,0,0,1,0,.11l-.1.11-.23.17a3.58,3.58,0,0,1,.52-.22.39.39,0,0,1,.27,0,.18.18,0,0,1,.11.1s0,.07,0,.12a1.8,1.8,0,0,1-.33.3l0,0-.09.09-.06.06a.06.06,0,0,0,0,.07.38.38,0,0,0,.11.08l-.11.12h0a1.11,1.11,0,0,1-.26-.18.17.17,0,0,1,0-.18.86.86,0,0,1,.22-.22l.09-.06.12-.11a.05.05,0,0,0,0,0,0,0,0,0,0,0,0l0,0a.66.66,0,0,0-.26.06,3.65,3.65,0,0,0-.43.23l-.12.1a.16.16,0,0,1-.18,0l-.11-.07s0,0,0,0l.11-.1.18-.14a2.42,2.42,0,0,0,.24-.2l.07-.08v0l0,0a.49.49,0,0,0-.26.06,1.52,1.52,0,0,0-.38.2L62,56.4l-.08.07h-.05l-.1,0-.06,0s0,0,0,0l0,0h-.14A.58.58,0,0,1,61.5,56.26Z"/><path class="cls-1" d="M63.55,57.24l-.19-.05a.85.85,0,0,1-.17-.06l.12-.11a.75.75,0,0,0,.13.06l.14,0a1.19,1.19,0,0,1,.15-.18,1.65,1.65,0,0,1,.23-.2l.24-.16a.12.12,0,0,1,.1,0,.74.74,0,0,1,.12.09.08.08,0,0,1,0,.08l-.11.08-.16.1-.2.15a.91.91,0,0,0-.1.13.07.07,0,0,0,0,.06.1.1,0,0,0,0,0,.32.32,0,0,0,.24,0,1.44,1.44,0,0,0,.36-.17l.2-.16c.08-.06.14-.09.18-.06A.39.39,0,0,1,65,57s0,.06,0,.08,0,0-.07.06-.05,0-.06.05l-.6.45a.81.81,0,0,1,.21.09h0l-.12.11-.16-.08-.1,0a1.27,1.27,0,0,1-.37.24.26.26,0,0,1-.26,0,.12.12,0,0,1-.07-.07.1.1,0,0,1,0-.09.35.35,0,0,1,.18-.13.53.53,0,0,1,.28,0l.23-.16.21-.16a1.28,1.28,0,0,1-.38.14.43.43,0,0,1-.28-.05.3.3,0,0,1-.08-.08A.1.1,0,0,1,63.55,57.24Z"/><path class="cls-1" d="M65.2,58.24h-.15l-.15-.07.13-.1a.29.29,0,0,0,.24,0,.91.91,0,0,0,.33-.18l.21-.17c.11-.09.19-.12.25-.08a.48.48,0,0,1,.1.09s0,0,0,.05l-.18.11-.3.19a1.92,1.92,0,0,1,.53-.13.47.47,0,0,1,.32.08.19.19,0,0,1,.08.1.12.12,0,0,1,0,.11,1.58,1.58,0,0,1-.34.24l-.07,0-.11.08a.14.14,0,0,0-.07.06.06.06,0,0,0,0,.06.3.3,0,0,0,.1.1l-.13.09h0a.68.68,0,0,1-.21-.21.17.17,0,0,1,0-.18.44.44,0,0,1,.12-.1,1.36,1.36,0,0,1,.23-.14h0l.14-.09a0,0,0,0,0,0,0l0,0a.53.53,0,0,0-.28,0,1.66,1.66,0,0,0-.45.17l-.11.07a.2.2,0,0,1-.24,0l-.05,0a0,0,0,0,1,0,0l0,0Z"/><path class="cls-1" d="M67,59.25a1.13,1.13,0,0,1-.4.08.45.45,0,0,1-.27-.1.32.32,0,0,1-.08-.09.16.16,0,0,1,0-.09l-.14,0L66,58.9l.13-.09a.27.27,0,0,0,.1.06l.1,0a.05.05,0,0,1,0,0l0,0a.59.59,0,0,1,.17-.13,1.23,1.23,0,0,1,.23-.08.89.89,0,0,1,.36,0,.59.59,0,0,1,.29.13.94.94,0,0,1,.1.1.56.56,0,0,1,0,.12l0,0,.06,0,.05,0a.44.44,0,0,1,.09.11s0,.07,0,.09l-.1,0-.19.08-.27.14a.76.76,0,0,0-.15.12.06.06,0,0,0,0,.07l.09.1-.13.09h0a.8.8,0,0,1-.19-.2.14.14,0,0,1,0-.15.22.22,0,0,1,.07-.06Zm.36-.24a.09.09,0,0,0,0-.07.1.1,0,0,0,0,0,.34.34,0,0,0-.16-.06h-.24l-.22.07a.57.57,0,0,0-.14.11.1.1,0,0,0,0,.08.09.09,0,0,0,0,.06.42.42,0,0,0,.31,0A3,3,0,0,0,67.39,59Z"/><path class="cls-1" d="M67,59.71l.14-.07a.3.3,0,0,0,.23.07,1,1,0,0,0,.35-.13l.23-.14c.12-.08.21-.09.26,0l.1.11a0,0,0,0,1,0,0l-.19.09-.33.14a2.09,2.09,0,0,1,.55-.06.37.37,0,0,1,.27.09.14.14,0,0,1,.06.11.13.13,0,0,1,0,.1.31.31,0,0,1-.12.07l-.27.11a2.33,2.33,0,0,1,.56-.06.34.34,0,0,1,.25.1.21.21,0,0,1,.08.12.15.15,0,0,1,0,.11,1.45,1.45,0,0,1-.41.2l0,0-.12.06-.07,0a.06.06,0,0,0,0,.07s0,.06.08.11l-.14.08h0a.81.81,0,0,1-.19-.25.17.17,0,0,1,0-.18,1,1,0,0,1,.27-.14l.1,0,.15-.06,0,0,0,0s0,0,0,0-.12,0-.27,0a2.08,2.08,0,0,0-.47.1l-.16.06a.15.15,0,0,1-.17,0,.35.35,0,0,1-.09-.1,0,0,0,0,1,0,0l.14-.06.21-.08.28-.12s.08,0,.09-.06l0,0,0,0s-.12,0-.27,0a1.5,1.5,0,0,0-.42.09l-.18.07-.1,0,0,0L67.26,60l-.05-.06a0,0,0,0,1,0,0l.06,0h0a.32.32,0,0,1-.14,0A.42.42,0,0,1,67,59.71Z"/><path class="cls-1" d="M68.78,61.31a1.08,1.08,0,0,1-.4-.28l.14-.06.12.1.12.08a.58.58,0,0,1,0-.14l.11-.13a.57.57,0,0,1,.4-.13.56.56,0,0,1,.39.19.32.32,0,0,1,.08.2.24.24,0,0,1-.09.18.59.59,0,0,1-.29.11.92.92,0,0,1-.4,0,.28.28,0,0,0,0,.13.83.83,0,0,0,.08.12h0l-.15.07,0,0a.77.77,0,0,1-.14-.19A.49.49,0,0,1,68.78,61.31Zm.25-.06a.77.77,0,0,0,.3,0,.38.38,0,0,0,.22-.08.09.09,0,0,0,0-.07.11.11,0,0,0,0-.07.22.22,0,0,0-.2-.07.44.44,0,0,0-.24.11l-.06.07Z"/><path class="cls-1" d="M53,56.36l-.14,0a.5.5,0,0,1-.17,0l.09-.13a.28.28,0,0,0,.22,0,1.25,1.25,0,0,0,.25-.26l.44-.62.12-.17c.07-.12.15-.16.24-.14l.13,0a.06.06,0,0,1,0,.05.58.58,0,0,1-.08.12l-.05,0-.64.77a1.76,1.76,0,0,1,.45-.29.44.44,0,0,1,.33,0,.18.18,0,0,1,.11.07.14.14,0,0,1,0,.11,1.92,1.92,0,0,1-.25.34l-.05.06-.08.1,0,.08a0,0,0,0,0,0,.06l.12.06-.08.13h0a.67.67,0,0,1-.27-.13.17.17,0,0,1,0-.18.76.76,0,0,1,.08-.13l.17-.21,0,0L54,56v0l0,0s-.13,0-.26.1a1.49,1.49,0,0,0-.37.31l-.08.1a.2.2,0,0,1-.23.06l-.06,0s0,0,0,0v0Z"/><path class="cls-1" d="M54.42,56.79h-.25a1,1,0,0,1-.24,0l.1-.12.15,0h.14a.68.68,0,0,1,0-.14.55.55,0,0,1,0-.17A.57.57,0,0,1,55,56a.29.29,0,0,1,.17.13.27.27,0,0,1,0,.2.61.61,0,0,1-.2.24,1,1,0,0,1-.35.18.2.2,0,0,0,.09.09.32.32,0,0,0,.13.07h0l-.1.13h0a1.12,1.12,0,0,1-.22-.1A.62.62,0,0,1,54.42,56.79Zm.19-.18a.57.57,0,0,0,.27-.13A.4.4,0,0,0,55,56.3a.11.11,0,0,0,0-.08.1.1,0,0,0-.06,0,.23.23,0,0,0-.2,0,.37.37,0,0,0-.16.21.44.44,0,0,0,0,.1A.31.31,0,0,0,54.61,56.61Z"/><path class="cls-1" d="M54.81,57l.09-.12a.32.32,0,0,0,.14,0,.81.81,0,0,0,.19,0c.08-.15.18-.3.28-.46l.34-.44a1.21,1.21,0,0,1,.25-.23.23.23,0,0,1,.18,0,.2.2,0,0,1,.08.08.17.17,0,0,1,0,.12.42.42,0,0,1-.14.18,1.43,1.43,0,0,1-.27.19,4.71,4.71,0,0,0-.32.42,1.59,1.59,0,0,0-.16.27.14.14,0,0,0,0,.09.2.2,0,0,0,.1.07l-.1.12h0a.48.48,0,0,1-.19-.11.16.16,0,0,1-.06-.13.65.65,0,0,1-.19,0A.58.58,0,0,1,54.81,57Z"/><path class="cls-1" d="M55.45,57.26l.1-.12a.28.28,0,0,0,.13,0,.46.46,0,0,0,.19,0c.09-.14.19-.29.3-.44a4.7,4.7,0,0,1,.35-.43,1,1,0,0,1,.25-.23A.23.23,0,0,1,57,56a.2.2,0,0,1,.08.08.17.17,0,0,1,0,.12.4.4,0,0,1-.15.18,1.43,1.43,0,0,1-.27.19,3.71,3.71,0,0,0-.33.41,2.31,2.31,0,0,0-.16.26.09.09,0,0,0,0,.1.17.17,0,0,0,.09.06l-.1.12h0a.5.5,0,0,1-.18-.11.14.14,0,0,1,0-.13l-.2,0A.58.58,0,0,1,55.45,57.26Z"/><path class="cls-1" d="M57.27,57.25a.16.16,0,0,1-.07-.07.1.1,0,0,1,0-.09A.2.2,0,0,1,57.3,57a.23.23,0,0,1,.14,0,.13.13,0,0,1,.09.1.26.26,0,0,1,0,.17,1.58,1.58,0,0,1-.15.24,1,1,0,0,1-.23.18.63.63,0,0,1-.25.09.31.31,0,0,1-.23,0l-.13-.07a.3.3,0,0,1-.07-.1l-.18,0-.18,0,.1-.12.12,0h.1a.22.22,0,0,1,0-.08l0-.08A.62.62,0,0,1,56.6,57a.7.7,0,0,1,.23-.15.53.53,0,0,1,.24-.06.8.8,0,0,1,.23,0l0,0a0,0,0,0,1,0,0s0,0-.08,0l-.12.05a1,1,0,0,0-.29.19.6.6,0,0,0-.17.23.1.1,0,0,0,0,.09.13.13,0,0,0,.06.07.33.33,0,0,0,.29-.06A.57.57,0,0,0,57.27,57.25Z"/><path class="cls-1" d="M57.69,58.17l.11-.11a.33.33,0,0,0,.24,0,.8.8,0,0,0,.3-.23l.19-.19c.09-.12.17-.16.23-.12l.12.07s0,0,0,0a.53.53,0,0,1-.15.13l-.28.24a2.3,2.3,0,0,1,.5-.22.43.43,0,0,1,.3,0,.14.14,0,0,1,.08.09.11.11,0,0,1,0,.11.35.35,0,0,1-.09.1s-.13.1-.23.18a2.46,2.46,0,0,1,.52-.22.4.4,0,0,1,.27,0,.27.27,0,0,1,.11.1.17.17,0,0,1,0,.12,1.41,1.41,0,0,1-.33.31l0,0-.1.08,0,.07a.06.06,0,0,0,0,.07.27.27,0,0,0,.11.08l-.11.11h0a.67.67,0,0,1-.25-.18.15.15,0,0,1,0-.18.87.87,0,0,1,.22-.21l.08-.07.12-.1s0,0,0,0,0,0,0,0l0,0s-.12,0-.26.06a2,2,0,0,0-.43.23l-.13.1a.15.15,0,0,1-.17,0l-.11-.07s0,0,0,0a.48.48,0,0,1,.12-.1l.17-.14.24-.2a.23.23,0,0,0,.07-.08,0,0,0,0,0,0,0l0,0s-.12,0-.26,0a1.28,1.28,0,0,0-.38.21l-.16.12-.08.06a.06.06,0,0,1-.06,0l-.09,0-.06,0a0,0,0,0,1,0,0l0,0h0a.22.22,0,0,1-.14,0A.53.53,0,0,1,57.69,58.17Z"/><path class="cls-1" d="M59.74,59.14l-.19,0L59.38,59l.12-.1.13,0a.58.58,0,0,0,.14,0,.73.73,0,0,1,.14-.18l.24-.21a1.59,1.59,0,0,1,.24-.16.09.09,0,0,1,.1,0,.35.35,0,0,1,.11.09s0,.05,0,.08a.49.49,0,0,1-.11.08l-.15.1a1.29,1.29,0,0,0-.2.15.35.35,0,0,0-.1.12.11.11,0,0,0,0,.07s0,0,0,0a.27.27,0,0,0,.24,0,1.3,1.3,0,0,0,.35-.18,1.72,1.72,0,0,0,.21-.15q.12-.1.18-.06a.24.24,0,0,1,.09.08.09.09,0,0,1,0,.08l-.07.06-.07,0-.59.45.21.1h0l-.11.1-.16-.07-.1,0a1.14,1.14,0,0,1-.37.25.32.32,0,0,1-.27,0,.23.23,0,0,1-.07-.07.1.1,0,0,1,0-.09.3.3,0,0,1,.18-.14.65.65,0,0,1,.28,0l.23-.17.21-.16a1.12,1.12,0,0,1-.38.14.43.43,0,0,1-.28,0,.34.34,0,0,1-.08-.09A.1.1,0,0,1,59.74,59.14Z"/><path class="cls-1" d="M61.39,60.14a.26.26,0,0,1-.15,0,.34.34,0,0,1-.15-.07l.13-.09a.29.29,0,0,0,.24,0,.91.91,0,0,0,.33-.18l.21-.18c.11-.09.19-.11.25-.07a.47.47,0,0,1,.1.09s0,0,0,0l-.17.11a2.2,2.2,0,0,0-.3.19,2,2,0,0,1,.52-.13.54.54,0,0,1,.33.07.15.15,0,0,1,.07.1.14.14,0,0,1,0,.11,1.78,1.78,0,0,1-.35.24l-.06,0-.12.07-.06.06s0,.05,0,.07l.09.1-.12.09,0,0a.83.83,0,0,1-.21-.21.17.17,0,0,1,0-.18l.11-.1.24-.14h0l.14-.08s0,0,0,0,0,0,0,0-.13,0-.27,0a1.52,1.52,0,0,0-.46.17l-.1.06a.2.2,0,0,1-.24,0,.12.12,0,0,1,0-.05,0,0,0,0,1,0,0l0,0Z"/><path class="cls-1" d="M63.22,61.16a1.09,1.09,0,0,1-.4.07.4.4,0,0,1-.27-.09.24.24,0,0,1-.12-.19.35.35,0,0,1-.13-.05,1,1,0,0,1-.16-.1l.14-.08.1.06a.17.17,0,0,0,.1,0s0,0,0,0l0,0a.53.53,0,0,1,.16-.13.85.85,0,0,1,.24-.09,1.12,1.12,0,0,1,.36,0,.7.7,0,0,1,.29.13.44.44,0,0,1,.09.11.21.21,0,0,1,0,.12l0,0a.1.1,0,0,1,.06,0,0,0,0,0,1,0,0,.26.26,0,0,1,.1.11S64,61,64,61l-.11,0-.18.08-.28.15a.45.45,0,0,0-.14.11s0,.05,0,.07a.53.53,0,0,0,.09.11l-.13.09,0,0a.59.59,0,0,1-.18-.2.11.11,0,0,1,0-.14.23.23,0,0,1,.07-.07Zm.36-.25,0-.07s0,0,0,0a.27.27,0,0,0-.17-.07.91.91,0,0,0-.23,0,.81.81,0,0,0-.22.07.58.58,0,0,0-.15.11.11.11,0,0,0,0,.07.09.09,0,0,0,0,.06.37.37,0,0,0,.31,0A1.94,1.94,0,0,0,63.58,60.91Z"/><path class="cls-1" d="M63.2,61.62l.13-.08a.29.29,0,0,0,.24.07.85.85,0,0,0,.35-.13l.23-.13c.12-.08.21-.1.26-.05a.35.35,0,0,1,.09.11s0,0,0,.05a.79.79,0,0,1-.19.08l-.33.15a2.81,2.81,0,0,1,.54-.07.42.42,0,0,1,.28.1.14.14,0,0,1,.06.1.15.15,0,0,1,0,.11l-.12.07-.28.1A2.44,2.44,0,0,1,65,62a.38.38,0,0,1,.25.1.19.19,0,0,1,.07.13.11.11,0,0,1,0,.11,2.12,2.12,0,0,1-.41.2l0,0-.11,0-.07.05a.06.06,0,0,0,0,.07l.08.11-.13.07h0a.6.6,0,0,1-.19-.25.14.14,0,0,1,0-.17.76.76,0,0,1,.27-.14l.1,0,.14-.07,0,0,0,0,0,0a.44.44,0,0,0-.26,0,2.23,2.23,0,0,0-.48.09l-.15.06a.15.15,0,0,1-.18,0l-.08-.09a0,0,0,0,1,0-.05L64,62.1l.21-.08a2,2,0,0,0,.28-.13l.09,0s0,0,0,0a0,0,0,0,0,0,0s-.12,0-.27,0a1.43,1.43,0,0,0-.42.09l-.19.07-.1,0s0,0,0,0l-.08-.07,0,0s0,0,0,0l.06,0h0l-.15,0A.51.51,0,0,1,63.2,61.62Z"/><path class="cls-1" d="M65,63.22a1.48,1.48,0,0,1-.21-.13,1.39,1.39,0,0,1-.19-.15l.15-.07.12.11.12.07a.29.29,0,0,1,0-.13.63.63,0,0,1,.11-.13.53.53,0,0,1,.4-.13.5.5,0,0,1,.38.19A.28.28,0,0,1,66,63a.27.27,0,0,1-.1.18.52.52,0,0,1-.28.12,1.38,1.38,0,0,1-.4,0,.24.24,0,0,0,0,.12.66.66,0,0,0,.08.13h0l-.14.06,0,0a1.05,1.05,0,0,1-.14-.2A.7.7,0,0,1,65,63.22Zm.26-.06a.75.75,0,0,0,.3,0,.5.5,0,0,0,.22-.09.08.08,0,0,0,0-.07.13.13,0,0,0,0-.07.22.22,0,0,0-.2-.06.38.38,0,0,0-.24.11.19.19,0,0,0-.06.07A.11.11,0,0,0,65.22,63.16Z"/><path class="cls-1" d="M49,58.72l-.14,0a.52.52,0,0,1-.17,0l.09-.13a.31.31,0,0,0,.23,0,1,1,0,0,0,.24-.26l.45-.62.11-.17a.23.23,0,0,1,.25-.14l.12,0a0,0,0,0,1,0,.05s0,.06-.08.12l0,0-.64.77a2.89,2.89,0,0,1,.45-.3.49.49,0,0,1,.33,0,.14.14,0,0,1,.11.07.14.14,0,0,1,0,.11,1.48,1.48,0,0,1-.25.34l0,.06a.81.81,0,0,0-.09.1l0,.08s0,0,0,.06l.12.06-.08.13h0a.84.84,0,0,1-.27-.13.17.17,0,0,1,0-.18.57.57,0,0,1,.07-.13l.17-.21,0,0c.06-.07.1-.11.1-.13s0,0,0,0,0,0,0,0-.13,0-.26.1a1.49,1.49,0,0,0-.37.31l-.08.1a.18.18,0,0,1-.22.06l-.07,0s0,0,0,0l0,0S49,58.73,49,58.72Z"/><path class="cls-1" d="M50.48,59.15h-.25a1,1,0,0,1-.24,0l.1-.12.15,0h.15a.35.35,0,0,1,0-.14.53.53,0,0,1,.32-.48.52.52,0,0,1,.42,0,.29.29,0,0,1,.17.13.23.23,0,0,1,0,.2.57.57,0,0,1-.19.24,1,1,0,0,1-.36.18.2.2,0,0,0,.09.09.4.4,0,0,0,.13.07h0l-.09.13h0a1.56,1.56,0,0,1-.22-.1A.67.67,0,0,1,50.48,59.15Zm.2-.18a.71.71,0,0,0,.26-.13.37.37,0,0,0,.16-.18.11.11,0,0,0,0-.08.18.18,0,0,0-.07,0,.23.23,0,0,0-.2,0,.42.42,0,0,0-.16.21.34.34,0,0,0,0,.09A.15.15,0,0,0,50.68,59Z"/><path class="cls-1" d="M50.87,59.39l.09-.12h.14a.9.9,0,0,0,.19-.05c.08-.14.18-.29.28-.45l.34-.44a1.53,1.53,0,0,1,.25-.23.23.23,0,0,1,.18,0,.16.16,0,0,1,.08.08.24.24,0,0,1,0,.12.54.54,0,0,1-.15.18,1.17,1.17,0,0,1-.27.19c-.12.15-.23.29-.32.42a1.34,1.34,0,0,0-.15.27s0,.07,0,.09,0,.05.09.07l-.09.12h0a.48.48,0,0,1-.19-.11.14.14,0,0,1-.05-.13l-.2,0A.58.58,0,0,1,50.87,59.39Z"/><path class="cls-1" d="M51.51,59.62l.1-.12a.31.31,0,0,0,.14,0,.54.54,0,0,0,.19,0,4.73,4.73,0,0,1,.29-.44c.11-.15.23-.29.35-.43a1.18,1.18,0,0,1,.25-.23.23.23,0,0,1,.18,0,.15.15,0,0,1,.08.08.17.17,0,0,1,0,.12.44.44,0,0,1-.14.18,1.52,1.52,0,0,1-.28.19,3.71,3.71,0,0,0-.33.41,2.31,2.31,0,0,0-.16.26.09.09,0,0,0,0,.1.17.17,0,0,0,.09.06l-.1.12h0a.48.48,0,0,1-.19-.11.17.17,0,0,1-.05-.14.48.48,0,0,1-.2,0A.63.63,0,0,1,51.51,59.62Z"/><path class="cls-1" d="M53.33,59.61a.13.13,0,0,1-.06-.07s0-.06,0-.1a.19.19,0,0,1,.1-.1.28.28,0,0,1,.13,0,.16.16,0,0,1,.09.11.21.21,0,0,1,0,.17,1.58,1.58,0,0,1-.15.24,1.24,1.24,0,0,1-.22.18.76.76,0,0,1-.25.09.36.36,0,0,1-.23,0L52.58,60a.41.41,0,0,1-.07-.11.55.55,0,0,1-.18,0l-.18,0,.1-.12.12,0h.1s0-.05,0-.08l0-.08a.62.62,0,0,1,.15-.22.83.83,0,0,1,.23-.15.54.54,0,0,1,.25-.06.73.73,0,0,1,.22,0s0,0,0,0a0,0,0,0,1,0,0s0,0-.09,0l-.12.05a1,1,0,0,0-.29.19.82.82,0,0,0-.17.22.19.19,0,0,0,0,.1.12.12,0,0,0,.07.07.34.34,0,0,0,.29-.06A.59.59,0,0,0,53.33,59.61Z"/><path class="cls-1" d="M53.75,60.53l.11-.11a.36.36,0,0,0,.25,0,1.19,1.19,0,0,0,.3-.23l.18-.19q.13-.18.24-.12L55,60a.06.06,0,0,1,0,0,1.18,1.18,0,0,1-.16.13l-.27.24a2,2,0,0,1,.5-.22.4.4,0,0,1,.29,0,.2.2,0,0,1,.09.09.14.14,0,0,1,0,.11.91.91,0,0,1-.1.1c-.05,0-.13.1-.23.18a2.16,2.16,0,0,1,.52-.22.35.35,0,0,1,.27,0,.22.22,0,0,1,.11.1.13.13,0,0,1,0,.12,1.41,1.41,0,0,1-.33.31l0,0-.09.08-.06.07a.06.06,0,0,0,0,.07.38.38,0,0,0,.11.08l-.11.11h0a.72.72,0,0,1-.26-.18.17.17,0,0,1,0-.18,1.11,1.11,0,0,1,.22-.21l.09-.07.12-.1s0,0,0,0v0a0,0,0,0,0,0,0s-.11,0-.26.06a2,2,0,0,0-.43.23.53.53,0,0,0-.12.1.17.17,0,0,1-.18,0l-.11-.07a0,0,0,0,1,0,0s0,0,.11-.1l.18-.14.24-.2.07-.08v0l0,0s-.12,0-.26.05a1.28,1.28,0,0,0-.38.21l-.16.12-.08.06a0,0,0,0,1-.05,0,.26.26,0,0,1-.1,0l-.06,0a0,0,0,0,1,0,0l0,0h0a.26.26,0,0,1-.15,0A.53.53,0,0,1,53.75,60.53Z"/><path class="cls-1" d="M55.8,61.5l-.19,0-.17-.07.12-.1.13.05.14,0a1.19,1.19,0,0,1,.15-.18,1.64,1.64,0,0,1,.23-.21l.24-.16a.09.09,0,0,1,.1,0,.41.41,0,0,1,.12.09.08.08,0,0,1,0,.08l-.11.08-.16.09-.2.16a.53.53,0,0,0-.1.12.11.11,0,0,0,0,.07s0,0,0,0a.28.28,0,0,0,.24,0,1.16,1.16,0,0,0,.36-.17l.2-.15c.08-.07.14-.09.18-.07l.1.09a.08.08,0,0,1,0,.08l-.07.05-.06,0-.6.45.21.1h0l-.12.1L56.45,62l-.1,0a1.14,1.14,0,0,1-.37.25.29.29,0,0,1-.26,0,.13.13,0,0,1-.07-.08.08.08,0,0,1,0-.08.37.37,0,0,1,.18-.14.66.66,0,0,1,.28,0l.23-.17a1.66,1.66,0,0,0,.21-.16,1.05,1.05,0,0,1-.38.14.38.38,0,0,1-.28,0,.2.2,0,0,1-.08-.08A.1.1,0,0,1,55.8,61.5Z"/><path class="cls-1" d="M57.45,62.5a.26.26,0,0,1-.15,0,.34.34,0,0,1-.15-.07l.13-.09a.29.29,0,0,0,.24,0,.91.91,0,0,0,.33-.18l.21-.18c.11-.09.19-.11.25-.07a.31.31,0,0,1,.1.08s0,0,0,.06l-.18.11-.3.19a1.92,1.92,0,0,1,.53-.13.46.46,0,0,1,.32.07.24.24,0,0,1,.08.1.11.11,0,0,1,0,.11,1.58,1.58,0,0,1-.34.24l-.07,0-.11.07-.07.06a.08.08,0,0,0,0,.07.3.3,0,0,0,.1.09l-.13.1,0,0A.68.68,0,0,1,58,63a.17.17,0,0,1,0-.18l.12-.1.23-.14h0a.4.4,0,0,0,.14-.09v0l0,0a.42.42,0,0,0-.28,0,1.69,1.69,0,0,0-.45.18l-.11.06a.2.2,0,0,1-.24,0s0,0,0-.05a0,0,0,0,1,0,0l0,0Z"/><path class="cls-1" d="M59.28,63.52a1.09,1.09,0,0,1-.4.07.44.44,0,0,1-.27-.09.32.32,0,0,1-.08-.09.22.22,0,0,1,0-.1.39.39,0,0,1-.14-.05.65.65,0,0,1-.15-.1l.13-.08.1.06a.19.19,0,0,0,.1,0s0,0,0,0l0,0a.59.59,0,0,1,.17-.13.79.79,0,0,1,.23-.09.89.89,0,0,1,.36,0,.7.7,0,0,1,.29.13l.1.11a.34.34,0,0,1,0,.12l0,0,.06,0,0,0a.47.47,0,0,1,.09.12s0,.07,0,.09l-.1,0-.19.08a1.63,1.63,0,0,0-.27.15.52.52,0,0,0-.15.11s0,.05,0,.07a.53.53,0,0,0,.09.11l-.13.08h0a.66.66,0,0,1-.19-.2.12.12,0,0,1,0-.14.23.23,0,0,1,.07-.07Zm.36-.25a.11.11,0,0,0,0-.07l0-.05a.34.34,0,0,0-.16-.06.66.66,0,0,0-.24,0,.81.81,0,0,0-.22.07.4.4,0,0,0-.14.11.08.08,0,0,0,0,.13.38.38,0,0,0,.31,0A1.94,1.94,0,0,0,59.64,63.27Z"/><path class="cls-1" d="M59.26,64l.14-.08a.27.27,0,0,0,.23.07,1,1,0,0,0,.35-.13l.23-.13c.12-.08.21-.1.26-.05l.1.1s0,.05,0,.06a.79.79,0,0,1-.19.08l-.33.15A2.81,2.81,0,0,1,60.6,64a.42.42,0,0,1,.27.1.14.14,0,0,1,.06.1.15.15,0,0,1,0,.11l-.12.07-.27.1a2.33,2.33,0,0,1,.56-.06.38.38,0,0,1,.25.1.2.2,0,0,1,.08.13.15.15,0,0,1,0,.11,1.83,1.83,0,0,1-.41.2l0,0a.43.43,0,0,0-.12.05l-.07,0a0,0,0,0,0,0,.06s0,.07.08.11l-.14.08h0a.71.71,0,0,1-.19-.25.16.16,0,0,1,0-.17.76.76,0,0,1,.27-.14l.1,0,.15-.07s0,0,0,0l0,0a0,0,0,0,0,0,0,.5.5,0,0,0-.27,0,2,2,0,0,0-.47.09l-.16.06a.14.14,0,0,1-.17,0,.36.36,0,0,1-.09-.09,0,0,0,0,1,0,0l.14-.06.21-.08.28-.13.09,0a.08.08,0,0,0,0,0l0,0s-.12,0-.27,0a1.5,1.5,0,0,0-.42.09l-.18.07-.1,0a0,0,0,0,1,0,0l-.08-.07a.23.23,0,0,1,0,0s0,0,0,0l.06,0h0a.32.32,0,0,1-.14,0A.42.42,0,0,1,59.26,64Z"/><path class="cls-1" d="M61,65.58l-.22-.13a.9.9,0,0,1-.18-.15l.14-.07.12.11.12.07a.5.5,0,0,1,.05-.13.69.69,0,0,1,.11-.13.57.57,0,0,1,.79.06.29.29,0,0,1,.08.19.23.23,0,0,1-.09.18.59.59,0,0,1-.29.12,1.38,1.38,0,0,1-.4,0,.24.24,0,0,0,0,.12l.08.13h0l-.15.06,0,0a1.05,1.05,0,0,1-.14-.2A.45.45,0,0,1,61,65.58Zm.25-.06a.77.77,0,0,0,.3,0,.45.45,0,0,0,.22-.09.08.08,0,0,0,0-.07.13.13,0,0,0,0-.07.21.21,0,0,0-.2-.06.38.38,0,0,0-.24.11.19.19,0,0,0-.06.07Z"/><path class="cls-1" d="M46,60.87a.23.23,0,0,1-.14,0,.5.5,0,0,1-.17,0l.09-.13a.31.31,0,0,0,.23,0,1,1,0,0,0,.24-.25l.45-.63.11-.16c.07-.12.16-.17.25-.14a.35.35,0,0,1,.12.05,0,0,0,0,1,0,0s0,.06-.08.11l-.05.06-.64.77a1.92,1.92,0,0,1,.45-.3.6.6,0,0,1,.34,0,.2.2,0,0,1,.1.07.14.14,0,0,1,0,.11,1.19,1.19,0,0,1-.25.35l0,0a.59.59,0,0,0-.08.11.13.13,0,0,0,0,.07.06.06,0,0,0,0,.07.31.31,0,0,0,.13.06l-.09.13h0a.67.67,0,0,1-.27-.13.15.15,0,0,1,0-.17.42.42,0,0,1,.07-.13,1.45,1.45,0,0,1,.18-.21v0c.07-.07.1-.11.1-.13a0,0,0,0,0,0,0l0,0a.46.46,0,0,0-.26.1,1.34,1.34,0,0,0-.36.32.38.38,0,0,0-.09.09A.19.19,0,0,1,46,61l-.07,0a0,0,0,0,1,0,0l0,0Z"/><path class="cls-1" d="M47.41,61.31h-.25a.85.85,0,0,1-.23,0l.09-.13.15,0h.15a.4.4,0,0,1,0-.15.53.53,0,0,1,0-.16.48.48,0,0,1,.28-.31.56.56,0,0,1,.42,0,.29.29,0,0,1,.17.13.25.25,0,0,1,0,.21.57.57,0,0,1-.19.24,1,1,0,0,1-.36.17.43.43,0,0,0,.09.1l.13.06h0l-.09.12h0a.77.77,0,0,1-.37-.23Zm.2-.19a.68.68,0,0,0,.26-.12.39.39,0,0,0,.16-.19.08.08,0,0,0,0-.07s0,0-.07-.05a.22.22,0,0,0-.2,0,.6.6,0,0,0-.16.22.28.28,0,0,0,0,.09A.11.11,0,0,0,47.61,61.12Z"/><path class="cls-1" d="M47.8,61.55l.09-.13a.32.32,0,0,0,.14,0,.77.77,0,0,0,.19,0c.09-.15.18-.3.29-.45a4.7,4.7,0,0,1,.34-.44,1.19,1.19,0,0,1,.24-.23.19.19,0,0,1,.18,0,.14.14,0,0,1,.08.07.28.28,0,0,1,0,.13.54.54,0,0,1-.15.18,1.17,1.17,0,0,1-.27.19,4.46,4.46,0,0,0-.31.42,1.1,1.1,0,0,0-.16.27.08.08,0,0,0,0,.09.17.17,0,0,0,.09.06l-.09.13h0a.48.48,0,0,1-.19-.11.15.15,0,0,1-.05-.14.48.48,0,0,1-.2,0A.62.62,0,0,1,47.8,61.55Z"/><path class="cls-1" d="M48.44,61.77l.1-.12a.32.32,0,0,0,.14,0,.93.93,0,0,0,.19,0,3,3,0,0,1,.29-.44c.11-.15.23-.3.35-.44a1.07,1.07,0,0,1,.25-.22.2.2,0,0,1,.18,0s.07,0,.08.08a.24.24,0,0,1,0,.12.7.7,0,0,1-.15.18,1.5,1.5,0,0,1-.28.18,4.71,4.71,0,0,0-.32.42,1.29,1.29,0,0,0-.17.26.14.14,0,0,0,0,.09s0,0,.09.07l-.1.12h0a.48.48,0,0,1-.19-.11.19.19,0,0,1-.05-.14.65.65,0,0,1-.2,0A.43.43,0,0,1,48.44,61.77Z"/><path class="cls-1" d="M50.27,61.77a.13.13,0,0,1-.07-.08.14.14,0,0,1,0-.09.17.17,0,0,1,.1-.1.15.15,0,0,1,.13,0,.14.14,0,0,1,.09.11.22.22,0,0,1,0,.17.83.83,0,0,1-.15.23,1.3,1.3,0,0,1-.22.19.69.69,0,0,1-.25.09.45.45,0,0,1-.23,0,.32.32,0,0,1-.13-.08.25.25,0,0,1-.08-.1h-.18L49.08,62l.11-.11.11,0h.1s0,0,0-.08l0-.08a.69.69,0,0,1,.15-.21.87.87,0,0,1,.23-.16.7.7,0,0,1,.25,0,.4.4,0,0,1,.22,0l0,0v0l-.09.05-.12,0a1.62,1.62,0,0,0-.29.19.85.85,0,0,0-.17.23.18.18,0,0,0,0,.1.09.09,0,0,0,.07.06c.07,0,.17,0,.29,0A.73.73,0,0,0,50.27,61.77Z"/><path class="cls-1" d="M50.68,62.68l.12-.11a.28.28,0,0,0,.24,0,1.19,1.19,0,0,0,.3-.23l.18-.2c.1-.11.17-.15.24-.12l.12.08a.06.06,0,0,1,0,0l-.16.13-.27.23a2.46,2.46,0,0,1,.5-.21.35.35,0,0,1,.29,0,.24.24,0,0,1,.09.08.14.14,0,0,1,0,.11s-.05.06-.1.11l-.23.17a3.58,3.58,0,0,1,.52-.22.39.39,0,0,1,.27,0,.18.18,0,0,1,.11.1.11.11,0,0,1,0,.12,1.8,1.8,0,0,1-.33.3l0,0-.09.09-.06.07a0,0,0,0,0,0,.06.38.38,0,0,0,.11.08l-.11.12h0a.69.69,0,0,1-.25-.18.15.15,0,0,1,0-.18.86.86,0,0,1,.22-.22l.09-.06.12-.1,0,0v0h0s-.11,0-.25.05a2.55,2.55,0,0,0-.43.23l-.13.1a.16.16,0,0,1-.18,0l-.11-.07s0,0,0,0,0,0,.11-.1l.18-.13.24-.2.07-.08v0s0,0,0,0-.12,0-.26,0a1.41,1.41,0,0,0-.38.21l-.15.11-.09.07h0l-.1,0-.06,0s0,0,0,0l0-.05h0a.38.38,0,0,1-.15,0A.58.58,0,0,1,50.68,62.68Z"/><path class="cls-1" d="M52.73,63.66l-.19,0-.17-.07.12-.11a.38.38,0,0,0,.13.06l.14,0a1.19,1.19,0,0,1,.15-.18l.23-.2a1.85,1.85,0,0,1,.24-.16.12.12,0,0,1,.1,0l.12.09a.08.08,0,0,1,0,.08s0,0-.11.08l-.15.1-.21.15a.91.91,0,0,0-.1.13.07.07,0,0,0,0,.06.1.1,0,0,0,0,.05.32.32,0,0,0,.24,0,1.44,1.44,0,0,0,.36-.17l.2-.15c.08-.07.14-.09.18-.07s.08,0,.1.09a.06.06,0,0,1,0,.07.14.14,0,0,1-.07.06l-.06.05-.6.45a2.06,2.06,0,0,1,.22.09h0l-.12.11-.16-.07-.1,0a1.09,1.09,0,0,1-.37.24.29.29,0,0,1-.26,0,.17.17,0,0,1-.07-.08.1.1,0,0,1,0-.09.35.35,0,0,1,.18-.13.69.69,0,0,1,.29,0l.22-.16.21-.16a1.05,1.05,0,0,1-.38.14.4.4,0,0,1-.27-.05.24.24,0,0,1-.09-.08A.15.15,0,0,1,52.73,63.66Z"/><path class="cls-1" d="M54.38,64.66a.38.38,0,0,1-.15,0,.51.51,0,0,1-.15-.07l.13-.09a.28.28,0,0,0,.24,0,.91.91,0,0,0,.33-.18l.21-.17c.11-.09.19-.12.25-.08l.11.09s0,0,0,0l-.17.11-.31.19a2.5,2.5,0,0,1,.53-.13.53.53,0,0,1,.32.08.19.19,0,0,1,.08.1.12.12,0,0,1,0,.11,1.58,1.58,0,0,1-.34.24l-.07,0-.11.07s-.06,0-.06.06a0,0,0,0,0,0,.06s0,.06.1.1l-.13.1,0,0a.68.68,0,0,1-.21-.21.17.17,0,0,1,0-.18.44.44,0,0,1,.12-.1,1.36,1.36,0,0,1,.23-.14h0l.14-.09a0,0,0,0,0,0,0,0,0,0,0,0,0,0s-.13,0-.28,0a1.66,1.66,0,0,0-.45.17l-.11.07a.21.21,0,0,1-.24,0l0-.05v0l0,0Z"/><path class="cls-1" d="M56.21,65.68a1.34,1.34,0,0,1-.39.07.45.45,0,0,1-.28-.1.32.32,0,0,1-.08-.09.16.16,0,0,1,0-.09l-.14,0-.15-.1.13-.09.1.07.1,0s0,0,0,0l0-.05a.42.42,0,0,1,.16-.12.79.79,0,0,1,.23-.09.89.89,0,0,1,.36,0,.59.59,0,0,1,.29.13.47.47,0,0,1,.1.1.56.56,0,0,1,0,.12l0,0,.06,0,0,0a.44.44,0,0,1,.09.11s0,.07,0,.09,0,0-.1,0l-.19.08-.27.14-.15.12a.1.1,0,0,0,0,.07.41.41,0,0,0,.1.11l-.14.08h0A.82.82,0,0,1,56,66a.14.14,0,0,1,0-.15l.07-.06A.74.74,0,0,1,56.21,65.68Zm.36-.25a.14.14,0,0,0,0-.07s0,0,0,0a.34.34,0,0,0-.16-.06.66.66,0,0,0-.24,0,.65.65,0,0,0-.21.06.48.48,0,0,0-.15.11.2.2,0,0,0,0,.08.07.07,0,0,0,0,.06.39.39,0,0,0,.3,0A2.36,2.36,0,0,0,56.57,65.43Z"/><path class="cls-1" d="M56.19,66.13l.14-.07a.3.3,0,0,0,.23.07,1,1,0,0,0,.35-.13l.23-.14c.13-.08.21-.09.26,0a.91.91,0,0,1,.1.1.06.06,0,0,1,0,.06l-.19.08L57,66.2a2,2,0,0,1,.54-.06.37.37,0,0,1,.27.09.15.15,0,0,1,.06.11.1.1,0,0,1,0,.1l-.12.08-.27.1a2.37,2.37,0,0,1,.56-.06.38.38,0,0,1,.26.1.25.25,0,0,1,.07.12.17.17,0,0,1,0,.12,2,2,0,0,1-.41.19l0,0-.12.06-.07,0a.06.06,0,0,0,0,.07.29.29,0,0,0,.08.11l-.14.08h0a.86.86,0,0,1-.19-.25.17.17,0,0,1,0-.18,1,1,0,0,1,.27-.14l.1,0,.15-.06,0,0a0,0,0,0,0,0,0,0,0,0,0,0,0,0,.57.57,0,0,0-.27,0,2.83,2.83,0,0,0-.47.1l-.16.06a.14.14,0,0,1-.17,0,.38.38,0,0,1-.09-.1,0,0,0,0,1,0,0l.14-.06.21-.08.29-.12.09-.06a0,0,0,0,0,0,0l0,0s-.12,0-.26,0a1.57,1.57,0,0,0-.43.09l-.18.07-.1,0a.06.06,0,0,1,0,0l-.08-.06,0-.06a0,0,0,0,1,0,0s0,0,.06,0h0a.35.35,0,0,1-.14,0A.55.55,0,0,1,56.19,66.13Z"/><path class="cls-1" d="M58,67.74l-.22-.13a.93.93,0,0,1-.18-.16l.14-.06.12.1.12.08a.78.78,0,0,1,.05-.14l.11-.12a.5.5,0,0,1,.4-.13.55.55,0,0,1,.39.18.34.34,0,0,1,.08.2.23.23,0,0,1-.09.18.55.55,0,0,1-.29.11,1.09,1.09,0,0,1-.4,0,.27.27,0,0,0,0,.12.47.47,0,0,0,.09.12v0l-.15.06,0,0a.77.77,0,0,1-.14-.19A.49.49,0,0,1,58,67.74Zm.26-.06a.7.7,0,0,0,.29,0,.44.44,0,0,0,.23-.08.1.1,0,0,0,0-.14.21.21,0,0,0-.2-.06.37.37,0,0,0-.24.1.21.21,0,0,0-.06.08A.19.19,0,0,0,58.22,67.68Z"/><polygon class="cls-1" points="227.69 89.5 208.69 78.76 208.69 64 227.69 74.73 227.69 89.5"/><polygon class="cls-2" points="224.69 85.98 210.69 78.21 210.69 67.51 224.69 75.29 224.69 85.98"/><polygon class="cls-2" points="232.21 72.77 227.69 74.73 208.69 64 213.71 62.5 232.21 72.77"/><polygon class="cls-1" points="232.02 72.77 227.69 74.73 227.69 89.5 232 87.11 232.02 72.77"/><path class="cls-1" d="M218.93,68.21c.36-.6-.7-1.9-2.38-2.92s-3.32-1.36-3.68-.77.71,1.9,2.38,2.91S218.57,68.8,218.93,68.21Z"/><polygon class="cls-6" points="149.69 126.83 107.34 102.97 107.34 100.61 149.69 124.32 149.69 126.83"/><polygon class="cls-7" points="149.69 126.83 172.33 113.6 172.4 110.6 149.69 124.32 149.69 126.83"/><path class="cls-1" d="M226.93,72.21c.36-.6-.7-1.9-2.38-2.92s-3.32-1.36-3.68-.77.71,1.9,2.38,2.91S226.57,72.8,226.93,72.21Z"/><polygon class="cls-8" points="149.71 123.41 109.28 100.27 130.99 87.59 171.2 110.85 149.71 123.41"/><path class="cls-8" d="M150.34,122.33,109.91,99.19v2.16l17.3-10.11c1-.57,2.86-1.2,3.56-2.07.9-1.12.27-.12-.2-.37,1.84,1,3.63,2.1,5.44,3.14l34.56,20v-2.16l-21.49,12.56a1.25,1.25,0,0,0,1.26,2.16l21.5-12.56a1.27,1.27,0,0,0,0-2.16L131.62,86.51a1.3,1.3,0,0,0-1.27,0l-21.7,12.68a1.26,1.26,0,0,0,0,2.16l40.43,23.14A1.25,1.25,0,0,0,150.34,122.33Z"/><polygon class="cls-9" points="172.66 108.91 132.23 85.77 134.61 56.19 176.06 79.73 172.66 108.91"/><path class="cls-9" d="M173.29,107.83l-36.76-21a13.49,13.49,0,0,0-2.83-1.61c-1.36-.34-.24-1-.21.42-.06-2.76.46-5.64.68-8.39l1.69-21L134,57.26l37.36,21.23a18.85,18.85,0,0,0,3,1.7c1.59.52.51,1.12.48-.41.06,2.73-.66,5.7-1,8.4l-2.42,20.73c-.18,1.6,2.32,1.58,2.5,0l3.4-29.17a1.22,1.22,0,0,0-.61-1.08L135.24,55.11a1.26,1.26,0,0,0-1.88,1.08L131,85.77a1.21,1.21,0,0,0,.62,1.08L172,110A1.25,1.25,0,0,0,173.29,107.83Z"/><polygon class="cls-10" points="171.82 107.71 133.23 85.63 135.5 57.39 175.06 79.86 171.82 107.71"/><polygon class="cls-11" points="132.94 113.58 122.87 107.82 128.27 104.67 138.29 110.46 132.94 113.58"/><polygon class="cls-11" points="157.06 118.69 156.35 119.3 116.52 96.69 117.69 96.05 157.06 118.69"/><polygon class="cls-11" points="158.57 117.78 157.86 118.39 118.03 95.79 119.2 95.15 158.57 117.78"/><polygon class="cls-11" points="160.08 116.88 159.37 117.48 119.54 94.88 120.71 94.24 160.08 116.88"/><polygon class="cls-11" points="161.59 115.97 160.88 116.58 121.05 93.97 122.22 93.33 161.59 115.97"/><polygon class="cls-11" points="163.1 115.07 162.39 115.67 122.56 93.07 123.73 92.43 163.1 115.07"/><polygon class="cls-11" points="164.61 114.16 163.9 114.77 124.07 92.16 125.24 91.52 164.61 114.16"/><polygon class="cls-11" points="166.12 113.25 165.41 113.86 125.58 91.26 126.75 90.62 166.12 113.25"/><polygon class="cls-11" points="167.63 112.35 166.92 112.95 127.09 90.35 128.26 89.71 167.63 112.35"/><polygon class="cls-11" points="169.14 111.44 168.43 112.05 128.6 89.44 129.77 88.81 169.14 111.44"/><text class="cls-12" transform="translate(87.69 78.61)"><tspan xml:space="preserve">  </tspan></text></g></g></svg>